# MagicaVoxel @ Ephtracy

# group
o 

# material
mtllib Brogy_BL.mtl
usemtl palette

# normals
vn -1 0 0
vn 1 0 0
vn 0 0 1
vn 0 0 -1
vn 0 -1 0
vn 0 1 0

# texcoords
vt 0.0332031 0.5
vt 0.0683594 0.5
vt 0.533203 0.5
vt 0.701172 0.5
vt 0.962891 0.5

# verts
v -0.0999999 -0.7 0.0999999
v -0.0999999 -0.7 -0.2
v -0.0999999 -0.6 0.0999999
v -0.0999999 -0.6 -0.2
v -0.0999999 -0.5 0.0999999
v -0.0999999 -0.5 -0.2
v -0.0999999 -0.1 0.0999999
v -0.0999999 -0.1 -0.2
v -0.0999999 0.1 0.0999999
v -0.0999999 0.1 -0.2
v 0.1 -0.9 0.0999999
v 0.1 -0.9 -5.96046e-008
v 0.1 -0.9 -0.1
v 0.1 -0.9 -0.2
v 0.1 -0.8 0.2
v 0.1 -0.8 0.0999999
v 0.1 -0.8 -5.96046e-008
v 0.1 -0.8 -0.1
v 0.1 -0.8 -0.2
v 0.1 -0.8 -0.3
v 0.1 -0.7 0.2
v 0.1 -0.7 0.0999999
v 0.1 -0.7 -0.2
v 0.1 -0.7 -0.3
v 0.1 -0.6 0.2
v 0.1 -0.6 0.0999999
v 0.1 -0.6 -0.2
v 0.1 -0.6 -0.3
v 0.1 -0.5 0.2
v 0.1 -0.5 0.0999999
v 0.1 -0.5 -0.2
v 0.1 -0.5 -0.3
v 0.1 -0.4 0.0999999
v 0.1 -0.4 -5.96046e-008
v 0.1 -0.4 -0.1
v 0.1 -0.4 -0.2
v 0.1 -0.1 0.0999999
v 0.1 -0.1 -0.2
v 0.1 0.1 0.0999999
v 0.1 0.1 -0.2
v 0.2 -0.9 0.0999999
v 0.2 -0.9 -5.96046e-008
v 0.2 -0.9 -0.1
v 0.2 -0.9 -0.2
v 0.2 -0.8 0.2
v 0.2 -0.8 0.0999999
v 0.2 -0.8 -5.96046e-008
v 0.2 -0.8 -0.1
v 0.2 -0.8 -0.2
v 0.2 -0.8 -0.3
v 0.2 -0.7 0.2
v 0.2 -0.7 0.0999999
v 0.2 -0.7 -5.96046e-008
v 0.2 -0.7 -0.1
v 0.2 -0.7 -0.2
v 0.2 -0.7 -0.3
v 0.2 -0.6 0.2
v 0.2 -0.6 0.0999999
v 0.2 -0.6 -5.96046e-008
v 0.2 -0.6 -0.1
v 0.2 -0.6 -0.2
v 0.2 -0.6 -0.3
v 0.2 -0.5 0.2
v 0.2 -0.5 0.0999999
v 0.2 -0.5 -5.96046e-008
v 0.2 -0.5 -0.1
v 0.2 -0.5 -0.2
v 0.2 -0.5 -0.3
v 0.2 -0.4 0.0999999
v 0.2 -0.4 -5.96046e-008
v 0.2 -0.4 -0.1
v 0.2 -0.4 -0.2
v 0.3 -0.7 -5.96046e-008
v 0.3 -0.7 -0.1
v 0.3 -0.6 -5.96046e-008
v 0.3 -0.6 -0.1
v 0.1 -0.8 0.2
v 0.1 -0.7 0.2
v 0.1 -0.6 0.2
v 0.1 -0.5 0.2
v 0.2 -0.8 0.2
v 0.2 -0.7 0.2
v 0.2 -0.6 0.2
v 0.2 -0.5 0.2
v -0.0999999 -0.7 0.0999999
v -0.0999999 -0.6 0.0999999
v -0.0999999 -0.5 0.0999999
v -0.0999999 -0.1 0.0999999
v -0.0999999 0.1 0.0999999
v 0.1 -0.9 0.0999999
v 0.1 -0.8 0.0999999
v 0.1 -0.7 0.0999999
v 0.1 -0.6 0.0999999
v 0.1 -0.5 0.0999999
v 0.1 -0.4 0.0999999
v 0.1 -0.1 0.0999999
v 0.1 0.1 0.0999999
v 0.2 -0.9 0.0999999
v 0.2 -0.8 0.0999999
v 0.2 -0.5 0.0999999
v 0.2 -0.4 0.0999999
v 0.2 -0.7 -5.96046e-008
v 0.2 -0.6 -5.96046e-008
v 0.3 -0.7 -5.96046e-008
v 0.3 -0.6 -5.96046e-008
v 0.2 -0.7 -0.1
v 0.2 -0.6 -0.1
v 0.3 -0.7 -0.1
v 0.3 -0.6 -0.1
v -0.0999999 -0.7 -0.2
v -0.0999999 -0.6 -0.2
v -0.0999999 -0.5 -0.2
v -0.0999999 -0.1 -0.2
v -0.0999999 0.1 -0.2
v 0.1 -0.9 -0.2
v 0.1 -0.8 -0.2
v 0.1 -0.7 -0.2
v 0.1 -0.6 -0.2
v 0.1 -0.5 -0.2
v 0.1 -0.4 -0.2
v 0.1 -0.1 -0.2
v 0.1 0.1 -0.2
v 0.2 -0.9 -0.2
v 0.2 -0.8 -0.2
v 0.2 -0.5 -0.2
v 0.2 -0.4 -0.2
v 0.1 -0.8 -0.3
v 0.1 -0.7 -0.3
v 0.1 -0.6 -0.3
v 0.1 -0.5 -0.3
v 0.2 -0.8 -0.3
v 0.2 -0.7 -0.3
v 0.2 -0.6 -0.3
v 0.2 -0.5 -0.3
v 0.1 -0.9 0.0999999
v 0.2 -0.9 0.0999999
v 0.1 -0.9 -5.96046e-008
v 0.2 -0.9 -5.96046e-008
v 0.1 -0.9 -0.1
v 0.2 -0.9 -0.1
v 0.1 -0.9 -0.2
v 0.2 -0.9 -0.2
v 0.1 -0.8 0.2
v 0.2 -0.8 0.2
v 0.1 -0.8 0.0999999
v 0.2 -0.8 0.0999999
v 0.1 -0.8 -0.2
v 0.2 -0.8 -0.2
v 0.1 -0.8 -0.3
v 0.2 -0.8 -0.3
v -0.0999999 -0.7 0.0999999
v 0.1 -0.7 0.0999999
v 0.2 -0.7 -5.96046e-008
v 0.3 -0.7 -5.96046e-008
v 0.2 -0.7 -0.1
v 0.3 -0.7 -0.1
v -0.0999999 -0.7 -0.2
v 0.1 -0.7 -0.2
v 0.2 -0.6 -5.96046e-008
v 0.3 -0.6 -5.96046e-008
v 0.2 -0.6 -0.1
v 0.3 -0.6 -0.1
v 0.1 -0.5 0.2
v 0.2 -0.5 0.2
v 0.1 -0.5 0.0999999
v 0.2 -0.5 0.0999999
v 0.1 -0.5 -0.2
v 0.2 -0.5 -0.2
v 0.1 -0.5 -0.3
v 0.2 -0.5 -0.3
v 0.1 -0.4 0.0999999
v 0.2 -0.4 0.0999999
v 0.1 -0.4 -5.96046e-008
v 0.2 -0.4 -5.96046e-008
v 0.1 -0.4 -0.1
v 0.2 -0.4 -0.1
v 0.1 -0.4 -0.2
v 0.2 -0.4 -0.2
v -0.0999999 0.1 0.0999999
v 0.1 0.1 0.0999999
v -0.0999999 0.1 -0.2
v 0.1 0.1 -0.2

# faces
f 3/1/1 2/1/1 1/1/1
f 4/1/1 2/1/1 3/1/1
f 5/2/1 4/2/1 3/2/1
f 6/2/1 4/2/1 5/2/1
f 7/1/1 6/1/1 5/1/1
f 8/1/1 6/1/1 7/1/1
f 9/4/1 8/4/1 7/4/1
f 10/4/1 8/4/1 9/4/1
f 16/5/1 12/5/1 11/5/1
f 17/3/1 13/3/1 12/3/1
f 17/5/1 12/5/1 16/5/1
f 18/5/1 14/5/1 13/5/1
f 18/3/1 13/3/1 17/3/1
f 19/5/1 14/5/1 18/5/1
f 21/5/1 16/5/1 15/5/1
f 22/3/1 17/3/1 16/3/1
f 22/5/1 16/5/1 21/5/1
f 22/3/1 18/3/1 17/3/1
f 22/3/1 19/3/1 18/3/1
f 23/5/1 20/5/1 19/5/1
f 23/3/1 19/3/1 22/3/1
f 24/5/1 20/5/1 23/5/1
f 25/3/1 22/3/1 21/3/1
f 26/3/1 22/3/1 25/3/1
f 27/3/1 24/3/1 23/3/1
f 28/3/1 24/3/1 27/3/1
f 29/5/1 26/5/1 25/5/1
f 30/5/1 26/5/1 29/5/1
f 31/5/1 28/5/1 27/5/1
f 32/5/1 28/5/1 31/5/1
f 33/1/2 34/1/2 37/1/2
f 35/1/2 36/1/2 37/1/2
f 34/1/2 35/1/2 37/1/2
f 37/1/2 36/1/2 38/1/2
f 37/4/2 38/4/2 39/4/2
f 39/4/2 38/4/2 40/4/2
f 41/5/2 42/5/2 46/5/2
f 42/3/2 43/3/2 47/3/2
f 46/5/2 42/5/2 47/5/2
f 43/5/2 44/5/2 48/5/2
f 47/3/2 43/3/2 48/3/2
f 48/5/2 44/5/2 49/5/2
f 45/5/2 46/5/2 51/5/2
f 46/3/2 47/3/2 52/3/2
f 51/5/2 46/5/2 52/5/2
f 47/3/2 48/3/2 52/3/2
f 48/3/2 49/3/2 52/3/2
f 52/3/2 49/3/2 53/3/2
f 53/3/2 49/3/2 54/3/2
f 49/5/2 50/5/2 55/5/2
f 54/3/2 49/3/2 55/3/2
f 55/5/2 50/5/2 56/5/2
f 51/3/2 52/3/2 57/3/2
f 52/3/2 53/3/2 57/3/2
f 57/3/2 53/3/2 58/3/2
f 58/3/2 53/3/2 59/3/2
f 55/3/2 56/3/2 60/3/2
f 54/3/2 55/3/2 60/3/2
f 60/3/2 56/3/2 61/3/2
f 61/3/2 56/3/2 62/3/2
f 57/5/2 58/5/2 63/5/2
f 58/3/2 59/3/2 64/3/2
f 63/5/2 58/5/2 64/5/2
f 59/3/2 60/3/2 64/3/2
f 60/3/2 61/3/2 64/3/2
f 64/3/2 61/3/2 65/3/2
f 65/3/2 61/3/2 66/3/2
f 61/5/2 62/5/2 67/5/2
f 66/3/2 61/3/2 67/3/2
f 67/5/2 62/5/2 68/5/2
f 64/5/2 65/5/2 69/5/2
f 65/3/2 66/3/2 70/3/2
f 69/5/2 65/5/2 70/5/2
f 66/5/2 67/5/2 71/5/2
f 70/3/2 66/3/2 71/3/2
f 71/5/2 67/5/2 72/5/2
f 73/5/2 74/5/2 75/5/2
f 75/5/2 74/5/2 76/5/2
f 81/5/3 78/5/3 77/5/3
f 82/3/3 79/3/3 78/3/3
f 82/5/3 78/5/3 81/5/3
f 83/5/3 80/5/3 79/5/3
f 83/3/3 79/3/3 82/3/3
f 84/5/3 80/5/3 83/5/3
f 92/1/3 86/1/3 85/1/3
f 93/2/3 87/2/3 86/2/3
f 93/1/3 86/1/3 92/1/3
f 94/1/3 88/1/3 87/1/3
f 94/2/3 87/2/3 93/2/3
f 95/1/3 88/1/3 94/1/3
f 96/4/3 89/4/3 88/4/3
f 96/1/3 88/1/3 95/1/3
f 97/4/3 89/4/3 96/4/3
f 98/5/3 91/5/3 90/5/3
f 99/5/3 91/5/3 98/5/3
f 100/5/3 95/5/3 94/5/3
f 101/5/3 95/5/3 100/5/3
f 104/5/3 103/5/3 102/5/3
f 105/5/3 103/5/3 104/5/3
f 106/5/4 107/5/4 108/5/4
f 108/5/4 107/5/4 109/5/4
f 110/1/4 111/1/4 117/1/4
f 111/2/4 112/2/4 118/2/4
f 117/1/4 111/1/4 118/1/4
f 112/1/4 113/1/4 119/1/4
f 118/2/4 112/2/4 119/2/4
f 119/1/4 113/1/4 120/1/4
f 113/4/4 114/4/4 121/4/4
f 120/1/4 113/1/4 121/1/4
f 121/4/4 114/4/4 122/4/4
f 115/5/4 116/5/4 123/5/4
f 123/5/4 116/5/4 124/5/4
f 119/5/4 120/5/4 125/5/4
f 125/5/4 120/5/4 126/5/4
f 127/5/4 128/5/4 131/5/4
f 128/3/4 129/3/4 132/3/4
f 131/5/4 128/5/4 132/5/4
f 129/5/4 130/5/4 133/5/4
f 132/3/4 129/3/4 133/3/4
f 133/5/4 130/5/4 134/5/4
f 137/5/5 136/5/5 135/5/5
f 138/5/5 136/5/5 137/5/5
f 139/3/5 138/3/5 137/3/5
f 140/3/5 138/3/5 139/3/5
f 141/5/5 140/5/5 139/5/5
f 142/5/5 140/5/5 141/5/5
f 145/5/5 144/5/5 143/5/5
f 146/5/5 144/5/5 145/5/5
f 149/5/5 148/5/5 147/5/5
f 150/5/5 148/5/5 149/5/5
f 155/5/5 154/5/5 153/5/5
f 156/5/5 154/5/5 155/5/5
f 157/1/5 152/1/5 151/1/5
f 158/1/5 152/1/5 157/1/5
f 159/5/6 160/5/6 161/5/6
f 161/5/6 160/5/6 162/5/6
f 163/5/6 164/5/6 165/5/6
f 165/5/6 164/5/6 166/5/6
f 167/5/6 168/5/6 169/5/6
f 169/5/6 168/5/6 170/5/6
f 171/5/6 172/5/6 173/5/6
f 173/5/6 172/5/6 174/5/6
f 173/3/6 174/3/6 175/3/6
f 175/3/6 174/3/6 176/3/6
f 175/5/6 176/5/6 177/5/6
f 177/5/6 176/5/6 178/5/6
f 179/4/6 180/4/6 181/4/6
f 181/4/6 180/4/6 182/4/6
