# MagicaVoxel @ Ephtracy

# group
o 

# material
mtllib Dorry_Bo.mtl
usemtl palette

# normals
vn -1 0 0
vn 1 0 0
vn 0 0 1
vn 0 0 -1
vn 0 -1 0
vn 0 1 0

# texcoords
vt 0.0332031 0.5
vt 0.0449219 0.5
vt 0.0683594 0.5
vt 0.517578 0.5
vt 0.537109 0.5
vt 0.701172 0.5
vt 0.845703 0.5
vt 0.900391 0.5
vt 0.927734 0.5
vt 0.958984 0.5
vt 0.962891 0.5
vt 0.994141 0.5

# verts
v -0.4 1 0.3
v -0.4 1 -0.4
v -0.4 1.1 0.3
v -0.4 1.1 -0.4
v -0.4 1.2 0.3
v -0.4 1.2 -0.4
v -0.3 -0.5 0.1
v -0.3 -0.5 -0.2
v -0.3 -0.5 -0.3
v -0.3 -0.5 -0.4
v -0.3 -0.4 0.1
v -0.3 -0.4 -0.2
v -0.3 -0.3 0.1
v -0.3 -0.3 -0.2
v -0.3 -0.2 0.1
v -0.3 -0.2 -2.98023e-008
v -0.3 -0.2 -0.1
v -0.3 -0.2 -0.2
v -0.3 0 0.1
v -0.3 0 -2.98023e-008
v -0.3 0 -0.1
v -0.3 0 -0.2
v -0.3 0.2 0.1
v -0.3 0.2 -0.2
v -0.3 0.4 0.1
v -0.3 0.4 -2.98023e-008
v -0.3 0.4 -0.1
v -0.3 0.4 -0.2
v -0.3 0.4 -0.3
v -0.3 0.4 -0.4
v -0.3 0.5 0.2
v -0.3 0.5 0.1
v -0.3 0.5 -2.98023e-008
v -0.3 0.5 -0.1
v -0.3 0.6 0.2
v -0.3 0.6 0.1
v -0.3 0.6 -2.98023e-008
v -0.3 0.7 -0.1
v -0.3 0.7 -0.2
v -0.3 0.7 -0.3
v -0.3 0.8 0.2
v -0.3 0.8 0.1
v -0.3 0.8 -2.98023e-008
v -0.3 0.8 -0.1
v -0.3 0.9 0.1
v -0.3 0.9 -2.98023e-008
v -0.3 1 0.2
v -0.3 1 0.1
v -0.3 1 -0.3
v -0.3 1.2 0.3
v -0.3 1.2 -0.4
v -0.3 1.3 0.3
v -0.3 1.3 -0.4
v -0.2 0 0.2
v -0.2 0 0.1
v -0.2 0.2 0.3
v -0.2 0.2 0.2
v -0.2 0.2 0.1
v -0.2 0.4 0.1
v -0.2 0.5 0.2
v -0.2 0.5 0.1
v -0.2 0.6 0.3
v -0.2 0.6 0.2
v -0.2 1.3 0.3
v -0.2 1.3 0.2
v -0.2 1.3 -0.4
v -0.2 1.4 0.3
v -0.2 1.4 0.2
v -0.2 1.4 -0.4
v -0.0999999 -0.1 0.2
v -0.0999999 -0.1 0.1
v -0.0999999 0 0.3
v -0.0999999 0 0.2
v -0.0999999 0 0.1
v -0.0999999 0.2 0.3
v -0.0999999 0.2 0.2
v -0.0999999 0.4 -0.2
v -0.0999999 0.4 -0.3
v -0.0999999 0.5 -0.2
v -0.0999999 0.5 -0.3
v -0.0999999 0.6 -0.2
v -0.0999999 0.6 -0.3
v -0.0999999 0.7 -0.2
v -0.0999999 0.7 -0.3
v -0.0999999 1.4 0.3
v -0.0999999 1.4 0.2
v -0.0999999 1.4 -0.4
v -0.0999999 1.5 0.3
v -0.0999999 1.5 -0.4
v 5.96046e-008 -0.2 0.2
v 5.96046e-008 -0.2 0.1
v 5.96046e-008 -0.1 0.3
v 5.96046e-008 -0.1 0.2
v 5.96046e-008 -0.1 0.1
v 5.96046e-008 0 0.3
v 5.96046e-008 0 0.2
v 0.2 1.3 0.2
v 0.2 1.3 -0.3
v 0.2 1.4 0.2
v 0.2 1.4 -0.3
v 0.3 1.2 0.2
v 0.3 1.2 -0.3
v 0.3 1.3 0.2
v 0.3 1.3 -0.3
v 0.4 1.1 0.2
v 0.4 1.1 -0.3
v 0.4 1.2 0.2
v 0.4 1.2 -0.3
v -0.3 1.1 0.2
v -0.3 1.1 -0.3
v -0.3 1.2 0.2
v -0.3 1.2 -0.3
v -0.2 1.2 0.2
v -0.2 1.2 -0.3
v -0.2 1.3 0.2
v -0.2 1.3 -0.3
v -0.0999999 1.3 0.2
v -0.0999999 1.3 -0.3
v -0.0999999 1.4 0.2
v -0.0999999 1.4 -0.3
v 0.1 -0.2 0.2
v 0.1 -0.2 0.1
v 0.1 -0.1 0.3
v 0.1 -0.1 0.2
v 0.1 -0.1 0.1
v 0.1 0 0.3
v 0.1 0 0.2
v 0.2 -0.1 0.2
v 0.2 -0.1 0.1
v 0.2 0 0.3
v 0.2 0 0.2
v 0.2 0 0.1
v 0.2 0.2 0.3
v 0.2 0.2 0.2
v 0.2 1.4 0.3
v 0.2 1.4 0.2
v 0.2 1.4 -0.4
v 0.2 1.5 0.3
v 0.2 1.5 -0.4
v 0.3 0 0.2
v 0.3 0 0.1
v 0.3 0.2 0.3
v 0.3 0.2 0.2
v 0.3 0.5 0.2
v 0.3 0.5 0.1
v 0.3 0.6 0.3
v 0.3 0.6 0.2
v 0.3 1.3 0.3
v 0.3 1.3 0.2
v 0.3 1.3 -0.4
v 0.3 1.4 0.3
v 0.3 1.4 0.2
v 0.3 1.4 -0.4
v 0.4 -0.5 0.1
v 0.4 -0.5 -0.2
v 0.4 -0.5 -0.3
v 0.4 -0.5 -0.4
v 0.4 -0.4 0.1
v 0.4 -0.4 -0.2
v 0.4 -0.3 0.1
v 0.4 -0.3 -0.2
v 0.4 -0.2 0.1
v 0.4 -0.2 -0.2
v 0.4 0 0.1
v 0.4 0 -0.2
v 0.4 0.4 -0.2
v 0.4 0.4 -0.3
v 0.4 0.4 -0.4
v 0.4 0.5 0.2
v 0.4 0.5 0.1
v 0.4 0.5 -2.98023e-008
v 0.4 0.5 -0.2
v 0.4 0.5 -0.3
v 0.4 0.6 0.2
v 0.4 0.6 0.1
v 0.4 0.6 -2.98023e-008
v 0.4 0.6 -0.2
v 0.4 0.6 -0.3
v 0.4 0.7 -0.1
v 0.4 0.7 -0.2
v 0.4 0.8 0.2
v 0.4 0.8 0.1
v 0.4 0.8 -2.98023e-008
v 0.4 0.8 -0.1
v 0.4 0.9 0.1
v 0.4 0.9 -2.98023e-008
v 0.4 1 0.2
v 0.4 1 0.1
v 0.4 1 -0.3
v 0.4 1.2 0.3
v 0.4 1.2 -0.4
v 0.4 1.3 0.3
v 0.4 1.3 -0.4
v 0.5 1 0.3
v 0.5 1 -0.4
v 0.5 1.1 0.3
v 0.5 1.1 -0.4
v 0.5 1.2 0.3
v 0.5 1.2 -0.4
v -0.4 1 0.3
v -0.4 1.1 0.3
v -0.4 1.2 0.3
v -0.3 1.2 0.3
v -0.3 1.3 0.3
v -0.2 0.2 0.3
v -0.2 0.6 0.3
v -0.2 1.3 0.3
v -0.2 1.4 0.3
v -0.0999999 0 0.3
v -0.0999999 0.2 0.3
v -0.0999999 1.2 0.3
v -0.0999999 1.3 0.3
v -0.0999999 1.4 0.3
v -0.0999999 1.5 0.3
v 5.96046e-008 -0.1 0.3
v 5.96046e-008 0 0.3
v 5.96046e-008 1.1 0.3
v 5.96046e-008 1.2 0.3
v 5.96046e-008 1.3 0.3
v 5.96046e-008 1.4 0.3
v 0.1 -0.1 0.3
v 0.1 0 0.3
v 0.1 1.1 0.3
v 0.1 1.2 0.3
v 0.1 1.3 0.3
v 0.1 1.4 0.3
v 0.2 0 0.3
v 0.2 0.2 0.3
v 0.2 1.2 0.3
v 0.2 1.3 0.3
v 0.2 1.4 0.3
v 0.2 1.5 0.3
v 0.3 0.2 0.3
v 0.3 0.6 0.3
v 0.3 1.3 0.3
v 0.3 1.4 0.3
v 0.4 1.2 0.3
v 0.4 1.3 0.3
v 0.5 1 0.3
v 0.5 1.1 0.3
v 0.5 1.2 0.3
v -0.3 0.5 0.2
v -0.3 0.6 0.2
v -0.3 0.8 0.2
v -0.3 1 0.2
v -0.2 0 0.2
v -0.2 0.2 0.2
v -0.2 0.5 0.2
v -0.2 0.6 0.2
v -0.2 0.7 0.2
v -0.2 0.8 0.2
v -0.2 1 0.2
v -0.0999999 -0.1 0.2
v -0.0999999 0 0.2
v -0.0999999 0.2 0.2
v -0.0999999 0.8 0.2
v -0.0999999 0.9 0.2
v 5.96046e-008 -0.2 0.2
v 5.96046e-008 -0.1 0.2
v 5.96046e-008 0 0.2
v 5.96046e-008 0.8 0.2
v 5.96046e-008 0.9 0.2
v 5.96046e-008 1 0.2
v 0.1 -0.2 0.2
v 0.1 -0.1 0.2
v 0.1 0 0.2
v 0.1 0.8 0.2
v 0.1 1 0.2
v 0.2 -0.1 0.2
v 0.2 0 0.2
v 0.2 0.2 0.2
v 0.2 0.8 0.2
v 0.2 0.9 0.2
v 0.3 0 0.2
v 0.3 0.2 0.2
v 0.3 0.5 0.2
v 0.3 0.6 0.2
v 0.3 0.7 0.2
v 0.3 0.8 0.2
v 0.3 0.9 0.2
v 0.3 1 0.2
v 0.4 0.5 0.2
v 0.4 0.6 0.2
v 0.4 0.8 0.2
v 0.4 1 0.2
v -0.3 -0.5 0.1
v -0.3 -0.4 0.1
v -0.3 -0.3 0.1
v -0.3 -0.2 0.1
v -0.3 0 0.1
v -0.3 0.2 0.1
v -0.3 0.4 0.1
v -0.3 0.5 0.1
v -0.2 0 0.1
v -0.2 0.2 0.1
v -0.2 0.4 0.1
v -0.2 0.5 0.1
v -0.0999999 -0.4 0.1
v -0.0999999 -0.3 0.1
v -0.0999999 -0.1 0.1
v -0.0999999 0 0.1
v 5.96046e-008 -0.2 0.1
v 5.96046e-008 -0.1 0.1
v 0.1 -0.2 0.1
v 0.1 -0.1 0.1
v 0.2 -0.4 0.1
v 0.2 -0.3 0.1
v 0.2 -0.1 0.1
v 0.2 0 0.1
v 0.3 0 0.1
v 0.3 0.5 0.1
v 0.4 -0.5 0.1
v 0.4 -0.4 0.1
v 0.4 -0.3 0.1
v 0.4 -0.2 0.1
v 0.4 0 0.1
v 0.4 0.5 0.1
v -0.3 -0.5 -0.3
v -0.3 0.4 -0.3
v -0.3 1.1 -0.3
v -0.3 1.2 -0.3
v -0.2 1.2 -0.3
v -0.2 1.3 -0.3
v -0.0999999 0.4 -0.3
v -0.0999999 1.3 -0.3
v -0.0999999 1.4 -0.3
v 0.2 1.3 -0.3
v 0.2 1.4 -0.3
v 0.3 1.2 -0.3
v 0.3 1.3 -0.3
v 0.4 -0.5 -0.3
v 0.4 0.4 -0.3
v 0.4 1.1 -0.3
v 0.4 1.2 -0.3
v -0.3 1.1 0.2
v -0.3 1.2 0.2
v -0.2 1.2 0.2
v -0.2 1.3 0.2
v -0.0999999 1.2 0.2
v -0.0999999 1.3 0.2
v -0.0999999 1.4 0.2
v 5.96046e-008 1.1 0.2
v 5.96046e-008 1.2 0.2
v 5.96046e-008 1.3 0.2
v 5.96046e-008 1.4 0.2
v 0.1 1.1 0.2
v 0.1 1.2 0.2
v 0.1 1.3 0.2
v 0.1 1.4 0.2
v 0.2 1.2 0.2
v 0.2 1.3 0.2
v 0.2 1.4 0.2
v 0.3 1.2 0.2
v 0.3 1.3 0.2
v 0.4 1.1 0.2
v 0.4 1.2 0.2
v -0.3 -0.5 -0.2
v -0.3 -0.4 -0.2
v -0.3 -0.3 -0.2
v -0.3 -0.2 -0.2
v -0.3 0 -0.2
v -0.3 0.2 -0.2
v -0.3 0.4 -0.2
v -0.3 0.7 -0.2
v -0.2 0.1 -0.2
v -0.2 0.2 -0.2
v -0.2 0.3 -0.2
v -0.2 0.4 -0.2
v -0.0999999 0 -0.2
v -0.0999999 0.1 -0.2
v -0.0999999 0.2 -0.2
v -0.0999999 0.3 -0.2
v -0.0999999 0.4 -0.2
v -0.0999999 0.5 -0.2
v -0.0999999 0.6 -0.2
v -0.0999999 0.7 -0.2
v 5.96046e-008 0.1 -0.2
v 5.96046e-008 0.2 -0.2
v 0.1 0 -0.2
v 0.1 0.1 -0.2
v 0.4 -0.5 -0.2
v 0.4 -0.4 -0.2
v 0.4 -0.3 -0.2
v 0.4 -0.2 -0.2
v 0.4 0 -0.2
v 0.4 0.4 -0.2
v -0.3 0.7 -0.3
v -0.3 1 -0.3
v -0.0999999 0.4 -0.3
v -0.0999999 0.5 -0.3
v -0.0999999 0.6 -0.3
v -0.0999999 0.7 -0.3
v 0.4 0.4 -0.3
v 0.4 0.5 -0.3
v 0.4 0.6 -0.3
v 0.4 1 -0.3
v -0.4 1 -0.4
v -0.4 1.1 -0.4
v -0.4 1.2 -0.4
v -0.3 -0.5 -0.4
v -0.3 0.4 -0.4
v -0.3 1.2 -0.4
v -0.3 1.3 -0.4
v -0.2 1.3 -0.4
v -0.2 1.4 -0.4
v -0.0999999 1.4 -0.4
v -0.0999999 1.5 -0.4
v 0.2 1.4 -0.4
v 0.2 1.5 -0.4
v 0.3 1.3 -0.4
v 0.3 1.4 -0.4
v 0.4 -0.5 -0.4
v 0.4 0.4 -0.4
v 0.4 1.2 -0.4
v 0.4 1.3 -0.4
v 0.5 1 -0.4
v 0.5 1.1 -0.4
v 0.5 1.2 -0.4
v -0.3 -0.5 0.1
v 0.4 -0.5 0.1
v -0.3 -0.5 -0.2
v 0.4 -0.5 -0.2
v -0.3 -0.5 -0.3
v 0.4 -0.5 -0.3
v -0.3 -0.5 -0.4
v 0.4 -0.5 -0.4
v 5.96046e-008 -0.2 0.2
v 0.1 -0.2 0.2
v 5.96046e-008 -0.2 0.1
v 0.1 -0.2 0.1
v 5.96046e-008 -0.1 0.3
v 0.1 -0.1 0.3
v -0.0999999 -0.1 0.2
v 5.96046e-008 -0.1 0.2
v 0.1 -0.1 0.2
v 0.2 -0.1 0.2
v -0.0999999 -0.1 0.1
v 5.96046e-008 -0.1 0.1
v 0.1 -0.1 0.1
v 0.2 -0.1 0.1
v -0.0999999 0 0.3
v 5.96046e-008 0 0.3
v 0.1 0 0.3
v 0.2 0 0.3
v -0.2 0 0.2
v -0.0999999 0 0.2
v 5.96046e-008 0 0.2
v 0.1 0 0.2
v 0.2 0 0.2
v 0.3 0 0.2
v -0.2 0 0.1
v -0.0999999 0 0.1
v 0.2 0 0.1
v 0.3 0 0.1
v -0.2 0.2 0.3
v -0.0999999 0.2 0.3
v 0.2 0.2 0.3
v 0.3 0.2 0.3
v -0.2 0.2 0.2
v -0.0999999 0.2 0.2
v 0.2 0.2 0.2
v 0.3 0.2 0.2
v -0.0999999 0.4 -0.2
v 0.4 0.4 -0.2
v -0.0999999 0.4 -0.3
v 0.4 0.4 -0.3
v -0.3 0.5 0.2
v -0.2 0.5 0.2
v 0.3 0.5 0.2
v 0.4 0.5 0.2
v -0.3 0.5 0.1
v -0.2 0.5 0.1
v 0.3 0.5 0.1
v 0.4 0.5 0.1
v -0.3 0.7 -0.2
v -0.0999999 0.7 -0.2
v -0.3 0.7 -0.3
v -0.0999999 0.7 -0.3
v -0.4 1 0.3
v 0.5 1 0.3
v -0.3 1 0.2
v -0.2 1 0.2
v 5.96046e-008 1 0.2
v 0.1 1 0.2
v 0.3 1 0.2
v 0.4 1 0.2
v -0.3 1 0.1
v 0.4 1 0.1
v -0.3 1 -0.3
v 0.4 1 -0.3
v -0.4 1 -0.4
v 0.5 1 -0.4
v -0.3 1.2 0.2
v -0.2 1.2 0.2
v 0.3 1.2 0.2
v 0.4 1.2 0.2
v -0.3 1.2 -0.3
v -0.2 1.2 -0.3
v 0.3 1.2 -0.3
v 0.4 1.2 -0.3
v -0.2 1.3 0.2
v -0.0999999 1.3 0.2
v 0.2 1.3 0.2
v 0.3 1.3 0.2
v -0.2 1.3 -0.3
v -0.0999999 1.3 -0.3
v 0.2 1.3 -0.3
v 0.3 1.3 -0.3
v -0.0999999 1.4 0.2
v 5.96046e-008 1.4 0.2
v 0.1 1.4 0.2
v 0.2 1.4 0.2
v -0.0999999 1.4 -0.3
v 0.2 1.4 -0.3
v -0.3 0.4 -0.3
v -0.0999999 0.4 -0.3
v 0.4 0.4 -0.3
v -0.3 0.4 -0.4
v 0.4 0.4 -0.4
v -0.2 0.6 0.3
v 0.3 0.6 0.3
v -0.2 0.6 0.2
v 0.3 0.6 0.2
v -0.3 1.1 0.2
v 5.96046e-008 1.1 0.2
v 0.1 1.1 0.2
v 0.4 1.1 0.2
v -0.3 1.1 -0.3
v 0.4 1.1 -0.3
v -0.4 1.2 0.3
v -0.3 1.2 0.3
v 0.4 1.2 0.3
v 0.5 1.2 0.3
v -0.4 1.2 -0.4
v -0.3 1.2 -0.4
v 0.4 1.2 -0.4
v 0.5 1.2 -0.4
v -0.3 1.3 0.3
v -0.2 1.3 0.3
v 0.3 1.3 0.3
v 0.4 1.3 0.3
v -0.2 1.3 0.2
v 0.3 1.3 0.2
v -0.3 1.3 -0.4
v -0.2 1.3 -0.4
v 0.3 1.3 -0.4
v 0.4 1.3 -0.4
v -0.2 1.4 0.3
v -0.0999999 1.4 0.3
v 0.2 1.4 0.3
v 0.3 1.4 0.3
v -0.2 1.4 0.2
v -0.0999999 1.4 0.2
v 0.2 1.4 0.2
v 0.3 1.4 0.2
v -0.2 1.4 -0.4
v -0.0999999 1.4 -0.4
v 0.2 1.4 -0.4
v 0.3 1.4 -0.4
v -0.0999999 1.5 0.3
v 0.2 1.5 0.3
v -0.0999999 1.5 -0.4
v 0.2 1.5 -0.4

# faces
f 3/3/1 2/3/1 1/3/1
f 4/3/1 2/3/1 3/3/1
f 5/2/1 4/2/1 3/2/1
f 6/2/1 4/2/1 5/2/1
f 11/11/1 8/11/1 7/11/1
f 12/11/1 8/11/1 11/11/1
f 13/6/1 12/6/1 11/6/1
f 14/6/1 12/6/1 13/6/1
f 15/11/1 14/11/1 13/11/1
f 16/11/1 14/11/1 15/11/1
f 17/11/1 14/11/1 16/11/1
f 18/11/1 14/11/1 17/11/1
f 19/6/1 16/6/1 15/6/1
f 20/1/1 17/1/1 16/1/1
f 20/6/1 16/6/1 19/6/1
f 21/6/1 18/6/1 17/6/1
f 21/1/1 17/1/1 20/1/1
f 22/6/1 18/6/1 21/6/1
f 23/1/1 20/1/1 19/1/1
f 23/1/1 21/1/1 20/1/1
f 23/1/1 22/1/1 21/1/1
f 24/1/1 22/1/1 23/1/1
f 25/6/1 24/6/1 23/6/1
f 26/6/1 24/6/1 25/6/1
f 27/6/1 24/6/1 26/6/1
f 28/6/1 24/6/1 27/6/1
f 29/4/1 10/4/1 9/4/1
f 30/4/1 10/4/1 29/4/1
f 32/1/1 26/1/1 25/1/1
f 33/7/1 27/7/1 26/7/1
f 33/1/1 26/1/1 32/1/1
f 34/1/1 28/1/1 27/1/1
f 34/7/1 27/7/1 33/7/1
f 35/5/1 33/5/1 32/5/1
f 35/5/1 32/5/1 31/5/1
f 36/5/1 33/5/1 35/5/1
f 37/1/1 34/1/1 33/1/1
f 37/5/1 33/5/1 36/5/1
f 38/1/1 28/1/1 34/1/1
f 38/1/1 34/1/1 37/1/1
f 38/1/1 37/1/1 36/1/1
f 39/1/1 28/1/1 38/1/1
f 41/10/1 36/10/1 35/10/1
f 42/1/1 38/1/1 36/1/1
f 42/10/1 36/10/1 41/10/1
f 43/1/1 38/1/1 42/1/1
f 44/5/1 40/5/1 39/5/1
f 44/1/1 38/1/1 43/1/1
f 44/5/1 39/5/1 38/5/1
f 45/1/1 43/1/1 42/1/1
f 45/1/1 42/1/1 41/1/1
f 46/5/1 44/5/1 43/5/1
f 46/1/1 43/1/1 45/1/1
f 47/1/1 45/1/1 41/1/1
f 48/5/1 46/5/1 45/5/1
f 48/1/1 45/1/1 47/1/1
f 49/5/1 40/5/1 44/5/1
f 49/5/1 46/5/1 48/5/1
f 49/5/1 44/5/1 46/5/1
f 52/2/1 51/2/1 50/2/1
f 53/2/1 51/2/1 52/2/1
f 57/5/1 55/5/1 54/5/1
f 58/5/1 55/5/1 57/5/1
f 59/5/1 57/5/1 56/5/1
f 59/5/1 58/5/1 57/5/1
f 60/5/1 59/5/1 56/5/1
f 61/5/1 59/5/1 60/5/1
f 62/5/1 60/5/1 56/5/1
f 63/5/1 60/5/1 62/5/1
f 67/3/1 65/3/1 64/3/1
f 68/2/1 66/2/1 65/2/1
f 68/3/1 65/3/1 67/3/1
f 69/2/1 66/2/1 68/2/1
f 73/5/1 71/5/1 70/5/1
f 74/5/1 71/5/1 73/5/1
f 75/5/1 73/5/1 72/5/1
f 76/5/1 73/5/1 75/5/1
f 79/4/1 78/4/1 77/4/1
f 80/4/1 78/4/1 79/4/1
f 81/1/1 80/1/1 79/1/1
f 82/1/1 80/1/1 81/1/1
f 83/5/1 82/5/1 81/5/1
f 84/5/1 82/5/1 83/5/1
f 88/2/1 86/2/1 85/2/1
f 88/2/1 87/2/1 86/2/1
f 89/2/1 87/2/1 88/2/1
f 93/5/1 91/5/1 90/5/1
f 94/5/1 91/5/1 93/5/1
f 95/5/1 93/5/1 92/5/1
f 96/5/1 93/5/1 95/5/1
f 99/2/1 98/2/1 97/2/1
f 100/2/1 98/2/1 99/2/1
f 103/2/1 102/2/1 101/2/1
f 104/2/1 102/2/1 103/2/1
f 107/2/1 106/2/1 105/2/1
f 108/2/1 106/2/1 107/2/1
f 109/2/2 110/2/2 111/2/2
f 111/2/2 110/2/2 112/2/2
f 113/2/2 114/2/2 115/2/2
f 115/2/2 114/2/2 116/2/2
f 117/2/2 118/2/2 119/2/2
f 119/2/2 118/2/2 120/2/2
f 121/5/2 122/5/2 124/5/2
f 124/5/2 122/5/2 125/5/2
f 123/5/2 124/5/2 126/5/2
f 126/5/2 124/5/2 127/5/2
f 128/5/2 129/5/2 131/5/2
f 131/5/2 129/5/2 132/5/2
f 130/5/2 131/5/2 133/5/2
f 133/5/2 131/5/2 134/5/2
f 135/2/2 136/2/2 138/2/2
f 136/2/2 137/2/2 138/2/2
f 138/2/2 137/2/2 139/2/2
f 140/5/2 141/5/2 143/5/2
f 143/5/2 141/5/2 144/5/2
f 142/5/2 143/5/2 144/5/2
f 144/5/2 141/5/2 145/5/2
f 142/5/2 144/5/2 146/5/2
f 146/5/2 144/5/2 147/5/2
f 148/3/2 149/3/2 151/3/2
f 149/2/2 150/2/2 152/2/2
f 151/3/2 149/3/2 152/3/2
f 152/2/2 150/2/2 153/2/2
f 154/11/2 155/11/2 158/11/2
f 158/11/2 155/11/2 159/11/2
f 158/6/2 159/6/2 160/6/2
f 160/6/2 159/6/2 161/6/2
f 160/11/2 161/11/2 162/11/2
f 162/11/2 161/11/2 163/11/2
f 162/6/2 163/6/2 164/6/2
f 164/6/2 163/6/2 165/6/2
f 164/1/2 165/1/2 166/1/2
f 156/4/2 157/4/2 167/4/2
f 167/4/2 157/4/2 168/4/2
f 164/1/2 166/1/2 170/1/2
f 170/1/2 166/1/2 171/1/2
f 166/4/2 167/4/2 172/4/2
f 171/1/2 166/1/2 172/1/2
f 172/4/2 167/4/2 173/4/2
f 170/5/2 171/5/2 174/5/2
f 169/5/2 170/5/2 174/5/2
f 174/5/2 171/5/2 175/5/2
f 172/1/2 173/1/2 176/1/2
f 175/5/2 171/5/2 176/5/2
f 171/1/2 172/1/2 176/1/2
f 176/1/2 173/1/2 177/1/2
f 177/1/2 173/1/2 178/1/2
f 175/1/2 176/1/2 179/1/2
f 176/1/2 177/1/2 179/1/2
f 177/5/2 178/5/2 180/5/2
f 179/1/2 177/1/2 180/1/2
f 174/10/2 175/10/2 181/10/2
f 175/1/2 179/1/2 182/1/2
f 181/10/2 175/10/2 182/10/2
f 182/1/2 179/1/2 183/1/2
f 179/5/2 180/5/2 184/5/2
f 183/1/2 179/1/2 184/1/2
f 182/1/2 183/1/2 185/1/2
f 181/1/2 182/1/2 185/1/2
f 183/5/2 184/5/2 186/5/2
f 185/1/2 183/1/2 186/1/2
f 181/1/2 185/1/2 187/1/2
f 185/5/2 186/5/2 188/5/2
f 187/1/2 185/1/2 188/1/2
f 180/5/2 178/5/2 189/5/2
f 188/5/2 186/5/2 189/5/2
f 184/5/2 180/5/2 189/5/2
f 186/5/2 184/5/2 189/5/2
f 190/2/2 191/2/2 192/2/2
f 192/2/2 191/2/2 193/2/2
f 194/3/2 195/3/2 196/3/2
f 196/3/2 195/3/2 197/3/2
f 196/2/2 197/2/2 198/2/2
f 198/2/2 197/2/2 199/2/2
f 203/2/3 202/2/3 201/2/3
f 207/2/3 204/2/3 203/2/3
f 210/5/3 206/5/3 205/5/3
f 211/2/3 203/2/3 201/2/3
f 211/2/3 207/2/3 203/2/3
f 212/3/3 208/3/3 207/3/3
f 212/2/3 207/2/3 211/2/3
f 213/3/3 208/3/3 212/3/3
f 216/5/3 210/5/3 209/5/3
f 217/3/3 201/3/3 200/3/3
f 217/2/3 211/2/3 201/2/3
f 218/3/3 212/3/3 211/3/3
f 218/2/3 211/2/3 217/2/3
f 219/2/3 214/2/3 213/2/3
f 219/3/3 212/3/3 218/3/3
f 219/2/3 213/2/3 212/2/3
f 220/2/3 214/2/3 219/2/3
f 221/5/3 216/5/3 215/5/3
f 222/5/3 210/5/3 216/5/3
f 222/5/3 216/5/3 221/5/3
f 223/3/3 218/3/3 217/3/3
f 223/3/3 217/3/3 200/3/3
f 223/3/3 219/3/3 218/3/3
f 223/3/3 220/3/3 219/3/3
f 224/3/3 220/3/3 223/3/3
f 225/3/3 220/3/3 224/3/3
f 226/2/3 214/2/3 220/2/3
f 226/3/3 220/3/3 225/3/3
f 227/5/3 210/5/3 222/5/3
f 228/5/3 206/5/3 210/5/3
f 228/5/3 210/5/3 227/5/3
f 229/3/3 225/3/3 224/3/3
f 229/2/3 224/2/3 223/2/3
f 230/2/3 226/2/3 225/2/3
f 230/3/3 225/3/3 229/3/3
f 231/2/3 214/2/3 226/2/3
f 231/2/3 226/2/3 230/2/3
f 232/2/3 214/2/3 231/2/3
f 233/5/3 206/5/3 228/5/3
f 234/5/3 206/5/3 233/5/3
f 235/2/3 230/2/3 229/2/3
f 235/3/3 231/3/3 230/3/3
f 236/3/3 231/3/3 235/3/3
f 237/2/3 229/2/3 223/2/3
f 237/2/3 235/2/3 229/2/3
f 238/2/3 235/2/3 237/2/3
f 239/3/3 223/3/3 200/3/3
f 240/2/3 237/2/3 223/2/3
f 240/3/3 223/3/3 239/3/3
f 241/2/3 237/2/3 240/2/3
f 248/5/3 243/5/3 242/5/3
f 249/10/3 244/10/3 243/10/3
f 249/5/3 243/5/3 248/5/3
f 250/10/3 244/10/3 249/10/3
f 251/1/3 245/1/3 244/1/3
f 251/10/3 244/10/3 250/10/3
f 252/1/3 245/1/3 251/1/3
f 254/5/3 247/5/3 246/5/3
f 255/5/3 247/5/3 254/5/3
f 256/10/3 252/10/3 251/10/3
f 256/1/3 251/1/3 250/1/3
f 257/10/3 252/10/3 256/10/3
f 259/5/3 254/5/3 253/5/3
f 260/5/3 254/5/3 259/5/3
f 261/12/3 257/12/3 256/12/3
f 261/1/3 256/1/3 250/1/3
f 262/10/3 252/10/3 257/10/3
f 262/12/3 257/12/3 261/12/3
f 263/10/3 252/10/3 262/10/3
f 264/5/3 259/5/3 258/5/3
f 265/5/3 259/5/3 264/5/3
f 267/1/3 261/1/3 250/1/3
f 267/1/3 263/1/3 262/1/3
f 267/1/3 262/1/3 261/1/3
f 268/1/3 263/1/3 267/1/3
f 269/5/3 266/5/3 265/5/3
f 270/5/3 266/5/3 269/5/3
f 272/10/3 268/10/3 267/10/3
f 272/1/3 267/1/3 250/1/3
f 273/10/3 268/10/3 272/10/3
f 274/5/3 271/5/3 270/5/3
f 275/5/3 271/5/3 274/5/3
f 277/10/3 250/10/3 249/10/3
f 278/1/3 272/1/3 250/1/3
f 278/10/3 250/10/3 277/10/3
f 279/12/3 273/12/3 272/12/3
f 279/1/3 272/1/3 278/1/3
f 280/10/3 268/10/3 273/10/3
f 280/12/3 273/12/3 279/12/3
f 281/10/3 268/10/3 280/10/3
f 282/5/3 277/5/3 276/5/3
f 283/10/3 279/10/3 278/10/3
f 283/5/3 277/5/3 282/5/3
f 283/10/3 278/10/3 277/10/3
f 284/1/3 280/1/3 279/1/3
f 284/10/3 279/10/3 283/10/3
f 284/1/3 281/1/3 280/1/3
f 285/1/3 281/1/3 284/1/3
f 294/6/3 290/6/3 289/6/3
f 294/1/3 291/1/3 290/1/3
f 295/6/3 292/6/3 291/6/3
f 295/1/3 291/1/3 294/1/3
f 296/1/3 293/1/3 292/1/3
f 296/6/3 292/6/3 295/6/3
f 297/1/3 293/1/3 296/1/3
f 298/11/3 287/11/3 286/11/3
f 298/6/3 288/6/3 287/6/3
f 299/11/3 289/11/3 288/11/3
f 299/6/3 288/6/3 298/6/3
f 300/6/3 294/6/3 289/6/3
f 301/6/3 294/6/3 300/6/3
f 302/11/3 289/11/3 299/11/3
f 302/6/3 300/6/3 289/6/3
f 303/6/3 300/6/3 302/6/3
f 304/11/3 302/11/3 299/11/3
f 306/11/3 298/11/3 286/11/3
f 306/3/3 299/3/3 298/3/3
f 307/11/3 304/11/3 299/11/3
f 307/3/3 299/3/3 306/3/3
f 308/6/3 305/6/3 304/6/3
f 310/6/3 309/6/3 308/6/3
f 312/11/3 306/11/3 286/11/3
f 313/6/3 307/6/3 306/6/3
f 313/11/3 306/11/3 312/11/3
f 314/11/3 304/11/3 307/11/3
f 314/6/3 307/6/3 313/6/3
f 315/6/3 310/6/3 308/6/3
f 315/11/3 304/11/3 314/11/3
f 315/6/3 308/6/3 304/6/3
f 316/1/3 311/1/3 310/1/3
f 316/6/3 310/6/3 315/6/3
f 317/1/3 311/1/3 316/1/3
f 322/2/3 321/2/3 320/2/3
f 324/4/3 319/4/3 318/4/3
f 325/2/3 323/2/3 322/2/3
f 327/2/3 325/2/3 322/2/3
f 327/2/3 326/2/3 325/2/3
f 328/2/3 326/2/3 327/2/3
f 329/2/3 322/2/3 320/2/3
f 329/2/3 327/2/3 322/2/3
f 330/2/3 327/2/3 329/2/3
f 331/4/3 324/4/3 318/4/3
f 332/4/3 324/4/3 331/4/3
f 333/2/3 329/2/3 320/2/3
f 334/2/3 329/2/3 333/2/3
f 335/2/4 336/2/4 337/2/4
f 335/2/4 337/2/4 339/2/4
f 337/2/4 338/2/4 339/2/4
f 339/2/4 338/2/4 340/2/4
f 335/2/4 339/2/4 342/2/4
f 339/3/4 340/3/4 343/3/4
f 342/2/4 339/2/4 343/2/4
f 340/2/4 341/2/4 344/2/4
f 343/3/4 340/3/4 344/3/4
f 344/2/4 341/2/4 345/2/4
f 342/3/4 343/3/4 346/3/4
f 343/3/4 344/3/4 346/3/4
f 344/3/4 345/3/4 346/3/4
f 346/3/4 345/3/4 347/3/4
f 347/3/4 345/3/4 348/3/4
f 348/3/4 345/3/4 349/3/4
f 346/2/4 347/2/4 350/2/4
f 347/3/4 348/3/4 350/3/4
f 348/2/4 349/2/4 351/2/4
f 350/3/4 348/3/4 351/3/4
f 351/2/4 349/2/4 352/2/4
f 346/2/4 350/2/4 353/2/4
f 350/2/4 351/2/4 353/2/4
f 353/2/4 351/2/4 354/2/4
f 346/2/4 353/2/4 355/2/4
f 355/2/4 353/2/4 356/2/4
f 361/1/4 362/1/4 365/1/4
f 362/6/4 363/6/4 366/6/4
f 365/1/4 362/1/4 366/1/4
f 366/6/4 363/6/4 367/6/4
f 363/1/4 364/1/4 368/1/4
f 367/6/4 363/6/4 368/6/4
f 360/6/4 361/6/4 369/6/4
f 361/1/4 365/1/4 369/1/4
f 366/6/4 367/6/4 370/6/4
f 369/1/4 365/1/4 370/1/4
f 365/6/4 366/6/4 370/6/4
f 370/6/4 367/6/4 371/6/4
f 367/1/4 368/1/4 372/1/4
f 371/6/4 367/6/4 372/6/4
f 368/1/4 364/1/4 373/1/4
f 372/1/4 368/1/4 373/1/4
f 373/1/4 364/1/4 374/1/4
f 374/1/4 364/1/4 375/1/4
f 375/1/4 364/1/4 376/1/4
f 370/6/4 371/6/4 377/6/4
f 369/6/4 370/6/4 377/6/4
f 371/1/4 372/1/4 378/1/4
f 377/6/4 371/6/4 378/6/4
f 372/1/4 373/1/4 378/1/4
f 369/6/4 377/6/4 379/6/4
f 360/6/4 369/6/4 379/6/4
f 377/1/4 378/1/4 380/1/4
f 379/6/4 377/6/4 380/6/4
f 357/11/4 358/11/4 381/11/4
f 358/6/4 359/6/4 382/6/4
f 381/11/4 358/11/4 382/11/4
f 359/11/4 360/11/4 383/11/4
f 382/6/4 359/6/4 383/6/4
f 360/6/4 379/6/4 384/6/4
f 383/11/4 360/11/4 384/11/4
f 379/1/4 380/1/4 385/1/4
f 384/6/4 379/6/4 385/6/4
f 380/1/4 378/1/4 386/1/4
f 385/1/4 380/1/4 386/1/4
f 378/1/4 373/1/4 386/1/4
f 387/5/4 388/5/4 392/5/4
f 389/4/4 390/4/4 393/4/4
f 390/1/4 391/1/4 394/1/4
f 393/4/4 390/4/4 394/4/4
f 391/5/4 392/5/4 395/5/4
f 394/1/4 391/1/4 395/1/4
f 392/5/4 388/5/4 396/5/4
f 395/5/4 392/5/4 396/5/4
f 398/2/4 399/2/4 402/2/4
f 402/2/4 403/2/4 404/2/4
f 404/2/4 405/2/4 406/2/4
f 404/2/4 406/2/4 408/2/4
f 406/2/4 407/2/4 408/2/4
f 408/2/4 407/2/4 409/2/4
f 402/2/4 404/2/4 410/2/4
f 404/2/4 408/2/4 410/2/4
f 410/2/4 408/2/4 411/2/4
f 400/4/4 401/4/4 412/4/4
f 412/4/4 401/4/4 413/4/4
f 398/2/4 402/2/4 414/2/4
f 402/2/4 410/2/4 414/2/4
f 414/2/4 410/2/4 415/2/4
f 397/3/4 398/3/4 416/3/4
f 398/2/4 414/2/4 417/2/4
f 416/3/4 398/3/4 417/3/4
f 417/2/4 414/2/4 418/2/4
f 421/11/5 420/11/5 419/11/5
f 422/11/5 420/11/5 421/11/5
f 425/4/5 424/4/5 423/4/5
f 426/4/5 424/4/5 425/4/5
f 429/5/5 428/5/5 427/5/5
f 430/5/5 428/5/5 429/5/5
f 434/5/5 432/5/5 431/5/5
f 435/5/5 432/5/5 434/5/5
f 437/5/5 434/5/5 433/5/5
f 438/5/5 434/5/5 437/5/5
f 439/5/5 436/5/5 435/5/5
f 440/5/5 436/5/5 439/5/5
f 446/5/5 442/5/5 441/5/5
f 447/5/5 442/5/5 446/5/5
f 448/5/5 444/5/5 443/5/5
f 449/5/5 444/5/5 448/5/5
f 451/5/5 446/5/5 445/5/5
f 452/5/5 446/5/5 451/5/5
f 453/5/5 450/5/5 449/5/5
f 454/5/5 450/5/5 453/5/5
f 459/5/5 456/5/5 455/5/5
f 460/5/5 456/5/5 459/5/5
f 461/5/5 458/5/5 457/5/5
f 462/5/5 458/5/5 461/5/5
f 465/4/5 464/4/5 463/4/5
f 466/4/5 464/4/5 465/4/5
f 471/5/5 468/5/5 467/5/5
f 472/5/5 468/5/5 471/5/5
f 473/5/5 470/5/5 469/5/5
f 474/5/5 470/5/5 473/5/5
f 477/5/5 476/5/5 475/5/5
f 478/5/5 476/5/5 477/5/5
f 481/3/5 480/3/5 479/3/5
f 482/3/5 480/3/5 481/3/5
f 483/3/5 480/3/5 482/3/5
f 484/3/5 480/3/5 483/3/5
f 485/3/5 480/3/5 484/3/5
f 486/3/5 480/3/5 485/3/5
f 487/3/5 481/3/5 479/3/5
f 488/3/5 480/3/5 486/3/5
f 489/3/5 487/3/5 479/3/5
f 490/3/5 480/3/5 488/3/5
f 491/3/5 489/3/5 479/3/5
f 491/3/5 490/3/5 489/3/5
f 492/3/5 480/3/5 490/3/5
f 492/3/5 490/3/5 491/3/5
f 497/2/5 494/2/5 493/2/5
f 498/2/5 494/2/5 497/2/5
f 499/2/5 496/2/5 495/2/5
f 500/2/5 496/2/5 499/2/5
f 505/2/5 502/2/5 501/2/5
f 506/2/5 502/2/5 505/2/5
f 507/2/5 504/2/5 503/2/5
f 508/2/5 504/2/5 507/2/5
f 513/2/5 510/2/5 509/2/5
f 513/2/5 512/2/5 511/2/5
f 513/2/5 511/2/5 510/2/5
f 514/2/5 512/2/5 513/2/5
f 515/4/6 516/4/6 518/4/6
f 516/4/6 517/4/6 518/4/6
f 518/4/6 517/4/6 519/4/6
f 520/5/6 521/5/6 522/5/6
f 522/5/6 521/5/6 523/5/6
f 524/5/6 525/5/6 528/5/6
f 526/5/6 527/5/6 528/5/6
f 525/5/6 526/5/6 528/5/6
f 528/5/6 527/5/6 529/5/6
f 530/2/6 531/2/6 534/2/6
f 534/2/6 531/2/6 535/2/6
f 532/2/6 533/2/6 536/2/6
f 536/2/6 533/2/6 537/2/6
f 538/2/6 539/2/6 542/2/6
f 540/2/6 541/2/6 543/2/6
f 538/2/6 542/2/6 544/2/6
f 544/2/6 542/2/6 545/2/6
f 543/2/6 541/2/6 546/2/6
f 546/2/6 541/2/6 547/2/6
f 548/3/6 549/3/6 552/3/6
f 552/3/6 549/3/6 553/3/6
f 550/3/6 551/3/6 554/3/6
f 554/3/6 551/3/6 555/3/6
f 552/2/6 553/2/6 556/2/6
f 556/2/6 553/2/6 557/2/6
f 554/2/6 555/2/6 558/2/6
f 558/2/6 555/2/6 559/2/6
f 560/2/6 561/2/6 562/2/6
f 562/2/6 561/2/6 563/2/6
