# MagicaVoxel @ Ephtracy

# group
o 

# material
mtllib Dorry_BL.mtl
usemtl palette

# normals
vn -1 0 0
vn 1 0 0
vn 0 0 1
vn 0 0 -1
vn 0 -1 0
vn 0 1 0

# texcoords
vt 0.0332031 0.5
vt 0.0683594 0.5
vt 0.533203 0.5
vt 0.962891 0.5

# verts
v -0.0999999 -0.7 0.0999999
v -0.0999999 -0.7 -0.2
v -0.0999999 -0.6 0.0999999
v -0.0999999 -0.6 -0.2
v -0.0999999 -0.5 0.0999999
v -0.0999999 -0.5 -0.2
v -0.0999999 0.1 0.0999999
v -0.0999999 0.1 -0.2
v 0.1 -0.9 0.0999999
v 0.1 -0.9 -5.96046e-008
v 0.1 -0.9 -0.1
v 0.1 -0.9 -0.2
v 0.1 -0.8 0.2
v 0.1 -0.8 0.0999999
v 0.1 -0.8 -5.96046e-008
v 0.1 -0.8 -0.1
v 0.1 -0.8 -0.2
v 0.1 -0.8 -0.3
v 0.1 -0.7 0.2
v 0.1 -0.7 0.0999999
v 0.1 -0.7 -0.2
v 0.1 -0.7 -0.3
v 0.1 -0.6 0.2
v 0.1 -0.6 0.0999999
v 0.1 -0.6 -0.2
v 0.1 -0.6 -0.3
v 0.1 -0.5 0.2
v 0.1 -0.5 0.0999999
v 0.1 -0.5 -0.2
v 0.1 -0.5 -0.3
v 0.1 -0.4 0.0999999
v 0.1 -0.4 -5.96046e-008
v 0.1 -0.4 -0.1
v 0.1 -0.4 -0.2
v 0.1 0.1 0.0999999
v 0.1 0.1 -0.2
v 0.2 -0.9 0.0999999
v 0.2 -0.9 -5.96046e-008
v 0.2 -0.9 -0.1
v 0.2 -0.9 -0.2
v 0.2 -0.8 0.2
v 0.2 -0.8 0.0999999
v 0.2 -0.8 -5.96046e-008
v 0.2 -0.8 -0.1
v 0.2 -0.8 -0.2
v 0.2 -0.8 -0.3
v 0.2 -0.7 0.2
v 0.2 -0.7 0.0999999
v 0.2 -0.7 -5.96046e-008
v 0.2 -0.7 -0.1
v 0.2 -0.7 -0.2
v 0.2 -0.7 -0.3
v 0.2 -0.6 0.2
v 0.2 -0.6 0.0999999
v 0.2 -0.6 -5.96046e-008
v 0.2 -0.6 -0.1
v 0.2 -0.6 -0.2
v 0.2 -0.6 -0.3
v 0.2 -0.5 0.2
v 0.2 -0.5 0.0999999
v 0.2 -0.5 -5.96046e-008
v 0.2 -0.5 -0.1
v 0.2 -0.5 -0.2
v 0.2 -0.5 -0.3
v 0.2 -0.4 0.0999999
v 0.2 -0.4 -5.96046e-008
v 0.2 -0.4 -0.1
v 0.2 -0.4 -0.2
v 0.3 -0.7 -5.96046e-008
v 0.3 -0.7 -0.1
v 0.3 -0.6 -5.96046e-008
v 0.3 -0.6 -0.1
v 0.1 -0.8 0.2
v 0.1 -0.7 0.2
v 0.1 -0.6 0.2
v 0.1 -0.5 0.2
v 0.2 -0.8 0.2
v 0.2 -0.7 0.2
v 0.2 -0.6 0.2
v 0.2 -0.5 0.2
v -0.0999999 -0.7 0.0999999
v -0.0999999 -0.6 0.0999999
v -0.0999999 -0.5 0.0999999
v -0.0999999 0.1 0.0999999
v 0.1 -0.9 0.0999999
v 0.1 -0.8 0.0999999
v 0.1 -0.7 0.0999999
v 0.1 -0.6 0.0999999
v 0.1 -0.5 0.0999999
v 0.1 -0.4 0.0999999
v 0.1 0.1 0.0999999
v 0.2 -0.9 0.0999999
v 0.2 -0.8 0.0999999
v 0.2 -0.5 0.0999999
v 0.2 -0.4 0.0999999
v 0.2 -0.7 -5.96046e-008
v 0.2 -0.6 -5.96046e-008
v 0.3 -0.7 -5.96046e-008
v 0.3 -0.6 -5.96046e-008
v 0.2 -0.7 -0.1
v 0.2 -0.6 -0.1
v 0.3 -0.7 -0.1
v 0.3 -0.6 -0.1
v -0.0999999 -0.7 -0.2
v -0.0999999 -0.6 -0.2
v -0.0999999 -0.5 -0.2
v -0.0999999 0.1 -0.2
v 0.1 -0.9 -0.2
v 0.1 -0.8 -0.2
v 0.1 -0.7 -0.2
v 0.1 -0.6 -0.2
v 0.1 -0.5 -0.2
v 0.1 -0.4 -0.2
v 0.1 0.1 -0.2
v 0.2 -0.9 -0.2
v 0.2 -0.8 -0.2
v 0.2 -0.5 -0.2
v 0.2 -0.4 -0.2
v 0.1 -0.8 -0.3
v 0.1 -0.7 -0.3
v 0.1 -0.6 -0.3
v 0.1 -0.5 -0.3
v 0.2 -0.8 -0.3
v 0.2 -0.7 -0.3
v 0.2 -0.6 -0.3
v 0.2 -0.5 -0.3
v 0.1 -0.9 0.0999999
v 0.2 -0.9 0.0999999
v 0.1 -0.9 -5.96046e-008
v 0.2 -0.9 -5.96046e-008
v 0.1 -0.9 -0.1
v 0.2 -0.9 -0.1
v 0.1 -0.9 -0.2
v 0.2 -0.9 -0.2
v 0.1 -0.8 0.2
v 0.2 -0.8 0.2
v 0.1 -0.8 0.0999999
v 0.2 -0.8 0.0999999
v 0.1 -0.8 -0.2
v 0.2 -0.8 -0.2
v 0.1 -0.8 -0.3
v 0.2 -0.8 -0.3
v -0.0999999 -0.7 0.0999999
v 0.1 -0.7 0.0999999
v 0.2 -0.7 -5.96046e-008
v 0.3 -0.7 -5.96046e-008
v 0.2 -0.7 -0.1
v 0.3 -0.7 -0.1
v -0.0999999 -0.7 -0.2
v 0.1 -0.7 -0.2
v 0.2 -0.6 -5.96046e-008
v 0.3 -0.6 -5.96046e-008
v 0.2 -0.6 -0.1
v 0.3 -0.6 -0.1
v 0.1 -0.5 0.2
v 0.2 -0.5 0.2
v 0.1 -0.5 0.0999999
v 0.2 -0.5 0.0999999
v 0.1 -0.5 -0.2
v 0.2 -0.5 -0.2
v 0.1 -0.5 -0.3
v 0.2 -0.5 -0.3
v 0.1 -0.4 0.0999999
v 0.2 -0.4 0.0999999
v 0.1 -0.4 -5.96046e-008
v 0.2 -0.4 -5.96046e-008
v 0.1 -0.4 -0.1
v 0.2 -0.4 -0.1
v 0.1 -0.4 -0.2
v 0.2 -0.4 -0.2
v -0.0999999 0.1 0.0999999
v 0.1 0.1 0.0999999
v -0.0999999 0.1 -0.2
v 0.1 0.1 -0.2

# faces
f 3/1/1 2/1/1 1/1/1
f 4/1/1 2/1/1 3/1/1
f 5/2/1 4/2/1 3/2/1
f 6/2/1 4/2/1 5/2/1
f 7/1/1 6/1/1 5/1/1
f 8/1/1 6/1/1 7/1/1
f 14/4/1 10/4/1 9/4/1
f 15/3/1 11/3/1 10/3/1
f 15/4/1 10/4/1 14/4/1
f 16/4/1 12/4/1 11/4/1
f 16/3/1 11/3/1 15/3/1
f 17/4/1 12/4/1 16/4/1
f 19/4/1 14/4/1 13/4/1
f 20/3/1 15/3/1 14/3/1
f 20/4/1 14/4/1 19/4/1
f 20/3/1 16/3/1 15/3/1
f 20/3/1 17/3/1 16/3/1
f 21/4/1 18/4/1 17/4/1
f 21/3/1 17/3/1 20/3/1
f 22/4/1 18/4/1 21/4/1
f 23/3/1 20/3/1 19/3/1
f 24/3/1 20/3/1 23/3/1
f 25/3/1 22/3/1 21/3/1
f 26/3/1 22/3/1 25/3/1
f 27/4/1 24/4/1 23/4/1
f 28/4/1 24/4/1 27/4/1
f 29/4/1 26/4/1 25/4/1
f 30/4/1 26/4/1 29/4/1
f 31/1/2 32/1/2 35/1/2
f 33/1/2 34/1/2 35/1/2
f 32/1/2 33/1/2 35/1/2
f 35/1/2 34/1/2 36/1/2
f 37/4/2 38/4/2 42/4/2
f 38/3/2 39/3/2 43/3/2
f 42/4/2 38/4/2 43/4/2
f 39/4/2 40/4/2 44/4/2
f 43/3/2 39/3/2 44/3/2
f 44/4/2 40/4/2 45/4/2
f 41/4/2 42/4/2 47/4/2
f 42/3/2 43/3/2 48/3/2
f 47/4/2 42/4/2 48/4/2
f 43/3/2 44/3/2 48/3/2
f 44/3/2 45/3/2 48/3/2
f 48/3/2 45/3/2 49/3/2
f 49/3/2 45/3/2 50/3/2
f 45/4/2 46/4/2 51/4/2
f 50/3/2 45/3/2 51/3/2
f 51/4/2 46/4/2 52/4/2
f 47/3/2 48/3/2 53/3/2
f 48/3/2 49/3/2 53/3/2
f 53/3/2 49/3/2 54/3/2
f 54/3/2 49/3/2 55/3/2
f 51/3/2 52/3/2 56/3/2
f 50/3/2 51/3/2 56/3/2
f 56/3/2 52/3/2 57/3/2
f 57/3/2 52/3/2 58/3/2
f 53/4/2 54/4/2 59/4/2
f 54/3/2 55/3/2 60/3/2
f 59/4/2 54/4/2 60/4/2
f 55/3/2 56/3/2 60/3/2
f 56/3/2 57/3/2 60/3/2
f 60/3/2 57/3/2 61/3/2
f 61/3/2 57/3/2 62/3/2
f 57/4/2 58/4/2 63/4/2
f 62/3/2 57/3/2 63/3/2
f 63/4/2 58/4/2 64/4/2
f 60/4/2 61/4/2 65/4/2
f 61/3/2 62/3/2 66/3/2
f 65/4/2 61/4/2 66/4/2
f 62/4/2 63/4/2 67/4/2
f 66/3/2 62/3/2 67/3/2
f 67/4/2 63/4/2 68/4/2
f 69/4/2 70/4/2 71/4/2
f 71/4/2 70/4/2 72/4/2
f 77/4/3 74/4/3 73/4/3
f 78/3/3 75/3/3 74/3/3
f 78/4/3 74/4/3 77/4/3
f 79/4/3 76/4/3 75/4/3
f 79/3/3 75/3/3 78/3/3
f 80/4/3 76/4/3 79/4/3
f 87/1/3 82/1/3 81/1/3
f 88/2/3 83/2/3 82/2/3
f 88/1/3 82/1/3 87/1/3
f 89/1/3 84/1/3 83/1/3
f 89/2/3 83/2/3 88/2/3
f 90/1/3 84/1/3 89/1/3
f 91/1/3 84/1/3 90/1/3
f 92/4/3 86/4/3 85/4/3
f 93/4/3 86/4/3 92/4/3
f 94/4/3 90/4/3 89/4/3
f 95/4/3 90/4/3 94/4/3
f 98/4/3 97/4/3 96/4/3
f 99/4/3 97/4/3 98/4/3
f 100/4/4 101/4/4 102/4/4
f 102/4/4 101/4/4 103/4/4
f 104/1/4 105/1/4 110/1/4
f 105/2/4 106/2/4 111/2/4
f 110/1/4 105/1/4 111/1/4
f 106/1/4 107/1/4 112/1/4
f 111/2/4 106/2/4 112/2/4
f 112/1/4 107/1/4 113/1/4
f 113/1/4 107/1/4 114/1/4
f 108/4/4 109/4/4 115/4/4
f 115/4/4 109/4/4 116/4/4
f 112/4/4 113/4/4 117/4/4
f 117/4/4 113/4/4 118/4/4
f 119/4/4 120/4/4 123/4/4
f 120/3/4 121/3/4 124/3/4
f 123/4/4 120/4/4 124/4/4
f 121/4/4 122/4/4 125/4/4
f 124/3/4 121/3/4 125/3/4
f 125/4/4 122/4/4 126/4/4
f 129/4/5 128/4/5 127/4/5
f 130/4/5 128/4/5 129/4/5
f 131/3/5 130/3/5 129/3/5
f 132/3/5 130/3/5 131/3/5
f 133/4/5 132/4/5 131/4/5
f 134/4/5 132/4/5 133/4/5
f 137/4/5 136/4/5 135/4/5
f 138/4/5 136/4/5 137/4/5
f 141/4/5 140/4/5 139/4/5
f 142/4/5 140/4/5 141/4/5
f 147/4/5 146/4/5 145/4/5
f 148/4/5 146/4/5 147/4/5
f 149/1/5 144/1/5 143/1/5
f 150/1/5 144/1/5 149/1/5
f 151/4/6 152/4/6 153/4/6
f 153/4/6 152/4/6 154/4/6
f 155/4/6 156/4/6 157/4/6
f 157/4/6 156/4/6 158/4/6
f 159/4/6 160/4/6 161/4/6
f 161/4/6 160/4/6 162/4/6
f 163/4/6 164/4/6 165/4/6
f 165/4/6 164/4/6 166/4/6
f 165/3/6 166/3/6 167/3/6
f 167/3/6 166/3/6 168/3/6
f 167/4/6 168/4/6 169/4/6
f 169/4/6 168/4/6 170/4/6
f 171/1/6 172/1/6 173/1/6
f 173/1/6 172/1/6 174/1/6
