# MagicaVoxel @ Ephtracy

# group
o 

# material
mtllib Franky_Bo.mtl
usemtl palette

# normals
vn -1 0 0
vn 1 0 0
vn 0 0 1
vn 0 0 -1
vn 0 -1 0
vn 0 1 0

# texcoords
vt 0.0332031 0.5
vt 0.0449219 0.5
vt 0.0917969 0.5
vt 0.447266 0.5
vt 0.724609 0.5
vt 0.849609 0.5
vt 0.900391 0.5
vt 0.958984 0.5
vt 0.970703 0.5
vt 0.994141 0.5

# verts
v -0.3 0.1 0.1
v -0.3 0.1 -0.2
v -0.3 0.2 0.1
v -0.3 0.2 -0.2
v -0.3 0.3 0.1
v -0.3 0.3 -0.2
v -0.3 0.4 0.1
v -0.3 0.4 -2.98023e-008
v -0.3 0.4 -0.1
v -0.3 0.4 -0.2
v -0.3 0.5 -2.98023e-008
v -0.3 0.5 -0.1
v -0.3 0.6 0.1
v -0.3 0.6 -2.98023e-008
v -0.3 0.6 -0.1
v -0.3 0.7 0.1
v -0.3 0.7 -2.98023e-008
v -0.3 0.9 0.2
v -0.3 0.9 0.1
v -0.3 0.9 -2.98023e-008
v -0.3 0.9 -0.1
v -0.3 0.9 -0.2
v -0.3 0.9 -0.3
v -0.3 1 0.1
v -0.3 1 -0.1
v -0.3 1 -0.2
v -0.3 1 -0.3
v -0.3 1.1 0.1
v -0.3 1.1 -2.98023e-008
v -0.3 1.1 -0.1
v -0.3 1.1 -0.2
v -0.3 1.2 0.2
v -0.3 1.2 0.1
v -0.3 1.3 0.2
v -0.3 1.3 0.1
v -0.3 1.3 -2.98023e-008
v -0.3 1.4 0.2
v -0.3 1.4 0.1
v -0.3 1.5 0.2
v -0.3 1.5 -0.3
v -2.98023e-008 -0.1 0.1
v -2.98023e-008 -0.1 -0.2
v -2.98023e-008 0.1 0.1
v -2.98023e-008 0.1 -0.2
v 0.1 -0.1 0.1
v 0.1 -0.1 -0.2
v 0.1 0.1 0.1
v 0.1 0.1 -0.2
v 0.4 0.1 0.1
v 0.4 0.1 -0.2
v 0.4 0.2 0.1
v 0.4 0.2 -0.2
v 0.4 0.3 0.1
v 0.4 0.3 -0.2
v 0.4 0.4 -0.1
v 0.4 0.4 -0.2
v 0.4 0.5 0.1
v 0.4 0.5 -2.98023e-008
v 0.4 0.5 -0.1
v 0.4 0.5 -0.2
v 0.4 0.6 0.1
v 0.4 0.6 -2.98023e-008
v 0.4 0.6 -0.1
v 0.4 0.9 0.2
v 0.4 0.9 0.1
v 0.4 0.9 -2.98023e-008
v 0.4 0.9 -0.1
v 0.4 0.9 -0.2
v 0.4 0.9 -0.3
v 0.4 1 0.1
v 0.4 1 -0.1
v 0.4 1 -0.2
v 0.4 1 -0.3
v 0.4 1.1 0.1
v 0.4 1.1 -2.98023e-008
v 0.4 1.1 -0.1
v 0.4 1.1 -0.2
v 0.4 1.2 0.2
v 0.4 1.2 0.1
v 0.4 1.3 0.2
v 0.4 1.3 0.1
v 0.4 1.3 -2.98023e-008
v 0.4 1.4 0.2
v 0.4 1.4 0.1
v 0.4 1.5 0.2
v 0.4 1.5 -0.3
v -0.3 0.9 0.2
v -0.3 1.2 0.2
v -0.3 1.3 0.2
v -0.3 1.4 0.2
v -0.3 1.5 0.2
v -0.2 1.1 0.2
v -0.2 1.2 0.2
v -2.98023e-008 0.9 0.2
v -2.98023e-008 1 0.2
v -2.98023e-008 1.1 0.2
v -2.98023e-008 1.2 0.2
v 0.1 1.1 0.2
v 0.1 1.2 0.2
v 0.2 0.9 0.2
v 0.2 1 0.2
v 0.3 1.1 0.2
v 0.3 1.2 0.2
v 0.4 0.9 0.2
v 0.4 1.2 0.2
v 0.4 1.3 0.2
v 0.4 1.4 0.2
v 0.4 1.5 0.2
v -0.3 0.1 0.1
v -0.3 0.2 0.1
v -0.3 0.3 0.1
v -0.3 0.4 0.1
v -0.3 0.6 0.1
v -0.3 0.7 0.1
v -0.3 0.9 0.1
v -0.2 0.3 0.1
v -0.2 0.4 0.1
v -0.2 0.5 0.1
v -0.2 0.6 0.1
v -0.2 0.7 0.1
v -0.2 0.8 0.1
v -0.1 0.4 0.1
v -0.1 0.5 0.1
v -0.1 0.6 0.1
v -0.1 0.7 0.1
v -0.1 0.8 0.1
v -0.1 0.9 0.1
v -2.98023e-008 -0.1 0.1
v -2.98023e-008 0.1 0.1
v -2.98023e-008 0.5 0.1
v -2.98023e-008 0.6 0.1
v -2.98023e-008 0.7 0.1
v -2.98023e-008 0.8 0.1
v -2.98023e-008 0.9 0.1
v 0.1 -0.1 0.1
v 0.1 0.1 0.1
v 0.1 0.5 0.1
v 0.1 0.6 0.1
v 0.1 0.8 0.1
v 0.2 0.4 0.1
v 0.2 0.5 0.1
v 0.2 0.6 0.1
v 0.2 0.7 0.1
v 0.2 0.8 0.1
v 0.2 0.9 0.1
v 0.3 0.3 0.1
v 0.3 0.4 0.1
v 0.3 0.5 0.1
v 0.3 0.6 0.1
v 0.3 0.7 0.1
v 0.4 0.1 0.1
v 0.4 0.2 0.1
v 0.4 0.3 0.1
v 0.4 0.5 0.1
v 0.4 0.6 0.1
v 0.4 0.9 0.1
v -0.3 0.1 -0.2
v -0.3 0.2 -0.2
v -0.3 0.3 -0.2
v -0.3 0.4 -0.2
v -0.3 0.9 -0.2
v -0.2 0.3 -0.2
v -0.2 0.4 -0.2
v -0.2 0.6 -0.2
v -0.2 0.7 -0.2
v -0.1 0.7 -0.2
v -0.1 0.8 -0.2
v -2.98023e-008 -0.1 -0.2
v -2.98023e-008 0.1 -0.2
v -2.98023e-008 0.7 -0.2
v -2.98023e-008 0.8 -0.2
v 0.1 -0.1 -0.2
v 0.1 0.1 -0.2
v 0.1 0.4 -0.2
v 0.1 0.5 -0.2
v 0.1 0.6 -0.2
v 0.1 0.7 -0.2
v 0.2 0.3 -0.2
v 0.2 0.4 -0.2
v 0.2 0.5 -0.2
v 0.2 0.6 -0.2
v 0.3 0.3 -0.2
v 0.3 0.4 -0.2
v 0.3 0.5 -0.2
v 0.3 0.6 -0.2
v 0.4 0.1 -0.2
v 0.4 0.2 -0.2
v 0.4 0.3 -0.2
v 0.4 0.4 -0.2
v 0.4 0.5 -0.2
v 0.4 0.9 -0.2
v -0.3 0.9 -0.3
v -0.3 1 -0.3
v -0.3 1.5 -0.3
v 0.4 0.9 -0.3
v 0.4 1 -0.3
v 0.4 1.5 -0.3
v -2.98023e-008 -0.1 0.1
v 0.1 -0.1 0.1
v -2.98023e-008 -0.1 -0.2
v 0.1 -0.1 -0.2
v -0.3 0.1 0.1
v -2.98023e-008 0.1 0.1
v 0.1 0.1 0.1
v 0.4 0.1 0.1
v -0.3 0.1 -0.2
v -2.98023e-008 0.1 -0.2
v 0.1 0.1 -0.2
v 0.4 0.1 -0.2
v -0.3 0.9 0.2
v -2.98023e-008 0.9 0.2
v 0.2 0.9 0.2
v 0.4 0.9 0.2
v -0.3 0.9 0.1
v -0.1 0.9 0.1
v -2.98023e-008 0.9 0.1
v 0.2 0.9 0.1
v 0.4 0.9 0.1
v -0.3 0.9 -0.2
v 0.4 0.9 -0.2
v -0.3 0.9 -0.3
v 0.4 0.9 -0.3
v -0.3 1.5 0.2
v 0.4 1.5 0.2
v -0.3 1.5 -0.3
v 0.4 1.5 -0.3

# faces
f 3/6/1 2/6/1 1/6/1
f 4/6/1 2/6/1 3/6/1
f 5/1/1 4/1/1 3/1/1
f 6/1/1 4/1/1 5/1/1
f 7/5/1 6/5/1 5/5/1
f 8/5/1 6/5/1 7/5/1
f 9/5/1 6/5/1 8/5/1
f 10/5/1 6/5/1 9/5/1
f 11/3/1 8/3/1 7/3/1
f 11/5/1 9/5/1 8/5/1
f 12/3/1 10/3/1 9/3/1
f 12/5/1 9/5/1 11/5/1
f 13/3/1 11/3/1 7/3/1
f 13/3/1 12/3/1 11/3/1
f 14/3/1 12/3/1 13/3/1
f 15/3/1 10/3/1 12/3/1
f 15/3/1 12/3/1 14/3/1
f 16/5/1 14/5/1 13/5/1
f 17/1/1 15/1/1 14/1/1
f 17/5/1 14/5/1 16/5/1
f 19/3/1 17/3/1 16/3/1
f 20/1/1 15/1/1 17/1/1
f 20/3/1 17/3/1 19/3/1
f 21/3/1 10/3/1 15/3/1
f 21/1/1 15/1/1 20/1/1
f 22/3/1 10/3/1 21/3/1
f 24/1/1 22/1/1 21/1/1
f 24/1/1 23/1/1 22/1/1
f 24/1/1 19/1/1 18/1/1
f 24/1/1 21/1/1 20/1/1
f 24/1/1 20/1/1 19/1/1
f 25/1/1 23/1/1 24/1/1
f 26/1/1 23/1/1 25/1/1
f 27/1/1 23/1/1 26/1/1
f 28/1/1 24/1/1 18/1/1
f 28/4/1 25/4/1 24/4/1
f 29/4/1 25/4/1 28/4/1
f 30/1/1 26/1/1 25/1/1
f 30/4/1 25/4/1 29/4/1
f 31/4/1 27/4/1 26/4/1
f 31/1/1 26/1/1 30/1/1
f 32/1/1 29/1/1 28/1/1
f 32/1/1 28/1/1 18/1/1
f 33/1/1 29/1/1 32/1/1
f 34/10/1 33/10/1 32/10/1
f 35/1/1 29/1/1 33/1/1
f 35/10/1 33/10/1 34/10/1
f 36/4/1 30/4/1 29/4/1
f 36/1/1 29/1/1 35/1/1
f 36/4/1 31/4/1 30/4/1
f 37/1/1 35/1/1 34/1/1
f 38/4/1 36/4/1 35/4/1
f 38/1/1 35/1/1 37/1/1
f 39/4/1 38/4/1 37/4/1
f 40/4/1 31/4/1 36/4/1
f 40/4/1 38/4/1 39/4/1
f 40/4/1 27/4/1 31/4/1
f 40/4/1 36/4/1 38/4/1
f 43/6/1 42/6/1 41/6/1
f 44/6/1 42/6/1 43/6/1
f 45/6/2 46/6/2 47/6/2
f 47/6/2 46/6/2 48/6/2
f 49/6/2 50/6/2 51/6/2
f 51/6/2 50/6/2 52/6/2
f 51/1/2 52/1/2 53/1/2
f 53/1/2 52/1/2 54/1/2
f 53/3/2 54/3/2 55/3/2
f 55/3/2 54/3/2 56/3/2
f 53/3/2 55/3/2 57/3/2
f 57/3/2 55/3/2 58/3/2
f 55/5/2 56/5/2 59/5/2
f 58/3/2 55/3/2 59/3/2
f 59/5/2 56/5/2 60/5/2
f 57/5/2 58/5/2 61/5/2
f 58/3/2 59/3/2 62/3/2
f 61/5/2 58/5/2 62/5/2
f 59/3/2 60/3/2 62/3/2
f 62/3/2 60/3/2 63/3/2
f 61/3/2 62/3/2 65/3/2
f 62/1/2 63/1/2 66/1/2
f 65/3/2 62/3/2 66/3/2
f 63/3/2 60/3/2 67/3/2
f 66/1/2 63/1/2 67/1/2
f 67/3/2 60/3/2 68/3/2
f 67/1/2 68/1/2 70/1/2
f 68/1/2 69/1/2 70/1/2
f 65/1/2 66/1/2 70/1/2
f 66/1/2 67/1/2 70/1/2
f 64/1/2 65/1/2 70/1/2
f 70/1/2 69/1/2 71/1/2
f 71/1/2 69/1/2 72/1/2
f 72/1/2 69/1/2 73/1/2
f 64/1/2 70/1/2 74/1/2
f 70/4/2 71/4/2 74/4/2
f 74/4/2 71/4/2 75/4/2
f 71/1/2 72/1/2 76/1/2
f 75/4/2 71/4/2 76/4/2
f 72/4/2 73/4/2 77/4/2
f 76/1/2 72/1/2 77/1/2
f 74/1/2 75/1/2 78/1/2
f 64/1/2 74/1/2 78/1/2
f 78/1/2 75/1/2 79/1/2
f 78/10/2 79/10/2 80/10/2
f 79/1/2 75/1/2 81/1/2
f 80/10/2 79/10/2 81/10/2
f 75/4/2 76/4/2 82/4/2
f 81/1/2 75/1/2 82/1/2
f 76/4/2 77/4/2 82/4/2
f 80/1/2 81/1/2 83/1/2
f 81/4/2 82/4/2 84/4/2
f 83/1/2 81/1/2 84/1/2
f 83/4/2 84/4/2 85/4/2
f 82/4/2 77/4/2 86/4/2
f 85/4/2 84/4/2 86/4/2
f 77/4/2 73/4/2 86/4/2
f 84/4/2 82/4/2 86/4/2
f 92/1/3 88/1/3 87/1/3
f 93/10/3 89/10/3 88/10/3
f 93/1/3 88/1/3 92/1/3
f 94/1/3 92/1/3 87/1/3
f 95/1/3 92/1/3 94/1/3
f 96/10/3 93/10/3 92/10/3
f 96/1/3 92/1/3 95/1/3
f 97/10/3 89/10/3 93/10/3
f 97/10/3 93/10/3 96/10/3
f 98/1/3 96/1/3 95/1/3
f 98/9/3 97/9/3 96/9/3
f 99/10/3 89/10/3 97/10/3
f 99/9/3 97/9/3 98/9/3
f 100/8/3 95/8/3 94/8/3
f 101/1/3 98/1/3 95/1/3
f 101/8/3 95/8/3 100/8/3
f 102/10/3 99/10/3 98/10/3
f 102/1/3 98/1/3 101/1/3
f 102/1/3 101/1/3 100/1/3
f 103/10/3 89/10/3 99/10/3
f 103/10/3 99/10/3 102/10/3
f 104/1/3 102/1/3 100/1/3
f 104/1/3 103/1/3 102/1/3
f 105/10/3 89/10/3 103/10/3
f 105/1/3 103/1/3 104/1/3
f 106/1/3 90/1/3 89/1/3
f 106/10/3 89/10/3 105/10/3
f 107/4/3 91/4/3 90/4/3
f 107/1/3 90/1/3 106/1/3
f 108/4/3 91/4/3 107/4/3
f 116/1/3 111/1/3 110/1/3
f 116/5/3 112/5/3 111/5/3
f 117/3/3 113/3/3 112/3/3
f 117/5/3 112/5/3 116/5/3
f 118/3/3 113/3/3 117/3/3
f 119/5/3 114/5/3 113/5/3
f 119/3/3 113/3/3 118/3/3
f 120/3/3 115/3/3 114/3/3
f 120/5/3 114/5/3 119/5/3
f 121/3/3 115/3/3 120/3/3
f 122/3/3 118/3/3 117/3/3
f 122/1/3 117/1/3 116/1/3
f 123/2/3 119/2/3 118/2/3
f 123/3/3 118/3/3 122/3/3
f 124/5/3 121/5/3 120/5/3
f 124/2/3 119/2/3 123/2/3
f 124/5/3 120/5/3 119/5/3
f 125/5/3 121/5/3 124/5/3
f 126/3/3 115/3/3 121/3/3
f 126/5/3 121/5/3 125/5/3
f 127/3/3 115/3/3 126/3/3
f 129/6/3 110/6/3 109/6/3
f 130/1/3 123/1/3 122/1/3
f 130/3/3 124/3/3 123/3/3
f 131/5/3 125/5/3 124/5/3
f 131/3/3 124/3/3 130/3/3
f 132/3/3 126/3/3 125/3/3
f 132/5/3 125/5/3 131/5/3
f 133/1/3 127/1/3 126/1/3
f 133/3/3 126/3/3 132/3/3
f 134/1/3 127/1/3 133/1/3
f 135/6/3 129/6/3 128/6/3
f 136/6/3 110/6/3 129/6/3
f 136/6/3 129/6/3 135/6/3
f 137/1/3 130/1/3 122/1/3
f 137/1/3 131/1/3 130/1/3
f 137/1/3 132/1/3 131/1/3
f 137/1/3 134/1/3 133/1/3
f 137/1/3 133/1/3 132/1/3
f 138/1/3 134/1/3 137/1/3
f 139/1/3 134/1/3 138/1/3
f 140/1/3 122/1/3 116/1/3
f 140/1/3 137/1/3 122/1/3
f 141/5/3 138/5/3 137/5/3
f 141/1/3 137/1/3 140/1/3
f 142/3/3 139/3/3 138/3/3
f 142/5/3 138/5/3 141/5/3
f 143/3/3 139/3/3 142/3/3
f 144/1/3 134/1/3 139/1/3
f 144/3/3 139/3/3 143/3/3
f 145/1/3 134/1/3 144/1/3
f 146/1/3 116/1/3 110/1/3
f 146/1/3 140/1/3 116/1/3
f 147/2/3 141/2/3 140/2/3
f 147/1/3 140/1/3 146/1/3
f 148/5/3 143/5/3 142/5/3
f 148/2/3 141/2/3 147/2/3
f 148/5/3 142/5/3 141/5/3
f 149/5/3 143/5/3 148/5/3
f 150/3/3 145/3/3 144/3/3
f 150/5/3 143/5/3 149/5/3
f 150/3/3 144/3/3 143/3/3
f 151/6/3 110/6/3 136/6/3
f 152/1/3 146/1/3 110/1/3
f 152/6/3 110/6/3 151/6/3
f 153/3/3 147/3/3 146/3/3
f 153/1/3 146/1/3 152/1/3
f 153/3/3 148/3/3 147/3/3
f 154/5/3 149/5/3 148/5/3
f 154/3/3 148/3/3 153/3/3
f 155/3/3 150/3/3 149/3/3
f 155/5/3 149/5/3 154/5/3
f 156/3/3 145/3/3 150/3/3
f 156/3/3 150/3/3 155/3/3
f 158/1/4 159/1/4 162/1/4
f 159/5/4 160/5/4 162/5/4
f 160/3/4 161/3/4 163/3/4
f 162/5/4 160/5/4 163/5/4
f 163/3/4 161/3/4 164/3/4
f 164/3/4 161/3/4 165/3/4
f 164/5/4 165/5/4 166/5/4
f 165/3/4 161/3/4 166/3/4
f 166/3/4 161/3/4 167/3/4
f 157/6/4 158/6/4 169/6/4
f 164/5/4 166/5/4 170/5/4
f 166/5/4 167/5/4 170/5/4
f 167/3/4 161/3/4 171/3/4
f 170/5/4 167/5/4 171/5/4
f 168/6/4 169/6/4 172/6/4
f 169/6/4 158/6/4 173/6/4
f 172/6/4 169/6/4 173/6/4
f 162/3/4 163/3/4 174/3/4
f 163/3/4 164/3/4 174/3/4
f 174/3/4 164/3/4 175/3/4
f 164/5/4 170/5/4 176/5/4
f 175/3/4 164/3/4 176/3/4
f 170/3/4 171/3/4 177/3/4
f 176/5/4 170/5/4 177/5/4
f 158/1/4 162/1/4 178/1/4
f 162/3/4 174/3/4 178/3/4
f 174/5/4 175/5/4 179/5/4
f 178/3/4 174/3/4 179/3/4
f 176/3/4 177/3/4 180/3/4
f 179/5/4 175/5/4 180/5/4
f 175/3/4 176/3/4 180/3/4
f 180/3/4 177/3/4 181/3/4
f 158/1/4 178/1/4 182/1/4
f 178/2/4 179/2/4 182/2/4
f 180/5/4 181/5/4 183/5/4
f 182/2/4 179/2/4 183/2/4
f 179/5/4 180/5/4 183/5/4
f 183/5/4 181/5/4 184/5/4
f 181/3/4 177/3/4 185/3/4
f 184/5/4 181/5/4 185/5/4
f 173/6/4 158/6/4 186/6/4
f 158/1/4 182/1/4 187/1/4
f 186/6/4 158/6/4 187/6/4
f 182/3/4 183/3/4 188/3/4
f 187/1/4 182/1/4 188/1/4
f 183/5/4 184/5/4 189/5/4
f 188/3/4 183/3/4 189/3/4
f 184/3/4 185/3/4 190/3/4
f 189/5/4 184/5/4 190/5/4
f 177/3/4 171/3/4 191/3/4
f 190/3/4 185/3/4 191/3/4
f 185/3/4 177/3/4 191/3/4
f 171/3/4 161/3/4 191/3/4
f 192/1/4 193/1/4 195/1/4
f 193/4/4 194/4/4 196/4/4
f 195/1/4 193/1/4 196/1/4
f 196/4/4 194/4/4 197/4/4
f 200/6/5 199/6/5 198/6/5
f 201/6/5 199/6/5 200/6/5
f 206/6/5 203/6/5 202/6/5
f 207/6/5 203/6/5 206/6/5
f 208/6/5 205/6/5 204/6/5
f 209/6/5 205/6/5 208/6/5
f 214/1/5 211/1/5 210/1/5
f 215/1/5 211/1/5 214/1/5
f 216/8/5 212/8/5 211/8/5
f 216/1/5 211/1/5 215/1/5
f 217/1/5 213/1/5 212/1/5
f 217/8/5 212/8/5 216/8/5
f 218/1/5 213/1/5 217/1/5
f 221/1/5 220/1/5 219/1/5
f 222/1/5 220/1/5 221/1/5
f 223/4/6 224/4/6 225/4/6
f 225/4/6 224/4/6 226/4/6
