# MagicaVoxel @ Ephtracy

# group
o 

# material
mtllib Franky_BL.mtl
usemtl palette

# normals
vn -1 0 0
vn 1 0 0
vn 0 0 1
vn 0 0 -1
vn 0 -1 0
vn 0 1 0

# texcoords
vt 0.0332031 0.5
vt 0.0957031 0.5
vt 0.185547 0.5
vt 0.447266 0.5
vt 0.845703 0.5
vt 0.974609 0.5
vt 0.982422 0.5

# verts
v -0.3 -0.1 0.1
v -0.3 -0.1 -2.98023e-008
v -0.3 -0.1 -0.1
v -0.3 -0.1 -0.2
v -0.3 0 0.1
v -0.3 0 -2.98023e-008
v -0.3 0 -0.1
v -0.3 0 -0.2
v -0.3 0.1 0.1
v -0.3 0.1 -2.98023e-008
v -0.3 0.1 -0.1
v -0.3 0.1 -0.2
v -0.3 0.2 0.1
v -0.3 0.2 -2.98023e-008
v -0.3 0.2 -0.1
v -0.3 0.2 -0.2
v -0.2 -0.7 0.2
v -0.2 -0.7 -0.3
v -0.2 -0.5 0.2
v -0.2 -0.5 -0.3
v -0.2 -0.2 0.2
v -0.2 -0.2 -0.3
v -0.2 -0.1 0.2
v -0.2 -0.1 0.1
v -0.2 -0.1 -2.98023e-008
v -0.2 -0.1 -0.1
v -0.2 -0.1 -0.2
v -0.2 -0.1 -0.3
v -0.2 0 0.1
v -0.2 0 -0.2
v -0.2 0.1 0.1
v -0.2 0.1 -0.2
v -0.2 0.2 0.1
v -0.2 0.2 -2.98023e-008
v -0.2 0.2 -0.1
v -0.2 0.2 -0.2
v -0.2 0.3 0.2
v -0.2 0.3 -0.3
v -0.1 -0.9 0.1
v -0.1 -0.9 -0.2
v -0.1 -0.8 0.1
v -0.1 -0.8 -0.2
v -0.1 -0.7 0.1
v -0.1 -0.7 -0.2
v -0.1 -0.5 0.1
v -0.1 -0.5 -0.2
v -0.1 -0.4 0.1
v -0.1 -0.4 -0.2
v -0.1 -0.3 0.1
v -0.1 -0.3 -2.98023e-008
v -0.1 -0.3 -0.1
v -0.1 -0.3 -0.2
v -0.1 -0.2 0.1
v -0.1 -0.2 -2.98023e-008
v -0.1 -0.2 -0.1
v -0.1 -0.2 -0.2
v 0.1 -0.5 -2.98023e-008
v 0.1 -0.5 -0.1
v 0.1 -0.4 -2.98023e-008
v 0.1 -0.4 -0.1
v 0.1 -0.3 -2.98023e-008
v 0.1 -0.3 -0.1
v 0.1 -0.2 -2.98023e-008
v 0.1 -0.2 -0.1
v 2.98023e-008 -0.5 -2.98023e-008
v 2.98023e-008 -0.5 -0.1
v 2.98023e-008 -0.4 -2.98023e-008
v 2.98023e-008 -0.4 -0.1
v 2.98023e-008 -0.3 -2.98023e-008
v 2.98023e-008 -0.3 -0.1
v 2.98023e-008 -0.2 -2.98023e-008
v 2.98023e-008 -0.2 -0.1
v 0.2 -0.9 0.1
v 0.2 -0.9 -0.2
v 0.2 -0.8 0.1
v 0.2 -0.8 -0.2
v 0.2 -0.7 0.1
v 0.2 -0.7 -0.2
v 0.2 -0.5 0.1
v 0.2 -0.5 -0.2
v 0.2 -0.4 0.1
v 0.2 -0.4 -0.2
v 0.2 -0.3 0.1
v 0.2 -0.3 -2.98023e-008
v 0.2 -0.3 -0.1
v 0.2 -0.3 -0.2
v 0.2 -0.2 0.1
v 0.2 -0.2 -2.98023e-008
v 0.2 -0.2 -0.1
v 0.2 -0.2 -0.2
v 0.3 -0.7 0.2
v 0.3 -0.7 -0.3
v 0.3 -0.5 0.2
v 0.3 -0.5 -0.3
v 0.3 -0.2 0.2
v 0.3 -0.2 -0.3
v 0.3 0.2 0.2
v 0.3 0.2 -0.3
v 0.3 0.3 0.2
v 0.3 0.3 -0.3
v -0.2 -0.7 0.2
v -0.2 -0.5 0.2
v -0.2 -0.2 0.2
v -0.2 -0.1 0.2
v -0.2 0.3 0.2
v -0.1 -0.2 0.2
v -0.1 -0.1 0.2
v -0.1 0 0.2
v 2.98023e-008 -0.1 0.2
v 2.98023e-008 0 0.2
v 2.98023e-008 0.1 0.2
v 0.1 0 0.2
v 0.1 0.1 0.2
v 0.1 0.2 0.2
v 0.2 0.1 0.2
v 0.2 0.2 0.2
v 0.2 0.3 0.2
v 0.3 -0.7 0.2
v 0.3 -0.5 0.2
v 0.3 -0.2 0.2
v 0.3 0.2 0.2
v 0.3 0.3 0.2
v -0.3 -0.1 0.1
v -0.3 0 0.1
v -0.3 0.1 0.1
v -0.3 0.2 0.1
v -0.2 -0.1 0.1
v -0.2 0 0.1
v -0.2 0.1 0.1
v -0.2 0.2 0.1
v -0.1 -0.9 0.1
v -0.1 -0.8 0.1
v -0.1 -0.7 0.1
v -0.1 -0.5 0.1
v -0.1 -0.4 0.1
v -0.1 -0.3 0.1
v -0.1 -0.2 0.1
v 2.98023e-008 -0.3 0.1
v 2.98023e-008 -0.2 0.1
v 0.1 -0.3 0.1
v 0.1 -0.2 0.1
v 0.2 -0.9 0.1
v 0.2 -0.8 0.1
v 0.2 -0.7 0.1
v 0.2 -0.5 0.1
v 0.2 -0.4 0.1
v 0.2 -0.3 0.1
v 0.2 -0.2 0.1
v 2.98023e-008 -0.5 -0.1
v 2.98023e-008 -0.4 -0.1
v 2.98023e-008 -0.3 -0.1
v 2.98023e-008 -0.2 -0.1
v 0.1 -0.5 -0.1
v 0.1 -0.4 -0.1
v 0.1 -0.3 -0.1
v 0.1 -0.2 -0.1
v 2.98023e-008 -0.5 -2.98023e-008
v 2.98023e-008 -0.4 -2.98023e-008
v 2.98023e-008 -0.3 -2.98023e-008
v 2.98023e-008 -0.2 -2.98023e-008
v 0.1 -0.5 -2.98023e-008
v 0.1 -0.4 -2.98023e-008
v 0.1 -0.3 -2.98023e-008
v 0.1 -0.2 -2.98023e-008
v -0.3 -0.1 -0.2
v -0.3 0 -0.2
v -0.3 0.1 -0.2
v -0.3 0.2 -0.2
v -0.2 -0.1 -0.2
v -0.2 0 -0.2
v -0.2 0.1 -0.2
v -0.2 0.2 -0.2
v -0.1 -0.9 -0.2
v -0.1 -0.8 -0.2
v -0.1 -0.7 -0.2
v -0.1 -0.5 -0.2
v -0.1 -0.4 -0.2
v -0.1 -0.3 -0.2
v -0.1 -0.2 -0.2
v 2.98023e-008 -0.3 -0.2
v 2.98023e-008 -0.2 -0.2
v 0.1 -0.3 -0.2
v 0.1 -0.2 -0.2
v 0.2 -0.9 -0.2
v 0.2 -0.8 -0.2
v 0.2 -0.7 -0.2
v 0.2 -0.5 -0.2
v 0.2 -0.4 -0.2
v 0.2 -0.3 -0.2
v 0.2 -0.2 -0.2
v -0.2 -0.7 -0.3
v -0.2 -0.5 -0.3
v -0.2 -0.2 -0.3
v -0.2 -0.1 -0.3
v -0.2 0.3 -0.3
v -0.1 -0.2 -0.3
v -0.1 -0.1 -0.3
v -0.1 0 -0.3
v 2.98023e-008 -0.1 -0.3
v 2.98023e-008 0 -0.3
v 2.98023e-008 0.1 -0.3
v 0.1 0 -0.3
v 0.1 0.1 -0.3
v 0.1 0.2 -0.3
v 0.2 0.1 -0.3
v 0.2 0.2 -0.3
v 0.2 0.3 -0.3
v 0.3 -0.7 -0.3
v 0.3 -0.5 -0.3
v 0.3 -0.2 -0.3
v 0.3 0.2 -0.3
v 0.3 0.3 -0.3
v -0.1 -0.9 0.1
v 0.2 -0.9 0.1
v -0.1 -0.9 -0.2
v 0.2 -0.9 -0.2
v -0.2 -0.7 0.2
v 0.3 -0.7 0.2
v -0.1 -0.7 0.1
v 0.2 -0.7 0.1
v -0.1 -0.7 -0.2
v 0.2 -0.7 -0.2
v -0.2 -0.7 -0.3
v 0.3 -0.7 -0.3
v -0.2 -0.2 0.2
v -0.1 -0.2 0.2
v 0.3 -0.2 0.2
v -0.1 -0.2 0.1
v 2.98023e-008 -0.2 0.1
v 0.1 -0.2 0.1
v 0.2 -0.2 0.1
v -0.1 -0.2 -2.98023e-008
v 2.98023e-008 -0.2 -2.98023e-008
v 0.1 -0.2 -2.98023e-008
v 0.2 -0.2 -2.98023e-008
v -0.1 -0.2 -0.1
v 2.98023e-008 -0.2 -0.1
v 0.1 -0.2 -0.1
v 0.2 -0.2 -0.1
v -0.1 -0.2 -0.2
v 2.98023e-008 -0.2 -0.2
v 0.1 -0.2 -0.2
v 0.2 -0.2 -0.2
v -0.2 -0.2 -0.3
v -0.1 -0.2 -0.3
v 0.3 -0.2 -0.3
v -0.3 -0.1 0.1
v -0.2 -0.1 0.1
v -0.3 -0.1 -2.98023e-008
v -0.2 -0.1 -2.98023e-008
v -0.3 -0.1 -0.1
v -0.2 -0.1 -0.1
v -0.3 -0.1 -0.2
v -0.2 -0.1 -0.2
v -0.2 -0.5 0.2
v 0.3 -0.5 0.2
v -0.1 -0.5 0.1
v 0.2 -0.5 0.1
v 2.98023e-008 -0.5 -2.98023e-008
v 0.1 -0.5 -2.98023e-008
v 2.98023e-008 -0.5 -0.1
v 0.1 -0.5 -0.1
v -0.1 -0.5 -0.2
v 0.2 -0.5 -0.2
v -0.2 -0.5 -0.3
v 0.3 -0.5 -0.3
v -0.3 0.2 0.1
v -0.2 0.2 0.1
v -0.3 0.2 -2.98023e-008
v -0.2 0.2 -2.98023e-008
v -0.3 0.2 -0.1
v -0.2 0.2 -0.1
v -0.3 0.2 -0.2
v -0.2 0.2 -0.2
v -0.2 0.3 0.2
v 0.2 0.3 0.2
v 0.3 0.3 0.2
v -0.2 0.3 -0.3
v 0.2 0.3 -0.3
v 0.3 0.3 -0.3

# faces
f 5/6/1 2/6/1 1/6/1
f 6/7/1 3/7/1 2/7/1
f 6/6/1 2/6/1 5/6/1
f 7/6/1 4/6/1 3/6/1
f 7/7/1 3/7/1 6/7/1
f 8/6/1 4/6/1 7/6/1
f 9/7/1 6/7/1 5/7/1
f 10/6/1 7/6/1 6/6/1
f 10/7/1 6/7/1 9/7/1
f 11/7/1 8/7/1 7/7/1
f 11/6/1 7/6/1 10/6/1
f 12/7/1 8/7/1 11/7/1
f 13/6/1 10/6/1 9/6/1
f 14/7/1 11/7/1 10/7/1
f 14/6/1 10/6/1 13/6/1
f 15/6/1 12/6/1 11/6/1
f 15/7/1 11/7/1 14/7/1
f 16/6/1 12/6/1 15/6/1
f 19/4/1 18/4/1 17/4/1
f 20/4/1 18/4/1 19/4/1
f 23/3/1 22/3/1 21/3/1
f 24/3/1 22/3/1 23/3/1
f 25/3/1 22/3/1 24/3/1
f 26/3/1 22/3/1 25/3/1
f 27/3/1 22/3/1 26/3/1
f 28/3/1 22/3/1 27/3/1
f 29/5/1 24/5/1 23/5/1
f 30/5/1 28/5/1 27/5/1
f 31/5/1 29/5/1 23/5/1
f 32/5/1 28/5/1 30/5/1
f 33/5/1 31/5/1 23/5/1
f 36/5/1 28/5/1 32/5/1
f 37/5/1 35/5/1 34/5/1
f 37/5/1 36/5/1 35/5/1
f 37/5/1 33/5/1 23/5/1
f 37/5/1 34/5/1 33/5/1
f 38/5/1 28/5/1 36/5/1
f 38/5/1 36/5/1 37/5/1
f 41/2/1 40/2/1 39/2/1
f 42/2/1 40/2/1 41/2/1
f 43/4/1 42/4/1 41/4/1
f 44/4/1 42/4/1 43/4/1
f 47/4/1 46/4/1 45/4/1
f 48/4/1 46/4/1 47/4/1
f 49/1/1 48/1/1 47/1/1
f 50/1/1 48/1/1 49/1/1
f 51/1/1 48/1/1 50/1/1
f 52/1/1 48/1/1 51/1/1
f 53/6/1 50/6/1 49/6/1
f 54/7/1 51/7/1 50/7/1
f 54/6/1 50/6/1 53/6/1
f 55/6/1 52/6/1 51/6/1
f 55/7/1 51/7/1 54/7/1
f 56/6/1 52/6/1 55/6/1
f 59/4/1 58/4/1 57/4/1
f 60/4/1 58/4/1 59/4/1
f 61/1/1 60/1/1 59/1/1
f 62/1/1 60/1/1 61/1/1
f 63/7/1 62/7/1 61/7/1
f 64/7/1 62/7/1 63/7/1
f 65/4/2 66/4/2 67/4/2
f 67/4/2 66/4/2 68/4/2
f 67/1/2 68/1/2 69/1/2
f 69/1/2 68/1/2 70/1/2
f 69/7/2 70/7/2 71/7/2
f 71/7/2 70/7/2 72/7/2
f 73/2/2 74/2/2 75/2/2
f 75/2/2 74/2/2 76/2/2
f 75/4/2 76/4/2 77/4/2
f 77/4/2 76/4/2 78/4/2
f 79/4/2 80/4/2 81/4/2
f 81/4/2 80/4/2 82/4/2
f 81/1/2 82/1/2 83/1/2
f 83/1/2 82/1/2 84/1/2
f 84/1/2 82/1/2 85/1/2
f 85/1/2 82/1/2 86/1/2
f 83/6/2 84/6/2 87/6/2
f 84/7/2 85/7/2 88/7/2
f 87/6/2 84/6/2 88/6/2
f 85/6/2 86/6/2 89/6/2
f 88/7/2 85/7/2 89/7/2
f 89/6/2 86/6/2 90/6/2
f 91/4/2 92/4/2 93/4/2
f 93/4/2 92/4/2 94/4/2
f 95/5/2 96/5/2 97/5/2
f 97/5/2 96/5/2 98/5/2
f 97/3/2 98/3/2 99/3/2
f 99/3/2 98/3/2 100/3/2
f 106/3/3 104/3/3 103/3/3
f 107/5/3 105/5/3 104/5/3
f 107/3/3 104/3/3 106/3/3
f 108/5/3 105/5/3 107/5/3
f 109/5/3 107/5/3 106/5/3
f 109/3/3 108/3/3 107/3/3
f 110/5/3 105/5/3 108/5/3
f 110/3/3 108/3/3 109/3/3
f 111/5/3 105/5/3 110/5/3
f 112/5/3 110/5/3 109/5/3
f 112/3/3 111/3/3 110/3/3
f 113/5/3 105/5/3 111/5/3
f 113/3/3 111/3/3 112/3/3
f 114/5/3 105/5/3 113/5/3
f 115/5/3 113/5/3 112/5/3
f 115/3/3 114/3/3 113/3/3
f 116/5/3 105/5/3 114/5/3
f 116/3/3 114/3/3 115/3/3
f 117/5/3 105/5/3 116/5/3
f 118/4/3 102/4/3 101/4/3
f 119/4/3 102/4/3 118/4/3
f 120/5/3 109/5/3 106/5/3
f 120/5/3 112/5/3 109/5/3
f 120/5/3 115/5/3 112/5/3
f 120/5/3 116/5/3 115/5/3
f 121/3/3 117/3/3 116/3/3
f 121/5/3 116/5/3 120/5/3
f 122/3/3 117/3/3 121/3/3
f 127/6/3 124/6/3 123/6/3
f 128/7/3 125/7/3 124/7/3
f 128/6/3 124/6/3 127/6/3
f 129/6/3 126/6/3 125/6/3
f 129/7/3 125/7/3 128/7/3
f 130/6/3 126/6/3 129/6/3
f 138/1/3 136/1/3 135/1/3
f 138/6/3 137/6/3 136/6/3
f 139/6/3 137/6/3 138/6/3
f 140/1/3 138/1/3 135/1/3
f 140/7/3 139/7/3 138/7/3
f 141/7/3 139/7/3 140/7/3
f 142/2/3 132/2/3 131/2/3
f 143/4/3 133/4/3 132/4/3
f 143/2/3 132/2/3 142/2/3
f 144/4/3 133/4/3 143/4/3
f 145/4/3 135/4/3 134/4/3
f 146/1/3 140/1/3 135/1/3
f 146/4/3 135/4/3 145/4/3
f 147/6/3 141/6/3 140/6/3
f 147/1/3 140/1/3 146/1/3
f 148/6/3 141/6/3 147/6/3
f 153/4/3 150/4/3 149/4/3
f 154/1/3 151/1/3 150/1/3
f 154/4/3 150/4/3 153/4/3
f 155/7/3 152/7/3 151/7/3
f 155/1/3 151/1/3 154/1/3
f 156/7/3 152/7/3 155/7/3
f 157/4/4 158/4/4 161/4/4
f 158/1/4 159/1/4 162/1/4
f 161/4/4 158/4/4 162/4/4
f 159/7/4 160/7/4 163/7/4
f 162/1/4 159/1/4 163/1/4
f 163/7/4 160/7/4 164/7/4
f 165/6/4 166/6/4 169/6/4
f 166/7/4 167/7/4 170/7/4
f 169/6/4 166/6/4 170/6/4
f 167/6/4 168/6/4 171/6/4
f 170/7/4 167/7/4 171/7/4
f 171/6/4 168/6/4 172/6/4
f 177/1/4 178/1/4 180/1/4
f 178/6/4 179/6/4 180/6/4
f 180/6/4 179/6/4 181/6/4
f 177/1/4 180/1/4 182/1/4
f 180/7/4 181/7/4 182/7/4
f 182/7/4 181/7/4 183/7/4
f 173/2/4 174/2/4 184/2/4
f 174/4/4 175/4/4 185/4/4
f 184/2/4 174/2/4 185/2/4
f 185/4/4 175/4/4 186/4/4
f 176/4/4 177/4/4 187/4/4
f 177/1/4 182/1/4 188/1/4
f 187/4/4 177/4/4 188/4/4
f 182/6/4 183/6/4 189/6/4
f 188/1/4 182/1/4 189/1/4
f 189/6/4 183/6/4 190/6/4
f 193/3/4 194/3/4 196/3/4
f 194/5/4 195/5/4 197/5/4
f 196/3/4 194/3/4 197/3/4
f 197/5/4 195/5/4 198/5/4
f 196/5/4 197/5/4 199/5/4
f 197/3/4 198/3/4 199/3/4
f 198/5/4 195/5/4 200/5/4
f 199/3/4 198/3/4 200/3/4
f 200/5/4 195/5/4 201/5/4
f 199/5/4 200/5/4 202/5/4
f 200/3/4 201/3/4 202/3/4
f 201/5/4 195/5/4 203/5/4
f 202/3/4 201/3/4 203/3/4
f 203/5/4 195/5/4 204/5/4
f 202/5/4 203/5/4 205/5/4
f 203/3/4 204/3/4 205/3/4
f 204/5/4 195/5/4 206/5/4
f 205/3/4 204/3/4 206/3/4
f 206/5/4 195/5/4 207/5/4
f 191/4/4 192/4/4 208/4/4
f 208/4/4 192/4/4 209/4/4
f 196/5/4 199/5/4 210/5/4
f 199/5/4 202/5/4 210/5/4
f 202/5/4 205/5/4 210/5/4
f 205/5/4 206/5/4 210/5/4
f 206/3/4 207/3/4 211/3/4
f 210/5/4 206/5/4 211/5/4
f 211/3/4 207/3/4 212/3/4
f 215/2/5 214/2/5 213/2/5
f 216/2/5 214/2/5 215/2/5
f 219/4/5 218/4/5 217/4/5
f 220/4/5 218/4/5 219/4/5
f 221/4/5 219/4/5 217/4/5
f 222/4/5 218/4/5 220/4/5
f 223/4/5 221/4/5 217/4/5
f 223/4/5 222/4/5 221/4/5
f 224/4/5 218/4/5 222/4/5
f 224/4/5 222/4/5 223/4/5
f 228/3/5 226/3/5 225/3/5
f 228/5/5 227/5/5 226/5/5
f 229/5/5 227/5/5 228/5/5
f 230/5/5 227/5/5 229/5/5
f 231/5/5 227/5/5 230/5/5
f 232/3/5 228/3/5 225/3/5
f 235/5/5 227/5/5 231/5/5
f 236/3/5 232/3/5 225/3/5
f 237/5/5 234/5/5 233/5/5
f 238/5/5 234/5/5 237/5/5
f 239/5/5 227/5/5 235/5/5
f 240/3/5 236/3/5 225/3/5
f 243/5/5 227/5/5 239/5/5
f 244/3/5 240/3/5 225/3/5
f 245/5/5 242/5/5 241/5/5
f 245/3/5 240/3/5 244/3/5
f 245/5/5 243/5/5 242/5/5
f 245/5/5 241/5/5 240/5/5
f 246/5/5 227/5/5 243/5/5
f 246/5/5 243/5/5 245/5/5
f 249/6/5 248/6/5 247/6/5
f 250/6/5 248/6/5 249/6/5
f 251/7/5 250/7/5 249/7/5
f 252/7/5 250/7/5 251/7/5
f 253/6/5 252/6/5 251/6/5
f 254/6/5 252/6/5 253/6/5
f 255/4/6 256/4/6 257/4/6
f 257/4/6 256/4/6 258/4/6
f 259/4/6 260/4/6 261/4/6
f 261/4/6 260/4/6 262/4/6
f 255/4/6 257/4/6 263/4/6
f 258/4/6 256/4/6 264/4/6
f 255/4/6 263/4/6 265/4/6
f 263/4/6 264/4/6 265/4/6
f 264/4/6 256/4/6 266/4/6
f 265/4/6 264/4/6 266/4/6
f 267/6/6 268/6/6 269/6/6
f 269/6/6 268/6/6 270/6/6
f 269/7/6 270/7/6 271/7/6
f 271/7/6 270/7/6 272/7/6
f 271/6/6 272/6/6 273/6/6
f 273/6/6 272/6/6 274/6/6
f 275/5/6 276/5/6 278/5/6
f 276/3/6 277/3/6 279/3/6
f 278/5/6 276/5/6 279/5/6
f 279/3/6 277/3/6 280/3/6
