# MagicaVoxel @ Ephtracy

# group
o 

# material
mtllib Nami.mtl
usemtl palette

# normals
vn -1 0 0
vn 1 0 0
vn 0 0 1
vn 0 0 -1
vn 0 -1 0
vn 0 1 0

# texcoords
vt 0.0332031 0.5
vt 0.0449219 0.5
vt 0.0917969 0.5
vt 0.111328 0.5
vt 0.537109 0.5
vt 0.619141 0.5
vt 0.958984 0.5
vt 0.994141 0.5

# verts
v 0.2 2.1 -0.6
v 0.2 2.1 -0.9
v 0.2 2.7 -0.6
v 0.2 2.7 -0.9
v 0.2 2.9 -0.6
v 0.2 2.9 -0.9
v 0.4 1.2 -0.6
v 0.4 1.2 -0.9
v 0.4 1.3 -0.6
v 0.4 1.3 -0.9
v 0.4 1.9 -0.6
v 0.4 1.9 -0.9
v 0.4 2.1 -0.6
v 0.4 2.1 -0.9
v 0.4 2.9 -0.5
v 0.4 2.9 -0.6
v 0.4 2.9 -0.9
v 0.4 2.9 -1
v 0.4 3 -0.8
v 0.4 3 -0.9
v 0.4 3.1 -0.7
v 0.4 3.1 -0.8
v 0.4 3.2 -0.6
v 0.4 3.2 -0.7
v 0.4 3.3 -0.5
v 0.4 3.3 -0.6
v 0.4 3.5 -0.5
v 0.4 3.5 -1
v 0.5 2.2 -0.6
v 0.5 2.2 -0.9
v 0.5 2.3 -0.6
v 0.5 2.3 -0.9
v 0.5 2.5 -0.6
v 0.5 2.5 -0.9
v 0.5 2.5 -1
v 0.5 2.6 -0.6
v 0.5 2.6 -0.9
v 0.5 2.8 -0.9
v 0.5 2.8 -1
v 0.6 2.3 -0.6
v 0.6 2.3 -0.9
v 0.6 2.5 -0.6
v 0.6 2.5 -0.9
v 0.6 2.8 -0.9
v 0.6 2.8 -1
v 0.6 2.9 -0.9
v 0.6 2.9 -1
v 0.8 1.2 -0.6
v 0.8 1.2 -0.9
v 0.8 1.3 -0.6
v 0.8 1.3 -0.9
v 0.8 1.9 -0.6
v 0.8 1.9 -0.9
v 0.8 2.6 -0.9
v 0.8 2.6 -1
v 0.8 2.8 -0.9
v 0.8 2.8 -1
v 0.9 2.5 -0.9
v 0.9 2.5 -1
v 0.9 2.6 -0.9
v 0.9 2.6 -1
v 1.1 2.2 -0.6
v 1.1 2.2 -0.9
v 1.1 2.6 -0.6
v 1.1 2.6 -0.9
v 0.4 2.2 -0.6
v 0.4 2.2 -0.9
v 0.4 2.6 -0.6
v 0.4 2.6 -0.9
v 0.6 2.5 -0.9
v 0.6 2.5 -1
v 0.6 2.6 -0.9
v 0.6 2.6 -1
v 0.7 1.2 -0.6
v 0.7 1.2 -0.9
v 0.7 1.3 -0.6
v 0.7 1.3 -0.9
v 0.7 1.9 -0.6
v 0.7 1.9 -0.9
v 0.7 2.6 -0.9
v 0.7 2.6 -1
v 0.7 2.8 -0.9
v 0.7 2.8 -1
v 0.9 2.3 -0.6
v 0.9 2.3 -0.9
v 0.9 2.5 -0.6
v 0.9 2.5 -0.9
v 0.9 2.8 -0.9
v 0.9 2.8 -1
v 0.9 2.9 -0.9
v 0.9 2.9 -1
v 1 2.2 -0.6
v 1 2.2 -0.9
v 1 2.3 -0.6
v 1 2.3 -0.9
v 1 2.5 -0.6
v 1 2.5 -0.9
v 1 2.5 -1
v 1 2.6 -0.6
v 1 2.6 -0.9
v 1 2.8 -0.9
v 1 2.8 -1
v 1.1 1.2 -0.6
v 1.1 1.2 -0.9
v 1.1 1.3 -0.6
v 1.1 1.3 -0.9
v 1.1 1.9 -0.6
v 1.1 1.9 -0.9
v 1.1 2.1 -0.6
v 1.1 2.1 -0.9
v 1.1 2.9 -0.5
v 1.1 2.9 -0.6
v 1.1 2.9 -0.9
v 1.1 2.9 -1
v 1.1 3 -0.8
v 1.1 3 -0.9
v 1.1 3.1 -0.7
v 1.1 3.1 -0.8
v 1.1 3.2 -0.6
v 1.1 3.2 -0.7
v 1.1 3.3 -0.5
v 1.1 3.3 -0.6
v 1.1 3.5 -0.5
v 1.1 3.5 -1
v 1.3 2.1 -0.6
v 1.3 2.1 -0.9
v 1.3 2.7 -0.6
v 1.3 2.7 -0.9
v 1.3 2.9 -0.6
v 1.3 2.9 -0.9
v 0.4 2.9 -0.5
v 0.4 3.3 -0.5
v 0.4 3.5 -0.5
v 0.5 3.1 -0.5
v 0.5 3.3 -0.5
v 0.5 3.4 -0.5
v 0.6 3.1 -0.5
v 0.6 3.3 -0.5
v 0.7 2.9 -0.5
v 0.7 3 -0.5
v 0.7 3.1 -0.5
v 0.7 3.3 -0.5
v 0.7 3.4 -0.5
v 0.8 3.1 -0.5
v 0.8 3.3 -0.5
v 0.9 2.9 -0.5
v 0.9 3 -0.5
v 0.9 3.1 -0.5
v 0.9 3.3 -0.5
v 1 3.1 -0.5
v 1 3.3 -0.5
v 1.1 2.9 -0.5
v 1.1 3.3 -0.5
v 1.1 3.5 -0.5
v 0.2 2.1 -0.6
v 0.2 2.7 -0.6
v 0.2 2.9 -0.6
v 0.4 1.2 -0.6
v 0.4 1.3 -0.6
v 0.4 1.9 -0.6
v 0.4 2.1 -0.6
v 0.4 2.2 -0.6
v 0.4 2.6 -0.6
v 0.4 2.7 -0.6
v 0.4 2.9 -0.6
v 0.5 2.2 -0.6
v 0.5 2.3 -0.6
v 0.5 2.5 -0.6
v 0.5 2.6 -0.6
v 0.5 2.7 -0.6
v 0.5 2.9 -0.6
v 0.6 2.3 -0.6
v 0.6 2.5 -0.6
v 0.6 2.8 -0.6
v 0.6 2.9 -0.6
v 0.7 1.2 -0.6
v 0.7 1.3 -0.6
v 0.7 1.9 -0.6
v 0.7 2.2 -0.6
v 0.7 2.3 -0.6
v 0.7 2.4 -0.6
v 0.7 2.5 -0.6
v 0.7 2.7 -0.6
v 0.7 2.8 -0.6
v 0.7 2.9 -0.6
v 0.8 1.2 -0.6
v 0.8 1.3 -0.6
v 0.8 1.9 -0.6
v 0.8 2.2 -0.6
v 0.8 2.3 -0.6
v 0.8 2.4 -0.6
v 0.8 2.5 -0.6
v 0.8 2.7 -0.6
v 0.8 2.8 -0.6
v 0.9 2.3 -0.6
v 0.9 2.5 -0.6
v 0.9 2.8 -0.6
v 0.9 2.9 -0.6
v 1 2.2 -0.6
v 1 2.3 -0.6
v 1 2.5 -0.6
v 1 2.6 -0.6
v 1 2.7 -0.6
v 1 2.9 -0.6
v 1.1 1.2 -0.6
v 1.1 1.3 -0.6
v 1.1 1.9 -0.6
v 1.1 2.1 -0.6
v 1.1 2.2 -0.6
v 1.1 2.6 -0.6
v 1.1 2.7 -0.6
v 1.1 2.9 -0.6
v 1.3 2.1 -0.6
v 1.3 2.7 -0.6
v 1.3 2.9 -0.6
v 0.2 2.1 -0.9
v 0.2 2.7 -0.9
v 0.2 2.9 -0.9
v 0.4 1.2 -0.9
v 0.4 1.3 -0.9
v 0.4 1.9 -0.9
v 0.4 2.1 -0.9
v 0.4 2.2 -0.9
v 0.4 2.6 -0.9
v 0.4 2.7 -0.9
v 0.4 2.9 -0.9
v 0.5 2.2 -0.9
v 0.5 2.3 -0.9
v 0.5 2.6 -0.9
v 0.5 2.8 -0.9
v 0.6 2.3 -0.9
v 0.6 2.5 -0.9
v 0.6 2.6 -0.9
v 0.6 2.8 -0.9
v 0.6 2.9 -0.9
v 0.7 1.2 -0.9
v 0.7 1.3 -0.9
v 0.7 1.9 -0.9
v 0.7 2.6 -0.9
v 0.7 2.8 -0.9
v 0.8 1.2 -0.9
v 0.8 1.3 -0.9
v 0.8 1.9 -0.9
v 0.8 2.6 -0.9
v 0.8 2.8 -0.9
v 0.9 2.3 -0.9
v 0.9 2.5 -0.9
v 0.9 2.6 -0.9
v 0.9 2.8 -0.9
v 0.9 2.9 -0.9
v 1 2.2 -0.9
v 1 2.3 -0.9
v 1 2.6 -0.9
v 1 2.8 -0.9
v 1.1 1.2 -0.9
v 1.1 1.3 -0.9
v 1.1 1.9 -0.9
v 1.1 2.1 -0.9
v 1.1 2.2 -0.9
v 1.1 2.6 -0.9
v 1.1 2.7 -0.9
v 1.1 2.9 -0.9
v 1.3 2.1 -0.9
v 1.3 2.7 -0.9
v 1.3 2.9 -0.9
v 0.4 2.9 -1
v 0.4 3.5 -1
v 0.5 2.5 -1
v 0.5 2.8 -1
v 0.6 2.5 -1
v 0.6 2.6 -1
v 0.6 2.8 -1
v 0.6 2.9 -1
v 0.7 2.6 -1
v 0.7 2.8 -1
v 0.8 2.6 -1
v 0.8 2.8 -1
v 0.9 2.5 -1
v 0.9 2.6 -1
v 0.9 2.8 -1
v 0.9 2.9 -1
v 1 2.5 -1
v 1 2.8 -1
v 1.1 2.9 -1
v 1.1 3.5 -1
v 0.4 1.2 -0.6
v 0.7 1.2 -0.6
v 0.8 1.2 -0.6
v 1.1 1.2 -0.6
v 0.4 1.2 -0.9
v 0.7 1.2 -0.9
v 0.8 1.2 -0.9
v 1.1 1.2 -0.9
v 0.7 1.9 -0.6
v 0.8 1.9 -0.6
v 0.7 1.9 -0.9
v 0.8 1.9 -0.9
v 0.2 2.1 -0.6
v 0.4 2.1 -0.6
v 1.1 2.1 -0.6
v 1.3 2.1 -0.6
v 0.2 2.1 -0.9
v 0.4 2.1 -0.9
v 1.1 2.1 -0.9
v 1.3 2.1 -0.9
v 0.5 2.5 -0.6
v 0.6 2.5 -0.6
v 0.9 2.5 -0.6
v 1 2.5 -0.6
v 0.5 2.5 -0.9
v 0.6 2.5 -0.9
v 0.9 2.5 -0.9
v 1 2.5 -0.9
v 0.5 2.5 -1
v 0.6 2.5 -1
v 0.9 2.5 -1
v 1 2.5 -1
v 0.4 2.6 -0.6
v 0.5 2.6 -0.6
v 1 2.6 -0.6
v 1.1 2.6 -0.6
v 0.4 2.6 -0.9
v 0.5 2.6 -0.9
v 0.6 2.6 -0.9
v 0.7 2.6 -0.9
v 0.8 2.6 -0.9
v 0.9 2.6 -0.9
v 1 2.6 -0.9
v 1.1 2.6 -0.9
v 0.6 2.6 -1
v 0.7 2.6 -1
v 0.8 2.6 -1
v 0.9 2.6 -1
v 0.7 2.8 -0.9
v 0.8 2.8 -0.9
v 0.7 2.8 -1
v 0.8 2.8 -1
v 0.4 2.9 -0.5
v 0.7 2.9 -0.5
v 0.9 2.9 -0.5
v 1.1 2.9 -0.5
v 0.4 2.9 -0.6
v 0.5 2.9 -0.6
v 0.6 2.9 -0.6
v 0.7 2.9 -0.6
v 0.9 2.9 -0.6
v 1 2.9 -0.6
v 1.1 2.9 -0.6
v 0.4 2.9 -0.9
v 0.6 2.9 -0.9
v 0.9 2.9 -0.9
v 1.1 2.9 -0.9
v 0.4 2.9 -1
v 0.6 2.9 -1
v 0.9 2.9 -1
v 1.1 2.9 -1
v 0.4 2.2 -0.6
v 0.5 2.2 -0.6
v 1 2.2 -0.6
v 1.1 2.2 -0.6
v 0.4 2.2 -0.9
v 0.5 2.2 -0.9
v 1 2.2 -0.9
v 1.1 2.2 -0.9
v 0.5 2.3 -0.6
v 0.6 2.3 -0.6
v 0.9 2.3 -0.6
v 1 2.3 -0.6
v 0.5 2.3 -0.9
v 0.6 2.3 -0.9
v 0.9 2.3 -0.9
v 1 2.3 -0.9
v 0.5 2.8 -0.9
v 0.6 2.8 -0.9
v 0.9 2.8 -0.9
v 1 2.8 -0.9
v 0.5 2.8 -1
v 0.6 2.8 -1
v 0.9 2.8 -1
v 1 2.8 -1
v 0.2 2.9 -0.6
v 0.4 2.9 -0.6
v 1.1 2.9 -0.6
v 1.3 2.9 -0.6
v 0.2 2.9 -0.9
v 0.4 2.9 -0.9
v 1.1 2.9 -0.9
v 1.3 2.9 -0.9
v 0.4 3.5 -0.5
v 1.1 3.5 -0.5
v 0.4 3.5 -1
v 1.1 3.5 -1

# faces
f 3/1/1 2/1/1 1/1/1
f 4/1/1 2/1/1 3/1/1
f 5/7/1 4/7/1 3/7/1
f 6/7/1 4/7/1 5/7/1
f 9/8/1 8/8/1 7/8/1
f 10/8/1 8/8/1 9/8/1
f 11/1/1 10/1/1 9/1/1
f 12/1/1 10/1/1 11/1/1
f 13/4/1 12/4/1 11/4/1
f 14/4/1 12/4/1 13/4/1
f 19/1/1 17/1/1 16/1/1
f 19/1/1 16/1/1 15/1/1
f 20/3/1 18/3/1 17/3/1
f 20/1/1 17/1/1 19/1/1
f 21/1/1 19/1/1 15/1/1
f 22/3/1 20/3/1 19/3/1
f 22/1/1 19/1/1 21/1/1
f 23/1/1 21/1/1 15/1/1
f 24/3/1 22/3/1 21/3/1
f 24/1/1 21/1/1 23/1/1
f 25/1/1 23/1/1 15/1/1
f 26/3/1 24/3/1 23/3/1
f 26/1/1 23/1/1 25/1/1
f 27/3/1 26/3/1 25/3/1
f 28/3/1 18/3/1 20/3/1
f 28/3/1 26/3/1 27/3/1
f 28/3/1 20/3/1 22/3/1
f 28/3/1 24/3/1 26/3/1
f 28/3/1 22/3/1 24/3/1
f 31/4/1 30/4/1 29/4/1
f 32/4/1 30/4/1 31/4/1
f 36/7/1 34/7/1 33/7/1
f 37/3/1 35/3/1 34/3/1
f 37/7/1 34/7/1 36/7/1
f 38/3/1 35/3/1 37/3/1
f 39/3/1 35/3/1 38/3/1
f 42/4/1 41/4/1 40/4/1
f 43/4/1 41/4/1 42/4/1
f 46/3/1 45/3/1 44/3/1
f 47/3/1 45/3/1 46/3/1
f 50/8/1 49/8/1 48/8/1
f 51/8/1 49/8/1 50/8/1
f 52/1/1 51/1/1 50/1/1
f 53/1/1 51/1/1 52/1/1
f 56/3/1 55/3/1 54/3/1
f 57/3/1 55/3/1 56/3/1
f 60/3/1 59/3/1 58/3/1
f 61/3/1 59/3/1 60/3/1
f 64/1/1 63/1/1 62/1/1
f 65/1/1 63/1/1 64/1/1
f 66/1/2 67/1/2 68/1/2
f 68/1/2 67/1/2 69/1/2
f 70/3/2 71/3/2 72/3/2
f 72/3/2 71/3/2 73/3/2
f 74/8/2 75/8/2 76/8/2
f 76/8/2 75/8/2 77/8/2
f 76/1/2 77/1/2 78/1/2
f 78/1/2 77/1/2 79/1/2
f 80/3/2 81/3/2 82/3/2
f 82/3/2 81/3/2 83/3/2
f 84/4/2 85/4/2 86/4/2
f 86/4/2 85/4/2 87/4/2
f 88/3/2 89/3/2 90/3/2
f 90/3/2 89/3/2 91/3/2
f 92/4/2 93/4/2 94/4/2
f 94/4/2 93/4/2 95/4/2
f 96/7/2 97/7/2 99/7/2
f 97/3/2 98/3/2 100/3/2
f 99/7/2 97/7/2 100/7/2
f 100/3/2 98/3/2 101/3/2
f 101/3/2 98/3/2 102/3/2
f 103/8/2 104/8/2 105/8/2
f 105/8/2 104/8/2 106/8/2
f 105/1/2 106/1/2 107/1/2
f 107/1/2 106/1/2 108/1/2
f 107/4/2 108/4/2 109/4/2
f 109/4/2 108/4/2 110/4/2
f 112/1/2 113/1/2 115/1/2
f 111/1/2 112/1/2 115/1/2
f 113/3/2 114/3/2 116/3/2
f 115/1/2 113/1/2 116/1/2
f 111/1/2 115/1/2 117/1/2
f 115/3/2 116/3/2 118/3/2
f 117/1/2 115/1/2 118/1/2
f 111/1/2 117/1/2 119/1/2
f 117/3/2 118/3/2 120/3/2
f 119/1/2 117/1/2 120/1/2
f 111/1/2 119/1/2 121/1/2
f 119/3/2 120/3/2 122/3/2
f 121/1/2 119/1/2 122/1/2
f 121/3/2 122/3/2 123/3/2
f 116/3/2 114/3/2 124/3/2
f 123/3/2 122/3/2 124/3/2
f 118/3/2 116/3/2 124/3/2
f 122/3/2 120/3/2 124/3/2
f 120/3/2 118/3/2 124/3/2
f 125/1/2 126/1/2 127/1/2
f 127/1/2 126/1/2 128/1/2
f 127/7/2 128/7/2 129/7/2
f 129/7/2 128/7/2 130/7/2
f 134/1/3 132/1/3 131/1/3
f 135/3/3 133/3/3 132/3/3
f 135/1/3 132/1/3 134/1/3
f 136/3/3 133/3/3 135/3/3
f 137/1/3 134/1/3 131/1/3
f 137/7/3 135/7/3 134/7/3
f 138/1/3 136/1/3 135/1/3
f 138/7/3 135/7/3 137/7/3
f 139/1/3 137/1/3 131/1/3
f 140/1/3 137/1/3 139/1/3
f 141/5/3 138/5/3 137/5/3
f 141/1/3 137/1/3 140/1/3
f 142/1/3 136/1/3 138/1/3
f 142/5/3 138/5/3 141/5/3
f 143/3/3 133/3/3 136/3/3
f 143/1/3 136/1/3 142/1/3
f 144/1/3 142/1/3 141/1/3
f 144/1/3 141/1/3 140/1/3
f 145/3/3 143/3/3 142/3/3
f 145/1/3 142/1/3 144/1/3
f 146/7/3 140/7/3 139/7/3
f 147/1/3 144/1/3 140/1/3
f 147/7/3 140/7/3 146/7/3
f 148/5/3 145/5/3 144/5/3
f 148/1/3 144/1/3 147/1/3
f 149/3/3 143/3/3 145/3/3
f 149/5/3 145/5/3 148/5/3
f 150/1/3 148/1/3 147/1/3
f 150/1/3 147/1/3 146/1/3
f 150/7/3 149/7/3 148/7/3
f 151/3/3 143/3/3 149/3/3
f 151/7/3 149/7/3 150/7/3
f 152/1/3 150/1/3 146/1/3
f 152/1/3 151/1/3 150/1/3
f 153/3/3 143/3/3 151/3/3
f 153/1/3 151/1/3 152/1/3
f 154/3/3 133/3/3 143/3/3
f 154/3/3 143/3/3 153/3/3
f 161/1/3 156/1/3 155/1/3
f 162/1/3 156/1/3 161/1/3
f 163/1/3 156/1/3 162/1/3
f 164/7/3 157/7/3 156/7/3
f 164/1/3 156/1/3 163/1/3
f 165/7/3 157/7/3 164/7/3
f 166/4/3 161/4/3 160/4/3
f 166/4/3 162/4/3 161/4/3
f 169/7/3 164/7/3 163/7/3
f 170/4/3 165/4/3 164/4/3
f 170/7/3 164/7/3 169/7/3
f 171/4/3 165/4/3 170/4/3
f 172/4/3 167/4/3 166/4/3
f 173/7/3 169/7/3 168/7/3
f 173/7/3 170/7/3 169/7/3
f 173/7/3 171/7/3 170/7/3
f 174/7/3 171/7/3 173/7/3
f 175/7/3 171/7/3 174/7/3
f 176/8/3 159/8/3 158/8/3
f 177/1/3 160/1/3 159/1/3
f 177/8/3 159/8/3 176/8/3
f 178/4/3 172/4/3 166/4/3
f 178/1/3 160/1/3 177/1/3
f 178/4/3 166/4/3 160/4/3
f 178/4/3 173/4/3 172/4/3
f 179/4/3 173/4/3 178/4/3
f 180/4/3 173/4/3 179/4/3
f 181/4/3 173/4/3 180/4/3
f 182/7/3 174/7/3 173/7/3
f 182/4/3 173/4/3 181/4/3
f 183/7/3 174/7/3 182/7/3
f 184/1/3 175/1/3 174/1/3
f 184/7/3 174/7/3 183/7/3
f 185/1/3 175/1/3 184/1/3
f 188/4/3 179/4/3 178/4/3
f 189/2/3 180/2/3 179/2/3
f 189/4/3 179/4/3 188/4/3
f 190/4/3 181/4/3 180/4/3
f 190/2/3 180/2/3 189/2/3
f 191/2/3 182/2/3 181/2/3
f 191/4/3 181/4/3 190/4/3
f 192/7/3 183/7/3 182/7/3
f 192/2/3 182/2/3 191/2/3
f 193/1/3 185/1/3 184/1/3
f 193/7/3 183/7/3 192/7/3
f 193/1/3 184/1/3 183/1/3
f 194/1/3 185/1/3 193/1/3
f 195/4/3 191/4/3 190/4/3
f 195/4/3 189/4/3 188/4/3
f 195/4/3 192/4/3 191/4/3
f 195/4/3 190/4/3 189/4/3
f 196/7/3 194/7/3 193/7/3
f 196/4/3 192/4/3 195/4/3
f 196/7/3 193/7/3 192/7/3
f 197/1/3 185/1/3 194/1/3
f 197/7/3 194/7/3 196/7/3
f 198/1/3 185/1/3 197/1/3
f 199/4/3 195/4/3 188/4/3
f 200/4/3 195/4/3 199/4/3
f 201/7/3 198/7/3 197/7/3
f 201/7/3 197/7/3 196/7/3
f 202/7/3 198/7/3 201/7/3
f 203/7/3 198/7/3 202/7/3
f 204/7/3 198/7/3 203/7/3
f 205/8/3 187/8/3 186/8/3
f 206/1/3 188/1/3 187/1/3
f 206/8/3 187/8/3 205/8/3
f 207/4/3 199/4/3 188/4/3
f 207/1/3 188/1/3 206/1/3
f 208/4/3 199/4/3 207/4/3
f 209/4/3 199/4/3 208/4/3
f 210/7/3 203/7/3 202/7/3
f 211/4/3 204/4/3 203/4/3
f 211/7/3 203/7/3 210/7/3
f 212/4/3 204/4/3 211/4/3
f 213/1/3 210/1/3 209/1/3
f 213/1/3 209/1/3 208/1/3
f 213/1/3 211/1/3 210/1/3
f 214/7/3 212/7/3 211/7/3
f 214/1/3 211/1/3 213/1/3
f 215/7/3 212/7/3 214/7/3
f 216/1/4 217/1/4 222/1/4
f 222/1/4 217/1/4 223/1/4
f 223/1/4 217/1/4 224/1/4
f 217/7/4 218/7/4 225/7/4
f 224/1/4 217/1/4 225/1/4
f 225/7/4 218/7/4 226/7/4
f 221/4/4 222/4/4 227/4/4
f 222/4/4 223/4/4 227/4/4
f 225/7/4 226/7/4 229/7/4
f 224/7/4 225/7/4 229/7/4
f 229/7/4 226/7/4 230/7/4
f 227/4/4 228/4/4 231/4/4
f 230/7/4 226/7/4 234/7/4
f 234/7/4 226/7/4 235/7/4
f 219/8/4 220/8/4 236/8/4
f 220/1/4 221/1/4 237/1/4
f 236/8/4 220/8/4 237/8/4
f 221/4/4 227/4/4 238/4/4
f 237/1/4 221/1/4 238/1/4
f 227/4/4 231/4/4 238/4/4
f 231/4/4 232/4/4 238/4/4
f 232/7/4 233/7/4 239/7/4
f 238/4/4 232/4/4 243/4/4
f 239/7/4 240/7/4 244/7/4
f 232/7/4 239/7/4 244/7/4
f 244/7/4 240/7/4 245/7/4
f 243/4/4 232/4/4 246/4/4
f 232/7/4 244/7/4 247/7/4
f 246/4/4 232/4/4 247/4/4
f 247/7/4 244/7/4 248/7/4
f 243/4/4 246/4/4 251/4/4
f 251/4/4 246/4/4 252/4/4
f 249/7/4 250/7/4 254/7/4
f 241/8/4 242/8/4 255/8/4
f 242/1/4 243/1/4 256/1/4
f 255/8/4 242/8/4 256/8/4
f 243/4/4 251/4/4 257/4/4
f 256/1/4 243/1/4 257/1/4
f 257/4/4 251/4/4 258/4/4
f 258/4/4 251/4/4 259/4/4
f 253/7/4 254/7/4 260/7/4
f 260/7/4 254/7/4 261/7/4
f 254/7/4 250/7/4 262/7/4
f 261/7/4 254/7/4 262/7/4
f 258/1/4 259/1/4 263/1/4
f 260/1/4 261/1/4 263/1/4
f 259/1/4 260/1/4 263/1/4
f 261/7/4 262/7/4 264/7/4
f 263/1/4 261/1/4 264/1/4
f 264/7/4 262/7/4 265/7/4
f 268/3/4 269/3/4 270/3/4
f 270/3/4 269/3/4 271/3/4
f 271/3/4 269/3/4 272/3/4
f 266/3/4 267/3/4 273/3/4
f 271/3/4 272/3/4 274/3/4
f 272/3/4 273/3/4 274/3/4
f 274/3/4 273/3/4 275/3/4
f 275/3/4 273/3/4 277/3/4
f 276/3/4 277/3/4 279/3/4
f 277/3/4 273/3/4 280/3/4
f 279/3/4 277/3/4 280/3/4
f 273/3/4 267/3/4 281/3/4
f 280/3/4 273/3/4 281/3/4
f 279/3/4 280/3/4 282/3/4
f 278/3/4 279/3/4 282/3/4
f 282/3/4 280/3/4 283/3/4
f 281/3/4 267/3/4 284/3/4
f 284/3/4 267/3/4 285/3/4
f 290/8/5 287/8/5 286/8/5
f 291/8/5 287/8/5 290/8/5
f 292/8/5 289/8/5 288/8/5
f 293/8/5 289/8/5 292/8/5
f 296/4/5 295/4/5 294/4/5
f 297/4/5 295/4/5 296/4/5
f 302/1/5 299/1/5 298/1/5
f 303/1/5 299/1/5 302/1/5
f 304/1/5 301/1/5 300/1/5
f 305/1/5 301/1/5 304/1/5
f 310/7/5 307/7/5 306/7/5
f 311/7/5 307/7/5 310/7/5
f 312/7/5 309/7/5 308/7/5
f 313/7/5 309/7/5 312/7/5
f 314/3/5 311/3/5 310/3/5
f 315/3/5 311/3/5 314/3/5
f 316/3/5 313/3/5 312/3/5
f 317/3/5 313/3/5 316/3/5
f 322/7/5 319/7/5 318/7/5
f 323/7/5 319/7/5 322/7/5
f 328/7/5 321/7/5 320/7/5
f 329/7/5 321/7/5 328/7/5
f 330/3/5 325/3/5 324/3/5
f 331/3/5 325/3/5 330/3/5
f 332/3/5 327/3/5 326/3/5
f 333/3/5 327/3/5 332/3/5
f 336/3/5 335/3/5 334/3/5
f 337/3/5 335/3/5 336/3/5
f 342/1/5 339/1/5 338/1/5
f 343/1/5 339/1/5 342/1/5
f 344/1/5 339/1/5 343/1/5
f 345/7/5 340/7/5 339/7/5
f 345/1/5 339/1/5 344/1/5
f 346/1/5 341/1/5 340/1/5
f 346/7/5 340/7/5 345/7/5
f 347/1/5 341/1/5 346/1/5
f 348/1/5 341/1/5 347/1/5
f 353/3/5 350/3/5 349/3/5
f 354/3/5 350/3/5 353/3/5
f 355/3/5 352/3/5 351/3/5
f 356/3/5 352/3/5 355/3/5
f 357/4/6 358/4/6 361/4/6
f 361/4/6 358/4/6 362/4/6
f 359/4/6 360/4/6 363/4/6
f 363/4/6 360/4/6 364/4/6
f 365/4/6 366/4/6 369/4/6
f 369/4/6 366/4/6 370/4/6
f 367/4/6 368/4/6 371/4/6
f 371/4/6 368/4/6 372/4/6
f 373/3/6 374/3/6 377/3/6
f 377/3/6 374/3/6 378/3/6
f 375/3/6 376/3/6 379/3/6
f 379/3/6 376/3/6 380/3/6
f 381/7/6 382/7/6 385/7/6
f 385/7/6 382/7/6 386/7/6
f 383/7/6 384/7/6 387/7/6
f 387/7/6 384/7/6 388/7/6
f 389/3/6 390/3/6 391/3/6
f 391/3/6 390/3/6 392/3/6
