# MagicaVoxel @ Ephtracy

# group
o 

# material
mtllib Robin.mtl
usemtl palette

# normals
vn -1 0 0
vn 1 0 0
vn 0 0 1
vn 0 0 -1
vn 0 -1 0
vn 0 1 0

# texcoords
vt 0.0332031 0.5
vt 0.0683594 0.5
vt 0.111328 0.5
vt 0.619141 0.5
vt 0.759766 0.5
vt 0.814453 0.5
vt 0.837891 0.5
vt 0.955078 0.5
vt 0.958984 0.5
vt 0.994141 0.5

# verts
v 0.2 2.1 -0.6
v 0.2 2.1 -0.9
v 0.2 2.4 -0.6
v 0.2 2.4 -0.9
v 0.2 2.9 -0.6
v 0.2 2.9 -0.9
v 0.4 1.2 -0.6
v 0.4 1.2 -0.9
v 0.4 1.3 -0.6
v 0.4 1.3 -0.9
v 0.4 1.9 -0.6
v 0.4 1.9 -0.9
v 0.4 2.1 -0.6
v 0.4 2.1 -0.9
v 0.4 2.4 -0.9
v 0.4 2.4 -1
v 0.4 2.9 -0.5
v 0.4 2.9 -0.6
v 0.4 2.9 -0.9
v 0.4 3 -0.8
v 0.4 3 -0.9
v 0.4 3.1 -0.7
v 0.4 3.1 -0.8
v 0.4 3.2 -0.6
v 0.4 3.2 -0.7
v 0.4 3.4 -0.5
v 0.4 3.4 -0.6
v 0.4 3.5 -0.5
v 0.4 3.5 -1
v 0.5 2.2 -0.6
v 0.5 2.2 -0.9
v 0.5 2.3 -0.6
v 0.5 2.3 -0.9
v 0.5 2.3 -1
v 0.5 2.4 -0.9
v 0.5 2.4 -1
v 0.5 2.5 -0.6
v 0.5 2.5 -0.9
v 0.5 2.6 -0.6
v 0.5 2.6 -0.7
v 0.5 2.6 -0.8
v 0.5 2.6 -0.9
v 0.6 2.3 -0.6
v 0.6 2.3 -0.9
v 0.6 2.5 -0.6
v 0.6 2.5 -0.9
v 0.8 1.2 -0.6
v 0.8 1.2 -0.9
v 0.8 1.3 -0.6
v 0.8 1.3 -0.9
v 0.8 1.9 -0.6
v 0.8 1.9 -0.7
v 0.8 1.9 -0.8
v 0.8 1.9 -0.9
v 1.1 2.2 -0.6
v 1.1 2.2 -0.9
v 1.1 2.4 -0.6
v 1.1 2.4 -0.9
v 1.1 2.6 -0.6
v 1.1 2.6 -0.9
v 0.4 2.2 -0.6
v 0.4 2.2 -0.9
v 0.4 2.4 -0.6
v 0.4 2.4 -0.9
v 0.4 2.6 -0.6
v 0.4 2.6 -0.7
v 0.4 2.6 -0.8
v 0.4 2.6 -0.9
v 0.7 1.2 -0.6
v 0.7 1.2 -0.9
v 0.7 1.3 -0.6
v 0.7 1.3 -0.9
v 0.7 1.9 -0.6
v 0.7 1.9 -0.7
v 0.7 1.9 -0.8
v 0.7 1.9 -0.9
v 0.9 2.3 -0.6
v 0.9 2.3 -0.9
v 0.9 2.5 -0.6
v 0.9 2.5 -0.9
v 1 2.2 -0.6
v 1 2.2 -0.9
v 1 2.3 -0.6
v 1 2.3 -0.9
v 1 2.3 -1
v 1 2.4 -0.9
v 1 2.4 -1
v 1 2.5 -0.6
v 1 2.5 -0.9
v 1 2.6 -0.6
v 1 2.6 -0.9
v 1.1 1.2 -0.6
v 1.1 1.2 -0.9
v 1.1 1.3 -0.6
v 1.1 1.3 -0.9
v 1.1 1.9 -0.6
v 1.1 1.9 -0.9
v 1.1 2.1 -0.6
v 1.1 2.1 -0.9
v 1.1 2.4 -0.9
v 1.1 2.4 -1
v 1.1 2.9 -0.5
v 1.1 2.9 -0.6
v 1.1 2.9 -0.9
v 1.1 3 -0.8
v 1.1 3 -0.9
v 1.1 3.1 -0.7
v 1.1 3.1 -0.8
v 1.1 3.2 -0.6
v 1.1 3.2 -0.7
v 1.1 3.4 -0.5
v 1.1 3.4 -0.6
v 1.1 3.5 -0.5
v 1.1 3.5 -1
v 1.3 2.1 -0.6
v 1.3 2.1 -0.9
v 1.3 2.4 -0.6
v 1.3 2.4 -0.9
v 1.3 2.9 -0.6
v 1.3 2.9 -0.9
v 0.4 2.9 -0.5
v 0.4 3.4 -0.5
v 0.4 3.5 -0.5
v 0.5 3.1 -0.5
v 0.5 3.3 -0.5
v 0.5 3.4 -0.5
v 0.5 3.5 -0.5
v 0.6 3.1 -0.5
v 0.6 3.3 -0.5
v 0.7 2.9 -0.5
v 0.7 3 -0.5
v 0.7 3.1 -0.5
v 0.7 3.3 -0.5
v 0.7 3.4 -0.5
v 0.7 3.5 -0.5
v 0.8 3.1 -0.5
v 0.8 3.3 -0.5
v 0.8 3.4 -0.5
v 0.8 3.5 -0.5
v 0.9 2.9 -0.5
v 0.9 3 -0.5
v 0.9 3.1 -0.5
v 0.9 3.3 -0.5
v 1 3.1 -0.5
v 1 3.3 -0.5
v 1 3.4 -0.5
v 1 3.5 -0.5
v 1.1 2.9 -0.5
v 1.1 3.4 -0.5
v 1.1 3.5 -0.5
v 0.2 2.1 -0.6
v 0.2 2.4 -0.6
v 0.2 2.9 -0.6
v 0.4 1.2 -0.6
v 0.4 1.3 -0.6
v 0.4 1.9 -0.6
v 0.4 2.1 -0.6
v 0.4 2.2 -0.6
v 0.4 2.4 -0.6
v 0.4 2.6 -0.6
v 0.4 2.9 -0.6
v 0.5 2.2 -0.6
v 0.5 2.3 -0.6
v 0.5 2.5 -0.6
v 0.5 2.6 -0.6
v 0.5 2.8 -0.6
v 0.5 2.9 -0.6
v 0.6 2.3 -0.6
v 0.6 2.5 -0.6
v 0.6 2.7 -0.6
v 0.6 2.8 -0.6
v 0.7 1.2 -0.6
v 0.7 1.3 -0.6
v 0.7 1.9 -0.6
v 0.7 2.6 -0.6
v 0.7 2.7 -0.6
v 0.7 2.9 -0.6
v 0.8 1.2 -0.6
v 0.8 1.3 -0.6
v 0.8 1.9 -0.6
v 0.8 2.6 -0.6
v 0.8 2.7 -0.6
v 0.9 2.3 -0.6
v 0.9 2.5 -0.6
v 0.9 2.7 -0.6
v 0.9 2.8 -0.6
v 0.9 2.9 -0.6
v 1 2.2 -0.6
v 1 2.3 -0.6
v 1 2.5 -0.6
v 1 2.6 -0.6
v 1 2.8 -0.6
v 1 2.9 -0.6
v 1.1 1.2 -0.6
v 1.1 1.3 -0.6
v 1.1 1.9 -0.6
v 1.1 2.1 -0.6
v 1.1 2.2 -0.6
v 1.1 2.4 -0.6
v 1.1 2.6 -0.6
v 1.1 2.9 -0.6
v 1.3 2.1 -0.6
v 1.3 2.4 -0.6
v 1.3 2.9 -0.6
v 0.4 2.4 -0.9
v 0.4 2.6 -0.9
v 0.5 2.3 -0.9
v 0.5 2.4 -0.9
v 0.5 2.5 -0.9
v 0.5 2.6 -0.9
v 0.6 2.3 -0.9
v 0.6 2.5 -0.9
v 0.9 2.3 -0.9
v 0.9 2.5 -0.9
v 1 2.3 -0.9
v 1 2.4 -0.9
v 1 2.5 -0.9
v 1 2.6 -0.9
v 1.1 2.4 -0.9
v 1.1 2.6 -0.9
v 0.2 2.1 -0.9
v 0.2 2.4 -0.9
v 0.2 2.9 -0.9
v 0.4 1.2 -0.9
v 0.4 1.3 -0.9
v 0.4 1.9 -0.9
v 0.4 2.1 -0.9
v 0.4 2.2 -0.9
v 0.4 2.4 -0.9
v 0.4 2.9 -0.9
v 0.5 2.2 -0.9
v 0.5 2.3 -0.9
v 0.7 1.2 -0.9
v 0.7 1.3 -0.9
v 0.7 1.9 -0.9
v 0.8 1.2 -0.9
v 0.8 1.3 -0.9
v 0.8 1.9 -0.9
v 1 2.2 -0.9
v 1 2.3 -0.9
v 1.1 1.2 -0.9
v 1.1 1.3 -0.9
v 1.1 1.9 -0.9
v 1.1 2.1 -0.9
v 1.1 2.2 -0.9
v 1.1 2.4 -0.9
v 1.1 2.9 -0.9
v 1.3 2.1 -0.9
v 1.3 2.4 -0.9
v 1.3 2.9 -0.9
v 0.4 2.4 -1
v 0.4 3.5 -1
v 0.5 2.3 -1
v 0.5 2.4 -1
v 1 2.3 -1
v 1 2.4 -1
v 1.1 2.4 -1
v 1.1 3.5 -1
v 0.4 1.2 -0.6
v 0.7 1.2 -0.6
v 0.8 1.2 -0.6
v 1.1 1.2 -0.6
v 0.5 1.2 -0.7
v 0.6 1.2 -0.7
v 0.9 1.2 -0.7
v 1 1.2 -0.7
v 0.5 1.2 -0.8
v 0.6 1.2 -0.8
v 0.9 1.2 -0.8
v 1 1.2 -0.8
v 0.4 1.2 -0.9
v 0.7 1.2 -0.9
v 0.8 1.2 -0.9
v 1.1 1.2 -0.9
v 0.7 1.9 -0.6
v 0.8 1.9 -0.6
v 0.7 1.9 -0.7
v 0.8 1.9 -0.7
v 0.7 1.9 -0.8
v 0.8 1.9 -0.8
v 0.7 1.9 -0.9
v 0.8 1.9 -0.9
v 0.2 2.1 -0.6
v 0.4 2.1 -0.6
v 1.1 2.1 -0.6
v 1.3 2.1 -0.6
v 0.2 2.1 -0.9
v 0.4 2.1 -0.9
v 1.1 2.1 -0.9
v 1.3 2.1 -0.9
v 0.5 2.3 -0.9
v 1 2.3 -0.9
v 0.5 2.3 -1
v 1 2.3 -1
v 0.4 2.4 -0.9
v 0.5 2.4 -0.9
v 1 2.4 -0.9
v 1.1 2.4 -0.9
v 0.4 2.4 -1
v 0.5 2.4 -1
v 1 2.4 -1
v 1.1 2.4 -1
v 0.5 2.5 -0.6
v 0.6 2.5 -0.6
v 0.9 2.5 -0.6
v 1 2.5 -0.6
v 0.5 2.5 -0.9
v 0.6 2.5 -0.9
v 0.9 2.5 -0.9
v 1 2.5 -0.9
v 0.4 2.6 -0.6
v 0.5 2.6 -0.6
v 1 2.6 -0.6
v 1.1 2.6 -0.6
v 0.4 2.6 -0.7
v 0.5 2.6 -0.7
v 0.4 2.6 -0.8
v 0.5 2.6 -0.8
v 0.4 2.6 -0.9
v 0.5 2.6 -0.9
v 1 2.6 -0.9
v 1.1 2.6 -0.9
v 0.4 2.9 -0.5
v 0.7 2.9 -0.5
v 0.9 2.9 -0.5
v 1.1 2.9 -0.5
v 0.4 2.9 -0.6
v 0.5 2.9 -0.6
v 0.7 2.9 -0.6
v 0.9 2.9 -0.6
v 1 2.9 -0.6
v 1.1 2.9 -0.6
v 0.4 2.2 -0.6
v 0.5 2.2 -0.6
v 1 2.2 -0.6
v 1.1 2.2 -0.6
v 0.4 2.2 -0.9
v 0.5 2.2 -0.9
v 1 2.2 -0.9
v 1.1 2.2 -0.9
v 0.5 2.3 -0.6
v 0.6 2.3 -0.6
v 0.9 2.3 -0.6
v 1 2.3 -0.6
v 0.5 2.3 -0.9
v 0.6 2.3 -0.9
v 0.9 2.3 -0.9
v 1 2.3 -0.9
v 0.2 2.9 -0.6
v 0.4 2.9 -0.6
v 1.1 2.9 -0.6
v 1.3 2.9 -0.6
v 0.2 2.9 -0.9
v 0.4 2.9 -0.9
v 1.1 2.9 -0.9
v 1.3 2.9 -0.9
v 0.4 3.5 -0.5
v 0.5 3.5 -0.5
v 0.7 3.5 -0.5
v 0.8 3.5 -0.5
v 1 3.5 -0.5
v 1.1 3.5 -0.5
v 0.5 3.5 -0.7
v 0.7 3.5 -0.7
v 0.8 3.5 -0.7
v 1 3.5 -0.7
v 0.4 3.5 -1
v 1.1 3.5 -1

# faces
f 3/1/1 2/1/1 1/1/1
f 4/1/1 2/1/1 3/1/1
f 5/5/1 4/5/1 3/5/1
f 6/5/1 4/5/1 5/5/1
f 9/8/1 8/8/1 7/8/1
f 10/8/1 8/8/1 9/8/1
f 11/1/1 10/1/1 9/1/1
f 12/1/1 10/1/1 11/1/1
f 13/5/1 12/5/1 11/5/1
f 14/5/1 12/5/1 13/5/1
f 19/10/1 16/10/1 15/10/1
f 20/1/1 18/1/1 17/1/1
f 20/1/1 19/1/1 18/1/1
f 21/10/1 16/10/1 19/10/1
f 21/1/1 19/1/1 20/1/1
f 22/1/1 20/1/1 17/1/1
f 23/10/1 21/10/1 20/10/1
f 23/1/1 20/1/1 22/1/1
f 24/1/1 22/1/1 17/1/1
f 25/10/1 23/10/1 22/10/1
f 25/1/1 22/1/1 24/1/1
f 26/1/1 24/1/1 17/1/1
f 27/10/1 25/10/1 24/10/1
f 27/1/1 24/1/1 26/1/1
f 28/10/1 27/10/1 26/10/1
f 29/10/1 16/10/1 21/10/1
f 29/10/1 27/10/1 28/10/1
f 29/10/1 21/10/1 23/10/1
f 29/10/1 25/10/1 27/10/1
f 29/10/1 23/10/1 25/10/1
f 32/5/1 31/5/1 30/5/1
f 33/5/1 31/5/1 32/5/1
f 35/10/1 34/10/1 33/10/1
f 36/10/1 34/10/1 35/10/1
f 39/5/1 38/5/1 37/5/1
f 40/5/1 38/5/1 39/5/1
f 41/5/1 38/5/1 40/5/1
f 42/5/1 38/5/1 41/5/1
f 45/5/1 44/5/1 43/5/1
f 46/5/1 44/5/1 45/5/1
f 49/8/1 48/8/1 47/8/1
f 50/8/1 48/8/1 49/8/1
f 51/1/1 50/1/1 49/1/1
f 52/1/1 50/1/1 51/1/1
f 53/1/1 50/1/1 52/1/1
f 54/1/1 50/1/1 53/1/1
f 57/1/1 56/1/1 55/1/1
f 58/1/1 56/1/1 57/1/1
f 59/5/1 58/5/1 57/5/1
f 60/5/1 58/5/1 59/5/1
f 61/1/2 62/1/2 63/1/2
f 63/1/2 62/1/2 64/1/2
f 63/5/2 64/5/2 65/5/2
f 65/5/2 64/5/2 66/5/2
f 66/5/2 64/5/2 67/5/2
f 67/5/2 64/5/2 68/5/2
f 69/8/2 70/8/2 71/8/2
f 71/8/2 70/8/2 72/8/2
f 71/1/2 72/1/2 73/1/2
f 73/1/2 72/1/2 74/1/2
f 74/1/2 72/1/2 75/1/2
f 75/1/2 72/1/2 76/1/2
f 77/5/2 78/5/2 79/5/2
f 79/5/2 78/5/2 80/5/2
f 81/5/2 82/5/2 83/5/2
f 83/5/2 82/5/2 84/5/2
f 84/10/2 85/10/2 86/10/2
f 86/10/2 85/10/2 87/10/2
f 88/5/2 89/5/2 90/5/2
f 90/5/2 89/5/2 91/5/2
f 92/8/2 93/8/2 94/8/2
f 94/8/2 93/8/2 95/8/2
f 94/1/2 95/1/2 96/1/2
f 96/1/2 95/1/2 97/1/2
f 96/5/2 97/5/2 98/5/2
f 98/5/2 97/5/2 99/5/2
f 100/10/2 101/10/2 104/10/2
f 102/1/2 103/1/2 105/1/2
f 103/1/2 104/1/2 105/1/2
f 104/10/2 101/10/2 106/10/2
f 105/1/2 104/1/2 106/1/2
f 102/1/2 105/1/2 107/1/2
f 105/10/2 106/10/2 108/10/2
f 107/1/2 105/1/2 108/1/2
f 102/1/2 107/1/2 109/1/2
f 107/10/2 108/10/2 110/10/2
f 109/1/2 107/1/2 110/1/2
f 102/1/2 109/1/2 111/1/2
f 109/10/2 110/10/2 112/10/2
f 111/1/2 109/1/2 112/1/2
f 111/10/2 112/10/2 113/10/2
f 106/10/2 101/10/2 114/10/2
f 113/10/2 112/10/2 114/10/2
f 108/10/2 106/10/2 114/10/2
f 112/10/2 110/10/2 114/10/2
f 110/10/2 108/10/2 114/10/2
f 115/1/2 116/1/2 117/1/2
f 117/1/2 116/1/2 118/1/2
f 117/5/2 118/5/2 119/5/2
f 119/5/2 118/5/2 120/5/2
f 124/1/3 122/1/3 121/1/3
f 125/1/3 122/1/3 124/1/3
f 126/10/3 123/10/3 122/10/3
f 126/1/3 122/1/3 125/1/3
f 127/10/3 123/10/3 126/10/3
f 128/9/3 125/9/3 124/9/3
f 128/1/3 124/1/3 121/1/3
f 129/1/3 126/1/3 125/1/3
f 129/9/3 125/9/3 128/9/3
f 130/1/3 128/1/3 121/1/3
f 131/1/3 128/1/3 130/1/3
f 132/6/3 129/6/3 128/6/3
f 132/1/3 128/1/3 131/1/3
f 133/1/3 126/1/3 129/1/3
f 133/6/3 129/6/3 132/6/3
f 134/2/3 127/2/3 126/2/3
f 134/1/3 126/1/3 133/1/3
f 135/2/3 127/2/3 134/2/3
f 136/1/3 133/1/3 132/1/3
f 136/1/3 132/1/3 131/1/3
f 136/1/3 134/1/3 133/1/3
f 137/1/3 134/1/3 136/1/3
f 138/10/3 135/10/3 134/10/3
f 138/1/3 134/1/3 137/1/3
f 139/10/3 135/10/3 138/10/3
f 140/9/3 131/9/3 130/9/3
f 141/1/3 136/1/3 131/1/3
f 141/9/3 131/9/3 140/9/3
f 142/6/3 137/6/3 136/6/3
f 142/1/3 136/1/3 141/1/3
f 143/1/3 138/1/3 137/1/3
f 143/6/3 137/6/3 142/6/3
f 144/1/3 141/1/3 140/1/3
f 144/1/3 142/1/3 141/1/3
f 144/9/3 143/9/3 142/9/3
f 145/1/3 138/1/3 143/1/3
f 145/9/3 143/9/3 144/9/3
f 146/2/3 139/2/3 138/2/3
f 146/1/3 138/1/3 145/1/3
f 147/2/3 139/2/3 146/2/3
f 148/1/3 144/1/3 140/1/3
f 148/1/3 145/1/3 144/1/3
f 148/1/3 146/1/3 145/1/3
f 149/10/3 147/10/3 146/10/3
f 149/1/3 146/1/3 148/1/3
f 150/10/3 147/10/3 149/10/3
f 157/1/3 152/1/3 151/1/3
f 158/1/3 152/1/3 157/1/3
f 159/5/3 153/5/3 152/5/3
f 159/1/3 152/1/3 158/1/3
f 160/5/3 153/5/3 159/5/3
f 161/5/3 153/5/3 160/5/3
f 162/5/3 158/5/3 157/5/3
f 162/5/3 157/5/3 156/5/3
f 165/5/3 161/5/3 160/5/3
f 166/5/3 161/5/3 165/5/3
f 167/5/3 161/5/3 166/5/3
f 168/5/3 163/5/3 162/5/3
f 169/5/3 165/5/3 164/5/3
f 169/5/3 166/5/3 165/5/3
f 170/5/3 166/5/3 169/5/3
f 171/1/3 167/1/3 166/1/3
f 171/5/3 166/5/3 170/5/3
f 172/8/3 155/8/3 154/8/3
f 173/1/3 156/1/3 155/1/3
f 173/8/3 155/8/3 172/8/3
f 174/5/3 162/5/3 156/5/3
f 174/1/3 156/1/3 173/1/3
f 174/5/3 168/5/3 162/5/3
f 174/5/3 170/5/3 169/5/3
f 174/5/3 169/5/3 168/5/3
f 175/5/3 170/5/3 174/5/3
f 176/1/3 171/1/3 170/1/3
f 176/5/3 170/5/3 175/5/3
f 177/1/3 167/1/3 171/1/3
f 177/1/3 171/1/3 176/1/3
f 180/5/3 175/5/3 174/5/3
f 181/1/3 176/1/3 175/1/3
f 181/1/3 177/1/3 176/1/3
f 181/5/3 175/5/3 180/5/3
f 182/1/3 177/1/3 181/1/3
f 183/5/3 181/5/3 180/5/3
f 183/5/3 182/5/3 181/5/3
f 184/5/3 182/5/3 183/5/3
f 185/1/3 177/1/3 182/1/3
f 185/5/3 182/5/3 184/5/3
f 186/1/3 177/1/3 185/1/3
f 187/1/3 177/1/3 186/1/3
f 188/5/3 183/5/3 180/5/3
f 189/5/3 183/5/3 188/5/3
f 190/5/3 185/5/3 184/5/3
f 190/5/3 186/5/3 185/5/3
f 191/5/3 186/5/3 190/5/3
f 192/1/3 187/1/3 186/1/3
f 192/5/3 186/5/3 191/5/3
f 193/1/3 187/1/3 192/1/3
f 194/8/3 179/8/3 178/8/3
f 195/1/3 180/1/3 179/1/3
f 195/8/3 179/8/3 194/8/3
f 196/5/3 188/5/3 180/5/3
f 196/1/3 180/1/3 195/1/3
f 197/5/3 188/5/3 196/5/3
f 198/5/3 188/5/3 197/5/3
f 200/5/3 193/5/3 192/5/3
f 200/5/3 192/5/3 191/5/3
f 201/5/3 193/5/3 200/5/3
f 202/1/3 199/1/3 198/1/3
f 202/1/3 198/1/3 197/1/3
f 203/5/3 201/5/3 200/5/3
f 203/1/3 199/1/3 202/1/3
f 203/5/3 200/5/3 199/5/3
f 204/5/3 201/5/3 203/5/3
f 208/10/3 206/10/3 205/10/3
f 209/10/3 206/10/3 208/10/3
f 210/10/3 206/10/3 209/10/3
f 211/10/3 208/10/3 207/10/3
f 211/10/3 209/10/3 208/10/3
f 212/10/3 209/10/3 211/10/3
f 215/10/3 214/10/3 213/10/3
f 216/10/3 214/10/3 215/10/3
f 217/10/3 214/10/3 216/10/3
f 219/10/3 217/10/3 216/10/3
f 219/10/3 218/10/3 217/10/3
f 220/10/3 218/10/3 219/10/3
f 221/1/4 222/1/4 227/1/4
f 227/1/4 222/1/4 228/1/4
f 222/5/4 223/5/4 229/5/4
f 228/1/4 222/1/4 229/1/4
f 229/5/4 223/5/4 230/5/4
f 227/5/4 228/5/4 231/5/4
f 226/5/4 227/5/4 231/5/4
f 224/8/4 225/8/4 233/8/4
f 225/1/4 226/1/4 234/1/4
f 233/8/4 225/8/4 234/8/4
f 231/5/4 232/5/4 235/5/4
f 234/1/4 226/1/4 235/1/4
f 226/5/4 231/5/4 235/5/4
f 235/5/4 232/5/4 238/5/4
f 238/5/4 232/5/4 239/5/4
f 239/5/4 232/5/4 240/5/4
f 236/8/4 237/8/4 241/8/4
f 237/1/4 238/1/4 242/1/4
f 241/8/4 237/8/4 242/8/4
f 238/5/4 239/5/4 243/5/4
f 242/1/4 238/1/4 243/1/4
f 243/5/4 239/5/4 244/5/4
f 244/5/4 239/5/4 245/5/4
f 244/1/4 245/1/4 248/1/4
f 245/1/4 246/1/4 248/1/4
f 246/5/4 247/5/4 249/5/4
f 248/1/4 246/1/4 249/1/4
f 249/5/4 247/5/4 250/5/4
f 251/10/4 252/10/4 254/10/4
f 253/10/4 254/10/4 255/10/4
f 254/10/4 252/10/4 256/10/4
f 255/10/4 254/10/4 256/10/4
f 256/10/4 252/10/4 257/10/4
f 257/10/4 252/10/4 258/10/4
f 263/8/5 260/8/5 259/8/5
f 264/8/5 260/8/5 263/8/5
f 265/8/5 262/8/5 261/8/5
f 266/8/5 262/8/5 265/8/5
f 267/8/5 263/8/5 259/8/5
f 267/10/5 264/10/5 263/10/5
f 268/8/5 260/8/5 264/8/5
f 268/10/5 264/10/5 267/10/5
f 269/10/5 266/10/5 265/10/5
f 269/8/5 265/8/5 261/8/5
f 270/8/5 262/8/5 266/8/5
f 270/10/5 266/10/5 269/10/5
f 271/8/5 267/8/5 259/8/5
f 271/8/5 268/8/5 267/8/5
f 272/8/5 260/8/5 268/8/5
f 272/8/5 268/8/5 271/8/5
f 273/8/5 269/8/5 261/8/5
f 273/8/5 270/8/5 269/8/5
f 274/8/5 262/8/5 270/8/5
f 274/8/5 270/8/5 273/8/5
f 277/5/5 276/5/5 275/5/5
f 278/5/5 276/5/5 277/5/5
f 279/7/5 278/7/5 277/7/5
f 280/7/5 278/7/5 279/7/5
f 281/5/5 280/5/5 279/5/5
f 282/5/5 280/5/5 281/5/5
f 287/1/5 284/1/5 283/1/5
f 288/1/5 284/1/5 287/1/5
f 289/1/5 286/1/5 285/1/5
f 290/1/5 286/1/5 289/1/5
f 293/10/5 292/10/5 291/10/5
f 294/10/5 292/10/5 293/10/5
f 299/10/5 296/10/5 295/10/5
f 300/10/5 296/10/5 299/10/5
f 301/10/5 298/10/5 297/10/5
f 302/10/5 298/10/5 301/10/5
f 307/5/5 304/5/5 303/5/5
f 308/5/5 304/5/5 307/5/5
f 309/5/5 306/5/5 305/5/5
f 310/5/5 306/5/5 309/5/5
f 315/5/5 312/5/5 311/5/5
f 316/5/5 312/5/5 315/5/5
f 317/7/5 316/7/5 315/7/5
f 318/7/5 316/7/5 317/7/5
f 319/5/5 318/5/5 317/5/5
f 320/5/5 318/5/5 319/5/5
f 321/5/5 314/5/5 313/5/5
f 322/5/5 314/5/5 321/5/5
f 327/1/5 324/1/5 323/1/5
f 328/1/5 324/1/5 327/1/5
f 329/9/5 325/9/5 324/9/5
f 329/1/5 324/1/5 328/1/5
f 330/1/5 326/1/5 325/1/5
f 330/9/5 325/9/5 329/9/5
f 331/1/5 326/1/5 330/1/5
f 332/1/5 326/1/5 331/1/5
f 333/5/6 334/5/6 337/5/6
f 337/5/6 334/5/6 338/5/6
f 335/5/6 336/5/6 339/5/6
f 339/5/6 336/5/6 340/5/6
f 341/5/6 342/5/6 345/5/6
f 345/5/6 342/5/6 346/5/6
f 343/5/6 344/5/6 347/5/6
f 347/5/6 344/5/6 348/5/6
f 349/5/6 350/5/6 353/5/6
f 353/5/6 350/5/6 354/5/6
f 351/5/6 352/5/6 355/5/6
f 355/5/6 352/5/6 356/5/6
f 357/10/6 358/10/6 363/10/6
f 358/2/6 359/2/6 363/2/6
f 359/10/6 360/10/6 364/10/6
f 363/2/6 359/2/6 364/2/6
f 360/2/6 361/2/6 365/2/6
f 364/10/6 360/10/6 365/10/6
f 361/10/6 362/10/6 366/10/6
f 365/2/6 361/2/6 366/2/6
f 364/10/6 365/10/6 367/10/6
f 363/10/6 364/10/6 367/10/6
f 365/10/6 366/10/6 367/10/6
f 357/10/6 363/10/6 367/10/6
f 366/10/6 362/10/6 368/10/6
f 367/10/6 366/10/6 368/10/6
