# MagicaVoxel @ Ephtracy

# group
o 

# material
mtllib Vivi_Bo.mtl
usemtl palette

# normals
vn -1 0 0
vn 1 0 0
vn 0 0 1
vn 0 0 -1
vn 0 -1 0
vn 0 1 0

# texcoords
vt 0.0332031 0.5
vt 0.111328 0.5
vt 0.330078 0.5
vt 0.408203 0.5
vt 0.423828 0.5
vt 0.513672 0.5
vt 0.619141 0.5
vt 0.693359 0.5
vt 0.736328 0.5
vt 0.958984 0.5
vt 0.962891 0.5
vt 0.994141 0.5

# verts
v -0.3 -1 0.1
v -0.3 -1 -0.2
v -0.3 -0.6 0.1
v -0.3 -0.6 -0.2
v -0.3 -0.3 0.1
v -0.3 -0.3 -0.2
v -0.3 0 0.1
v -0.3 0 -0.2
v -0.3 0.4 0.1
v -0.3 0.4 -0.2
v -0.3 0.5 0.1
v -0.3 0.5 -0.2
v -0.3 0.7 0.2
v -0.3 0.7 0.1
v -0.3 0.7 -0.2
v -0.3 0.7 -0.3
v -0.3 0.8 -0.1
v -0.3 0.8 -0.2
v -0.3 0.9 -2.98023e-008
v -0.3 0.9 -0.1
v -0.3 1 0.1
v -0.3 1 -2.98023e-008
v -0.3 1.2 0.2
v -0.3 1.2 0.1
v -0.3 1.3 0.2
v -0.3 1.3 -0.3
v -0.2 0 0.1
v -0.2 0 -0.2
v -0.2 0.1 0.1
v -0.2 0.1 -0.2
v -0.2 0.3 0.1
v -0.2 0.3 -0.2
v -0.2 0.4 0.1
v -0.2 0.4 -0.2
v -0.1 0.1 0.1
v -0.1 0.1 -2.98023e-008
v -0.1 0.1 -0.2
v -0.1 0.2 0.1
v -0.1 0.2 -2.98023e-008
v -0.1 0.3 0.1
v -0.1 0.3 -0.2
v -0.1 0.9 -0.6
v -0.1 0.9 -0.7
v -0.1 1 -0.5
v -0.1 1 -0.6
v -0.1 1.1 -0.4
v -0.1 1.1 -0.5
v -0.1 1.2 -0.3
v -0.1 1.2 -0.4
v -0.1 1.2 -0.6
v -0.1 1.2 -0.7
v -0.1 1.3 -0.2
v -0.1 1.3 -0.3
v -0.1 1.3 -0.5
v -0.1 1.3 -0.6
v -0.1 1.4 -0.2
v -0.1 1.4 -0.3
v -0.1 1.4 -0.4
v -0.1 1.4 -0.5
v 0.1 -1 0.1
v 0.1 -1 -0.2
v 0.1 -0.6 0.1
v 0.1 -0.6 -0.2
v 0.1 -0.3 0.1
v 0.1 -0.3 -2.98023e-008
v 0.1 -0.3 -0.1
v 0.1 -0.3 -0.2
v 0.4 0 0.1
v 0.4 0 -0.2
v 0.4 0.4 0.1
v 0.4 0.4 -0.2
v 2.98023e-008 -1 0.1
v 2.98023e-008 -1 -0.2
v 2.98023e-008 -0.6 0.1
v 2.98023e-008 -0.6 -0.2
v 2.98023e-008 -0.3 0.1
v 2.98023e-008 -0.3 -2.98023e-008
v 2.98023e-008 -0.3 -0.1
v 2.98023e-008 -0.3 -0.2
v 0.2 0.1 0.1
v 0.2 0.1 -2.98023e-008
v 0.2 0.1 -0.2
v 0.2 0.2 0.1
v 0.2 0.2 -2.98023e-008
v 0.2 0.3 0.1
v 0.2 0.3 -0.2
v 0.2 0.9 -0.6
v 0.2 0.9 -0.7
v 0.2 1 -0.5
v 0.2 1 -0.6
v 0.2 1.1 -0.4
v 0.2 1.1 -0.5
v 0.2 1.2 -0.3
v 0.2 1.2 -0.4
v 0.2 1.2 -0.6
v 0.2 1.2 -0.7
v 0.2 1.3 -0.2
v 0.2 1.3 -0.3
v 0.2 1.3 -0.5
v 0.2 1.3 -0.6
v 0.2 1.4 -0.2
v 0.2 1.4 -0.3
v 0.2 1.4 -0.4
v 0.2 1.4 -0.5
v 0.3 0 0.1
v 0.3 0 -0.2
v 0.3 0.1 0.1
v 0.3 0.1 -0.2
v 0.3 0.3 0.1
v 0.3 0.3 -0.2
v 0.3 0.4 0.1
v 0.3 0.4 -0.2
v 0.4 -1 0.1
v 0.4 -1 -0.2
v 0.4 -0.6 0.1
v 0.4 -0.6 -0.2
v 0.4 -0.3 0.1
v 0.4 -0.3 -0.2
v 0.4 -0.1 0.1
v 0.4 -0.1 -0.2
v 0.4 0.7 0.2
v 0.4 0.7 0.1
v 0.4 0.7 -0.2
v 0.4 0.7 -0.3
v 0.4 0.8 -0.1
v 0.4 0.8 -0.2
v 0.4 0.9 -2.98023e-008
v 0.4 0.9 -0.1
v 0.4 1 0.1
v 0.4 1 -2.98023e-008
v 0.4 1.2 0.2
v 0.4 1.2 0.1
v 0.4 1.3 0.2
v 0.4 1.3 -0.3
v 0.6 -0.1 0.1
v 0.6 -0.1 -0.2
v 0.6 0.7 0.1
v 0.6 0.7 -0.2
v -0.3 0.7 0.2
v -0.3 1.2 0.2
v -0.3 1.3 0.2
v -0.2 0.9 0.2
v -0.2 1.1 0.2
v -0.1 0.9 0.2
v -0.1 1.1 0.2
v 2.98023e-008 0.7 0.2
v 2.98023e-008 0.8 0.2
v 2.98023e-008 0.9 0.2
v 2.98023e-008 1.1 0.2
v 0.1 0.9 0.2
v 0.1 1.1 0.2
v 0.2 0.7 0.2
v 0.2 0.8 0.2
v 0.2 0.9 0.2
v 0.2 1.1 0.2
v 0.3 0.9 0.2
v 0.3 1.1 0.2
v 0.4 0.7 0.2
v 0.4 1.2 0.2
v 0.4 1.3 0.2
v -0.3 -1 0.1
v -0.3 -0.6 0.1
v -0.3 -0.3 0.1
v -0.3 0 0.1
v -0.3 0.4 0.1
v -0.3 0.5 0.1
v -0.3 0.7 0.1
v -0.2 0 0.1
v -0.2 0.1 0.1
v -0.2 0.3 0.1
v -0.2 0.4 0.1
v -0.2 0.5 0.1
v -0.2 0.7 0.1
v -0.1 0.1 0.1
v -0.1 0.2 0.1
v -0.1 0.3 0.1
v -0.1 0.4 0.1
v -0.1 0.5 0.1
v -0.1 0.7 0.1
v 2.98023e-008 -1 0.1
v 2.98023e-008 -0.6 0.1
v 2.98023e-008 -0.3 0.1
v 2.98023e-008 0 0.1
v 2.98023e-008 0.1 0.1
v 2.98023e-008 0.2 0.1
v 2.98023e-008 0.3 0.1
v 2.98023e-008 0.4 0.1
v 2.98023e-008 0.5 0.1
v 2.98023e-008 0.7 0.1
v 0.1 -1 0.1
v 0.1 -0.6 0.1
v 0.1 -0.3 0.1
v 0.1 0 0.1
v 0.1 0.1 0.1
v 0.1 0.2 0.1
v 0.1 0.3 0.1
v 0.1 0.4 0.1
v 0.1 0.5 0.1
v 0.2 0.1 0.1
v 0.2 0.2 0.1
v 0.2 0.3 0.1
v 0.2 0.4 0.1
v 0.2 0.5 0.1
v 0.2 0.7 0.1
v 0.3 0 0.1
v 0.3 0.1 0.1
v 0.3 0.3 0.1
v 0.3 0.4 0.1
v 0.3 0.5 0.1
v 0.3 0.7 0.1
v 0.4 -1 0.1
v 0.4 -0.6 0.1
v 0.4 -0.3 0.1
v 0.4 -0.1 0.1
v 0.4 0 0.1
v 0.4 0.4 0.1
v 0.4 0.5 0.1
v 0.4 0.7 0.1
v 0.6 -0.1 0.1
v 0.6 0.7 0.1
v -0.1 1.3 -0.2
v -0.1 1.4 -0.2
v 0.2 1.3 -0.2
v 0.2 1.4 -0.2
v -0.1 1.1 -0.4
v -0.1 1.2 -0.4
v 0.2 1.1 -0.4
v 0.2 1.2 -0.4
v -0.1 1 -0.5
v -0.1 1.1 -0.5
v 0.2 1 -0.5
v 0.2 1.1 -0.5
v -0.1 0.9 -0.6
v -0.1 1 -0.6
v 0.2 0.9 -0.6
v 0.2 1 -0.6
v -0.3 -1 -0.2
v -0.3 -0.6 -0.2
v -0.3 -0.3 -0.2
v -0.3 0 -0.2
v -0.3 0.4 -0.2
v -0.3 0.5 -0.2
v -0.3 0.7 -0.2
v -0.2 0 -0.2
v -0.2 0.1 -0.2
v -0.2 0.3 -0.2
v -0.2 0.4 -0.2
v -0.2 0.5 -0.2
v -0.2 0.7 -0.2
v -0.1 0.1 -0.2
v -0.1 0.3 -0.2
v -0.1 0.5 -0.2
v -0.1 0.7 -0.2
v 2.98023e-008 -1 -0.2
v 2.98023e-008 -0.6 -0.2
v 2.98023e-008 -0.3 -0.2
v 0.1 -1 -0.2
v 0.1 -0.6 -0.2
v 0.1 -0.3 -0.2
v 0.2 0.1 -0.2
v 0.2 0.3 -0.2
v 0.2 0.5 -0.2
v 0.2 0.7 -0.2
v 0.3 0 -0.2
v 0.3 0.1 -0.2
v 0.3 0.3 -0.2
v 0.3 0.4 -0.2
v 0.3 0.5 -0.2
v 0.3 0.7 -0.2
v 0.4 -1 -0.2
v 0.4 -0.6 -0.2
v 0.4 -0.3 -0.2
v 0.4 -0.1 -0.2
v 0.4 0 -0.2
v 0.4 0.4 -0.2
v 0.4 0.5 -0.2
v 0.4 0.7 -0.2
v 0.6 -0.1 -0.2
v 0.6 0.7 -0.2
v -0.3 0.7 -0.3
v -0.3 1.3 -0.3
v -0.1 1.2 -0.3
v -0.1 1.3 -0.3
v 0.2 1.2 -0.3
v 0.2 1.3 -0.3
v 0.4 0.7 -0.3
v 0.4 1.3 -0.3
v -0.1 1.3 -0.5
v -0.1 1.4 -0.5
v 0.2 1.3 -0.5
v 0.2 1.4 -0.5
v -0.1 1.2 -0.6
v -0.1 1.3 -0.6
v 0.2 1.2 -0.6
v 0.2 1.3 -0.6
v -0.1 0.9 -0.7
v -0.1 1.2 -0.7
v 0.2 0.9 -0.7
v 0.2 1.2 -0.7
v -0.3 -1 0.1
v 2.98023e-008 -1 0.1
v 0.1 -1 0.1
v 0.4 -1 0.1
v -0.2 -1 -2.98023e-008
v -0.1 -1 -2.98023e-008
v 0.2 -1 -2.98023e-008
v 0.3 -1 -2.98023e-008
v -0.2 -1 -0.1
v -0.1 -1 -0.1
v 0.2 -1 -0.1
v 0.3 -1 -0.1
v -0.3 -1 -0.2
v 2.98023e-008 -1 -0.2
v 0.1 -1 -0.2
v 0.4 -1 -0.2
v 2.98023e-008 -0.3 0.1
v 0.1 -0.3 0.1
v 2.98023e-008 -0.3 -2.98023e-008
v 0.1 -0.3 -2.98023e-008
v 2.98023e-008 -0.3 -0.1
v 0.1 -0.3 -0.1
v 2.98023e-008 -0.3 -0.2
v 0.1 -0.3 -0.2
v 0.4 -0.1 0.1
v 0.6 -0.1 0.1
v 0.4 -0.1 -0.2
v 0.6 -0.1 -0.2
v -0.2 0.3 0.1
v -0.1 0.3 0.1
v 0.2 0.3 0.1
v 0.3 0.3 0.1
v -0.2 0.3 -0.2
v -0.1 0.3 -0.2
v 0.2 0.3 -0.2
v 0.3 0.3 -0.2
v -0.3 0.4 0.1
v -0.2 0.4 0.1
v 0.3 0.4 0.1
v 0.4 0.4 0.1
v -0.3 0.4 -0.2
v -0.2 0.4 -0.2
v 0.3 0.4 -0.2
v 0.4 0.4 -0.2
v -0.3 0.7 0.2
v 2.98023e-008 0.7 0.2
v 0.2 0.7 0.2
v 0.4 0.7 0.2
v -0.3 0.7 0.1
v -0.2 0.7 0.1
v -0.1 0.7 0.1
v 2.98023e-008 0.7 0.1
v 0.2 0.7 0.1
v 0.3 0.7 0.1
v 0.4 0.7 0.1
v -0.3 0.7 -0.2
v -0.2 0.7 -0.2
v -0.1 0.7 -0.2
v 0.2 0.7 -0.2
v 0.3 0.7 -0.2
v 0.4 0.7 -0.2
v -0.3 0.7 -0.3
v 0.4 0.7 -0.3
v -0.1 0.9 -0.6
v 0.2 0.9 -0.6
v -0.1 0.9 -0.7
v 0.2 0.9 -0.7
v -0.1 1 -0.5
v 0.2 1 -0.5
v -0.1 1 -0.6
v 0.2 1 -0.6
v -0.1 1.1 -0.4
v 0.2 1.1 -0.4
v -0.1 1.1 -0.5
v 0.2 1.1 -0.5
v -0.1 1.2 -0.3
v 0.2 1.2 -0.3
v -0.1 1.2 -0.4
v 0.2 1.2 -0.4
v -0.3 0 0.1
v -0.2 0 0.1
v 0.3 0 0.1
v 0.4 0 0.1
v -0.3 0 -0.2
v -0.2 0 -0.2
v 0.3 0 -0.2
v 0.4 0 -0.2
v -0.2 0.1 0.1
v -0.1 0.1 0.1
v 0.2 0.1 0.1
v 0.3 0.1 0.1
v -0.1 0.1 -2.98023e-008
v 0.2 0.1 -2.98023e-008
v -0.2 0.1 -0.2
v -0.1 0.1 -0.2
v 0.2 0.1 -0.2
v 0.3 0.1 -0.2
v 0.4 0.7 0.1
v 0.6 0.7 0.1
v 0.4 0.7 -0.2
v 0.6 0.7 -0.2
v -0.1 1.2 -0.6
v 0.2 1.2 -0.6
v -0.1 1.2 -0.7
v 0.2 1.2 -0.7
v -0.3 1.3 0.2
v 0.4 1.3 0.2
v -0.1 1.3 -0.2
v 0.2 1.3 -0.2
v -0.3 1.3 -0.3
v -0.1 1.3 -0.3
v 0.2 1.3 -0.3
v 0.4 1.3 -0.3
v -0.1 1.3 -0.5
v 0.2 1.3 -0.5
v -0.1 1.3 -0.6
v 0.2 1.3 -0.6
v -0.1 1.4 -0.2
v 0.2 1.4 -0.2
v -0.1 1.4 -0.3
v 0.2 1.4 -0.3
v -0.1 1.4 -0.4
v 0.2 1.4 -0.4
v -0.1 1.4 -0.5
v 0.2 1.4 -0.5

# faces
f 3/11/1 2/11/1 1/11/1
f 4/11/1 2/11/1 3/11/1
f 5/1/1 4/1/1 3/1/1
f 6/1/1 4/1/1 5/1/1
f 7/10/1 6/10/1 5/10/1
f 8/10/1 6/10/1 7/10/1
f 11/3/1 10/3/1 9/3/1
f 12/3/1 10/3/1 11/3/1
f 14/1/1 12/1/1 11/1/1
f 15/1/1 12/1/1 14/1/1
f 17/1/1 15/1/1 14/1/1
f 17/1/1 14/1/1 13/1/1
f 18/5/1 16/5/1 15/5/1
f 18/1/1 15/1/1 17/1/1
f 19/1/1 17/1/1 13/1/1
f 20/5/1 18/5/1 17/5/1
f 20/1/1 17/1/1 19/1/1
f 21/1/1 19/1/1 13/1/1
f 22/5/1 20/5/1 19/5/1
f 22/1/1 19/1/1 21/1/1
f 23/1/1 21/1/1 13/1/1
f 24/5/1 22/5/1 21/5/1
f 24/1/1 21/1/1 23/1/1
f 25/5/1 24/5/1 23/5/1
f 26/5/1 16/5/1 18/5/1
f 26/5/1 24/5/1 25/5/1
f 26/5/1 18/5/1 20/5/1
f 26/5/1 22/5/1 24/5/1
f 26/5/1 20/5/1 22/5/1
f 29/10/1 28/10/1 27/10/1
f 30/10/1 28/10/1 29/10/1
f 33/3/1 32/3/1 31/3/1
f 34/3/1 32/3/1 33/3/1
f 38/8/1 36/8/1 35/8/1
f 39/3/1 37/3/1 36/3/1
f 39/8/1 36/8/1 38/8/1
f 40/3/1 39/3/1 38/3/1
f 41/3/1 37/3/1 39/3/1
f 41/3/1 39/3/1 40/3/1
f 45/5/1 43/5/1 42/5/1
f 47/5/1 45/5/1 44/5/1
f 49/5/1 47/5/1 46/5/1
f 50/5/1 43/5/1 45/5/1
f 50/5/1 45/5/1 47/5/1
f 50/5/1 47/5/1 49/5/1
f 51/5/1 43/5/1 50/5/1
f 53/4/1 49/4/1 48/4/1
f 54/5/1 50/5/1 49/5/1
f 55/5/1 50/5/1 54/5/1
f 56/5/1 53/5/1 52/5/1
f 57/4/1 49/4/1 53/4/1
f 57/5/1 53/5/1 56/5/1
f 58/5/1 54/5/1 49/5/1
f 58/4/1 49/4/1 57/4/1
f 59/5/1 54/5/1 58/5/1
f 62/11/1 61/11/1 60/11/1
f 63/11/1 61/11/1 62/11/1
f 64/1/1 63/1/1 62/1/1
f 65/1/1 63/1/1 64/1/1
f 66/1/1 63/1/1 65/1/1
f 67/1/1 63/1/1 66/1/1
f 70/1/1 69/1/1 68/1/1
f 71/1/1 69/1/1 70/1/1
f 72/11/2 73/11/2 74/11/2
f 74/11/2 73/11/2 75/11/2
f 74/1/2 75/1/2 76/1/2
f 76/1/2 75/1/2 77/1/2
f 77/1/2 75/1/2 78/1/2
f 78/1/2 75/1/2 79/1/2
f 80/8/2 81/8/2 83/8/2
f 81/3/2 82/3/2 84/3/2
f 83/8/2 81/8/2 84/8/2
f 83/3/2 84/3/2 85/3/2
f 84/3/2 82/3/2 86/3/2
f 85/3/2 84/3/2 86/3/2
f 87/5/2 88/5/2 90/5/2
f 89/5/2 90/5/2 92/5/2
f 91/5/2 92/5/2 94/5/2
f 90/5/2 88/5/2 95/5/2
f 92/5/2 90/5/2 95/5/2
f 94/5/2 92/5/2 95/5/2
f 95/5/2 88/5/2 96/5/2
f 93/4/2 94/4/2 98/4/2
f 94/5/2 95/5/2 99/5/2
f 99/5/2 95/5/2 100/5/2
f 97/5/2 98/5/2 101/5/2
f 98/4/2 94/4/2 102/4/2
f 101/5/2 98/5/2 102/5/2
f 94/5/2 99/5/2 103/5/2
f 102/4/2 94/4/2 103/4/2
f 103/5/2 99/5/2 104/5/2
f 105/10/2 106/10/2 107/10/2
f 107/10/2 106/10/2 108/10/2
f 109/3/2 110/3/2 111/3/2
f 111/3/2 110/3/2 112/3/2
f 113/11/2 114/11/2 115/11/2
f 115/11/2 114/11/2 116/11/2
f 115/1/2 116/1/2 117/1/2
f 117/1/2 116/1/2 118/1/2
f 117/10/2 118/10/2 119/10/2
f 119/10/2 118/10/2 120/10/2
f 122/1/2 123/1/2 125/1/2
f 121/1/2 122/1/2 125/1/2
f 123/5/2 124/5/2 126/5/2
f 125/1/2 123/1/2 126/1/2
f 121/1/2 125/1/2 127/1/2
f 125/5/2 126/5/2 128/5/2
f 127/1/2 125/1/2 128/1/2
f 121/1/2 127/1/2 129/1/2
f 127/5/2 128/5/2 130/5/2
f 129/1/2 127/1/2 130/1/2
f 121/1/2 129/1/2 131/1/2
f 129/5/2 130/5/2 132/5/2
f 131/1/2 129/1/2 132/1/2
f 131/5/2 132/5/2 133/5/2
f 126/5/2 124/5/2 134/5/2
f 133/5/2 132/5/2 134/5/2
f 128/5/2 126/5/2 134/5/2
f 132/5/2 130/5/2 134/5/2
f 130/5/2 128/5/2 134/5/2
f 135/1/2 136/1/2 137/1/2
f 137/1/2 136/1/2 138/1/2
f 142/1/3 140/1/3 139/1/3
f 143/1/3 140/1/3 142/1/3
f 144/1/3 142/1/3 139/1/3
f 144/10/3 143/10/3 142/10/3
f 145/1/3 140/1/3 143/1/3
f 145/10/3 143/10/3 144/10/3
f 146/1/3 144/1/3 139/1/3
f 147/1/3 144/1/3 146/1/3
f 148/6/3 145/6/3 144/6/3
f 148/1/3 144/1/3 147/1/3
f 149/1/3 140/1/3 145/1/3
f 149/6/3 145/6/3 148/6/3
f 150/1/3 148/1/3 147/1/3
f 150/1/3 149/1/3 148/1/3
f 151/1/3 140/1/3 149/1/3
f 151/1/3 149/1/3 150/1/3
f 152/10/3 147/10/3 146/10/3
f 153/1/3 150/1/3 147/1/3
f 153/10/3 147/10/3 152/10/3
f 154/6/3 151/6/3 150/6/3
f 154/1/3 150/1/3 153/1/3
f 155/1/3 140/1/3 151/1/3
f 155/6/3 151/6/3 154/6/3
f 156/1/3 154/1/3 153/1/3
f 156/1/3 153/1/3 152/1/3
f 156/10/3 155/10/3 154/10/3
f 157/1/3 140/1/3 155/1/3
f 157/10/3 155/10/3 156/10/3
f 158/1/3 156/1/3 152/1/3
f 158/1/3 157/1/3 156/1/3
f 159/5/3 141/5/3 140/5/3
f 159/1/3 157/1/3 158/1/3
f 159/1/3 140/1/3 157/1/3
f 160/5/3 141/5/3 159/5/3
f 168/10/3 164/10/3 163/10/3
f 171/3/3 166/3/3 165/3/3
f 172/1/3 167/1/3 166/1/3
f 172/3/3 166/3/3 171/3/3
f 173/1/3 167/1/3 172/1/3
f 174/10/3 169/10/3 168/10/3
f 176/3/3 171/3/3 170/3/3
f 177/8/3 172/8/3 171/8/3
f 177/3/3 171/3/3 176/3/3
f 178/12/3 173/12/3 172/12/3
f 178/8/3 172/8/3 177/8/3
f 179/12/3 173/12/3 178/12/3
f 180/11/3 162/11/3 161/11/3
f 181/1/3 163/1/3 162/1/3
f 181/11/3 162/11/3 180/11/3
f 182/10/3 168/10/3 163/10/3
f 182/1/3 163/1/3 181/1/3
f 182/10/3 174/10/3 168/10/3
f 183/10/3 174/10/3 182/10/3
f 184/8/3 175/8/3 174/8/3
f 184/10/3 174/10/3 183/10/3
f 185/3/3 176/3/3 175/3/3
f 185/8/3 175/8/3 184/8/3
f 186/8/3 177/8/3 176/8/3
f 186/3/3 176/3/3 185/3/3
f 187/3/3 178/3/3 177/3/3
f 187/8/3 177/8/3 186/8/3
f 188/1/3 179/1/3 178/1/3
f 188/3/3 178/3/3 187/3/3
f 189/1/3 179/1/3 188/1/3
f 192/10/3 183/10/3 182/10/3
f 193/9/3 184/9/3 183/9/3
f 193/10/3 183/10/3 192/10/3
f 194/3/3 185/3/3 184/3/3
f 194/9/3 184/9/3 193/9/3
f 195/8/3 186/8/3 185/8/3
f 195/3/3 185/3/3 194/3/3
f 196/3/3 187/3/3 186/3/3
f 196/8/3 186/8/3 195/8/3
f 197/1/3 189/1/3 188/1/3
f 197/3/3 187/3/3 196/3/3
f 197/1/3 188/1/3 187/1/3
f 198/1/3 189/1/3 197/1/3
f 199/10/3 193/10/3 192/10/3
f 199/8/3 195/8/3 194/8/3
f 199/10/3 194/10/3 193/10/3
f 200/3/3 196/3/3 195/3/3
f 200/8/3 195/8/3 199/8/3
f 201/8/3 197/8/3 196/8/3
f 201/3/3 196/3/3 200/3/3
f 202/3/3 198/3/3 197/3/3
f 202/8/3 197/8/3 201/8/3
f 203/1/3 189/1/3 198/1/3
f 203/3/3 198/3/3 202/3/3
f 204/1/3 189/1/3 203/1/3
f 205/10/3 199/10/3 192/10/3
f 206/10/3 199/10/3 205/10/3
f 207/3/3 202/3/3 201/3/3
f 208/8/3 203/8/3 202/8/3
f 208/3/3 202/3/3 207/3/3
f 209/12/3 204/12/3 203/12/3
f 209/8/3 203/8/3 208/8/3
f 210/12/3 204/12/3 209/12/3
f 211/11/3 191/11/3 190/11/3
f 212/1/3 192/1/3 191/1/3
f 212/11/3 191/11/3 211/11/3
f 213/10/3 205/10/3 192/10/3
f 213/1/3 192/1/3 212/1/3
f 214/10/3 205/10/3 213/10/3
f 215/10/3 205/10/3 214/10/3
f 216/3/3 209/3/3 208/3/3
f 217/1/3 210/1/3 209/1/3
f 217/3/3 209/3/3 216/3/3
f 218/1/3 210/1/3 217/1/3
f 219/1/3 216/1/3 215/1/3
f 219/1/3 215/1/3 214/1/3
f 219/1/3 218/1/3 217/1/3
f 219/1/3 217/1/3 216/1/3
f 220/1/3 218/1/3 219/1/3
f 223/5/3 222/5/3 221/5/3
f 224/5/3 222/5/3 223/5/3
f 227/5/3 226/5/3 225/5/3
f 228/5/3 226/5/3 227/5/3
f 231/5/3 230/5/3 229/5/3
f 232/5/3 230/5/3 231/5/3
f 235/5/3 234/5/3 233/5/3
f 236/5/3 234/5/3 235/5/3
f 239/10/4 240/10/4 244/10/4
f 241/3/4 242/3/4 247/3/4
f 242/1/4 243/1/4 248/1/4
f 247/3/4 242/3/4 248/3/4
f 248/1/4 243/1/4 249/1/4
f 244/10/4 245/10/4 250/10/4
f 246/3/4 247/3/4 251/3/4
f 247/3/4 248/3/4 251/3/4
f 248/12/4 249/12/4 252/12/4
f 251/3/4 248/3/4 252/3/4
f 252/12/4 249/12/4 253/12/4
f 237/11/4 238/11/4 254/11/4
f 238/1/4 239/1/4 255/1/4
f 254/11/4 238/11/4 255/11/4
f 244/10/4 250/10/4 256/10/4
f 255/1/4 239/1/4 256/1/4
f 239/10/4 244/10/4 256/10/4
f 256/10/4 250/10/4 259/10/4
f 250/3/4 251/3/4 260/3/4
f 251/3/4 252/3/4 260/3/4
f 259/10/4 250/10/4 260/10/4
f 260/3/4 252/3/4 261/3/4
f 252/1/4 253/1/4 262/1/4
f 261/3/4 252/3/4 262/3/4
f 262/1/4 253/1/4 263/1/4
f 259/10/4 260/10/4 264/10/4
f 264/10/4 260/10/4 265/10/4
f 261/3/4 262/3/4 266/3/4
f 266/3/4 262/3/4 267/3/4
f 262/12/4 263/12/4 268/12/4
f 267/3/4 262/3/4 268/3/4
f 268/12/4 263/12/4 269/12/4
f 257/11/4 258/11/4 270/11/4
f 258/1/4 259/1/4 271/1/4
f 270/11/4 258/11/4 271/11/4
f 259/10/4 264/10/4 272/10/4
f 271/1/4 259/1/4 272/1/4
f 272/10/4 264/10/4 273/10/4
f 273/10/4 264/10/4 274/10/4
f 267/3/4 268/3/4 275/3/4
f 268/1/4 269/1/4 276/1/4
f 275/3/4 268/3/4 276/3/4
f 276/1/4 269/1/4 277/1/4
f 274/1/4 275/1/4 278/1/4
f 273/1/4 274/1/4 278/1/4
f 276/1/4 277/1/4 278/1/4
f 275/1/4 276/1/4 278/1/4
f 278/1/4 277/1/4 279/1/4
f 280/5/4 281/5/4 282/5/4
f 282/5/4 281/5/4 283/5/4
f 280/5/4 282/5/4 284/5/4
f 280/5/4 284/5/4 286/5/4
f 284/5/4 285/5/4 286/5/4
f 286/5/4 285/5/4 287/5/4
f 288/5/4 289/5/4 290/5/4
f 290/5/4 289/5/4 291/5/4
f 292/5/4 293/5/4 294/5/4
f 294/5/4 293/5/4 295/5/4
f 296/5/4 297/5/4 298/5/4
f 298/5/4 297/5/4 299/5/4
f 304/11/5 301/11/5 300/11/5
f 305/11/5 301/11/5 304/11/5
f 306/11/5 303/11/5 302/11/5
f 307/11/5 303/11/5 306/11/5
f 308/11/5 304/11/5 300/11/5
f 308/12/5 305/12/5 304/12/5
f 309/11/5 301/11/5 305/11/5
f 309/12/5 305/12/5 308/12/5
f 310/12/5 307/12/5 306/12/5
f 310/11/5 306/11/5 302/11/5
f 311/11/5 303/11/5 307/11/5
f 311/12/5 307/12/5 310/12/5
f 312/11/5 308/11/5 300/11/5
f 312/11/5 309/11/5 308/11/5
f 313/11/5 301/11/5 309/11/5
f 313/11/5 309/11/5 312/11/5
f 314/11/5 310/11/5 302/11/5
f 314/11/5 311/11/5 310/11/5
f 315/11/5 303/11/5 311/11/5
f 315/11/5 311/11/5 314/11/5
f 318/10/5 317/10/5 316/10/5
f 319/10/5 317/10/5 318/10/5
f 320/2/5 319/2/5 318/2/5
f 321/2/5 319/2/5 320/2/5
f 322/10/5 321/10/5 320/10/5
f 323/10/5 321/10/5 322/10/5
f 326/1/5 325/1/5 324/1/5
f 327/1/5 325/1/5 326/1/5
f 332/3/5 329/3/5 328/3/5
f 333/3/5 329/3/5 332/3/5
f 334/3/5 331/3/5 330/3/5
f 335/3/5 331/3/5 334/3/5
f 340/3/5 337/3/5 336/3/5
f 341/3/5 337/3/5 340/3/5
f 342/3/5 339/3/5 338/3/5
f 343/3/5 339/3/5 342/3/5
f 348/1/5 345/1/5 344/1/5
f 349/1/5 345/1/5 348/1/5
f 350/1/5 345/1/5 349/1/5
f 351/10/5 346/10/5 345/10/5
f 351/1/5 345/1/5 350/1/5
f 352/1/5 347/1/5 346/1/5
f 352/10/5 346/10/5 351/10/5
f 353/1/5 347/1/5 352/1/5
f 354/1/5 347/1/5 353/1/5
f 361/5/5 356/5/5 355/5/5
f 361/5/5 360/5/5 359/5/5
f 361/5/5 359/5/5 358/5/5
f 361/5/5 358/5/5 357/5/5
f 361/5/5 357/5/5 356/5/5
f 362/5/5 360/5/5 361/5/5
f 365/5/5 364/5/5 363/5/5
f 366/5/5 364/5/5 365/5/5
f 369/5/5 368/5/5 367/5/5
f 370/5/5 368/5/5 369/5/5
f 373/5/5 372/5/5 371/5/5
f 374/5/5 372/5/5 373/5/5
f 377/4/5 376/4/5 375/4/5
f 378/4/5 376/4/5 377/4/5
f 379/10/6 380/10/6 383/10/6
f 383/10/6 380/10/6 384/10/6
f 381/10/6 382/10/6 385/10/6
f 385/10/6 382/10/6 386/10/6
f 387/10/6 388/10/6 391/10/6
f 389/10/6 390/10/6 392/10/6
f 387/10/6 391/10/6 393/10/6
f 393/10/6 391/10/6 394/10/6
f 392/10/6 390/10/6 395/10/6
f 395/10/6 390/10/6 396/10/6
f 397/1/6 398/1/6 399/1/6
f 399/1/6 398/1/6 400/1/6
f 401/5/6 402/5/6 403/5/6
f 403/5/6 402/5/6 404/5/6
f 405/5/6 406/5/6 407/5/6
f 407/5/6 406/5/6 408/5/6
f 405/5/6 407/5/6 409/5/6
f 409/5/6 407/5/6 410/5/6
f 408/5/6 406/5/6 411/5/6
f 411/5/6 406/5/6 412/5/6
f 413/5/6 414/5/6 415/5/6
f 415/5/6 414/5/6 416/5/6
f 417/5/6 418/5/6 419/5/6
f 419/5/6 418/5/6 420/5/6
f 419/4/6 420/4/6 421/4/6
f 421/4/6 420/4/6 422/4/6
f 421/5/6 422/5/6 423/5/6
f 423/5/6 422/5/6 424/5/6
