# MagicaVoxel @ Ephtracy

# group
o 

# material
mtllib Zoro_Bo.mtl
usemtl palette

# normals
vn -1 0 0
vn 1 0 0
vn 0 0 1
vn 0 0 -1
vn 0 -1 0
vn 0 1 0

# texcoords
vt 0.0332031 0.5
vt 0.0605469 0.5
vt 0.623047 0.5
vt 0.650391 0.5
vt 0.861328 0.5
vt 0.892578 0.5
vt 0.900391 0.5
vt 0.927734 0.5
vt 0.958984 0.5
vt 0.994141 0.5

# verts
v -0.3 -0.3 0.1
v -0.3 -0.3 -0.2
v -0.3 -0.2 0.1
v -0.3 -0.2 -0.2
v -0.3 0.5 0.2
v -0.3 0.5 0.1
v -0.3 0.5 -0.2
v -0.3 0.5 -0.3
v -0.3 0.6 -0.1
v -0.3 0.6 -0.3
v -0.3 0.7 0.1
v -0.3 0.7 -2.98023e-008
v -0.3 0.8 0.2
v -0.3 0.8 0.1
v -0.3 0.9 -2.98023e-008
v -0.3 0.9 -0.1
v -0.3 1.1 0.2
v -0.3 1.1 -0.3
v 2.98023e-008 -0.5 0.1
v 2.98023e-008 -0.5 -0.2
v 2.98023e-008 -0.4 0.1
v 2.98023e-008 -0.4 -2.98023e-008
v 2.98023e-008 -0.4 -0.1
v 2.98023e-008 -0.4 -0.2
v 2.98023e-008 -0.3 0.1
v 2.98023e-008 -0.3 -2.98023e-008
v 2.98023e-008 -0.3 -0.1
v 2.98023e-008 -0.3 -0.2
v 0.1 -0.5 0.1
v 0.1 -0.5 -0.2
v 0.1 -0.4 0.1
v 0.1 -0.4 -2.98023e-008
v 0.1 -0.4 -0.1
v 0.1 -0.4 -0.2
v 0.1 -0.3 0.1
v 0.1 -0.3 -2.98023e-008
v 0.1 -0.3 -0.1
v 0.1 -0.3 -0.2
v 0.4 -0.3 0.1
v 0.4 -0.3 -0.2
v 0.4 -0.2 0.1
v 0.4 -0.2 -0.2
v 0.4 0.5 0.2
v 0.4 0.5 0.1
v 0.4 0.5 -0.2
v 0.4 0.5 -0.3
v 0.4 0.6 -0.1
v 0.4 0.6 -0.3
v 0.4 0.7 0.1
v 0.4 0.7 -2.98023e-008
v 0.4 0.9 0.2
v 0.4 0.9 0.1
v 0.4 0.9 -2.98023e-008
v 0.4 0.9 -0.1
v 0.4 1.1 0.2
v 0.4 1.1 -0.3
v -0.3 0.5 0.2
v -0.3 0.8 0.2
v -0.3 1.1 0.2
v -0.2 0.7 0.2
v -0.2 0.8 0.2
v -0.2 0.9 0.2
v -0.1 0.7 0.2
v -0.1 0.9 0.2
v -0.1 1 0.2
v 2.98023e-008 0.5 0.2
v 2.98023e-008 0.6 0.2
v 2.98023e-008 0.7 0.2
v 2.98023e-008 0.9 0.2
v 2.98023e-008 1 0.2
v 0.2 0.5 0.2
v 0.2 0.6 0.2
v 0.2 0.7 0.2
v 0.2 0.9 0.2
v 0.2 1 0.2
v 0.3 0.7 0.2
v 0.3 0.9 0.2
v 0.3 1 0.2
v 0.4 0.5 0.2
v 0.4 0.9 0.2
v 0.4 1.1 0.2
v -0.3 -0.3 0.1
v -0.3 -0.2 0.1
v -0.3 0.5 0.1
v -0.2 -0.2 0.1
v -0.2 0 0.1
v -0.2 0.1 0.1
v -0.2 0.5 0.1
v -0.1 -0.2 0.1
v -0.1 0 0.1
v -0.1 0.1 0.1
v -0.1 0.2 0.1
v 2.98023e-008 -0.5 0.1
v 2.98023e-008 -0.4 0.1
v 2.98023e-008 -0.3 0.1
v 2.98023e-008 -0.2 0.1
v 2.98023e-008 0 0.1
v 2.98023e-008 0.1 0.1
v 2.98023e-008 0.2 0.1
v 2.98023e-008 0.3 0.1
v 2.98023e-008 0.5 0.1
v 0.1 -0.5 0.1
v 0.1 -0.4 0.1
v 0.1 -0.3 0.1
v 0.1 -0.2 0.1
v 0.1 0 0.1
v 0.2 -0.2 0.1
v 0.2 0 0.1
v 0.2 0.2 0.1
v 0.2 0.3 0.1
v 0.2 0.4 0.1
v 0.2 0.5 0.1
v 0.3 -0.2 0.1
v 0.3 0 0.1
v 0.3 0.3 0.1
v 0.3 0.4 0.1
v 0.3 0.5 0.1
v 0.4 -0.3 0.1
v 0.4 -0.2 0.1
v 0.4 0.5 0.1
v -0.3 -0.3 -0.2
v -0.3 -0.2 -0.2
v -0.3 0.5 -0.2
v 2.98023e-008 -0.5 -0.2
v 2.98023e-008 -0.4 -0.2
v 2.98023e-008 -0.3 -0.2
v 0.1 -0.5 -0.2
v 0.1 -0.4 -0.2
v 0.1 -0.3 -0.2
v 0.4 -0.3 -0.2
v 0.4 -0.2 -0.2
v 0.4 0.5 -0.2
v -0.3 0.5 -0.3
v -0.3 0.6 -0.3
v -0.3 1.1 -0.3
v 0.4 0.5 -0.3
v 0.4 0.6 -0.3
v 0.4 1.1 -0.3
v 2.98023e-008 -0.5 0.1
v 0.1 -0.5 0.1
v 2.98023e-008 -0.5 -0.2
v 0.1 -0.5 -0.2
v -0.3 -0.3 0.1
v 2.98023e-008 -0.3 0.1
v 0.1 -0.3 0.1
v 0.4 -0.3 0.1
v -0.2 -0.3 -2.98023e-008
v 2.98023e-008 -0.3 -2.98023e-008
v 0.1 -0.3 -2.98023e-008
v 0.3 -0.3 -2.98023e-008
v -0.2 -0.3 -0.1
v 2.98023e-008 -0.3 -0.1
v 0.1 -0.3 -0.1
v 0.3 -0.3 -0.1
v -0.3 -0.3 -0.2
v 2.98023e-008 -0.3 -0.2
v 0.1 -0.3 -0.2
v 0.4 -0.3 -0.2
v -0.3 0.5 0.2
v 2.98023e-008 0.5 0.2
v 0.2 0.5 0.2
v 0.4 0.5 0.2
v -0.3 0.5 0.1
v -0.2 0.5 0.1
v 2.98023e-008 0.5 0.1
v 0.2 0.5 0.1
v 0.3 0.5 0.1
v 0.4 0.5 0.1
v -0.3 0.5 -0.2
v 0.4 0.5 -0.2
v -0.3 0.5 -0.3
v 0.4 0.5 -0.3
v -0.3 1.1 0.2
v 0.4 1.1 0.2
v -0.3 1.1 -0.3
v 0.4 1.1 -0.3

# faces
f 3/5/1 2/5/1 1/5/1
f 4/5/1 2/5/1 3/5/1
f 6/4/1 4/4/1 3/4/1
f 7/4/1 4/4/1 6/4/1
f 9/1/1 7/1/1 6/1/1
f 9/1/1 8/1/1 7/1/1
f 9/1/1 6/1/1 5/1/1
f 10/1/1 8/1/1 9/1/1
f 11/1/1 9/1/1 5/1/1
f 12/1/1 9/1/1 11/1/1
f 13/1/1 11/1/1 5/1/1
f 14/3/1 12/3/1 11/3/1
f 14/1/1 11/1/1 13/1/1
f 15/1/1 9/1/1 12/1/1
f 15/3/1 12/3/1 14/3/1
f 15/3/1 14/3/1 13/3/1
f 16/3/1 10/3/1 9/3/1
f 16/1/1 9/1/1 15/1/1
f 17/3/1 15/3/1 13/3/1
f 17/3/1 16/3/1 15/3/1
f 18/3/1 10/3/1 16/3/1
f 18/3/1 16/3/1 17/3/1
f 21/4/1 20/4/1 19/4/1
f 22/4/1 20/4/1 21/4/1
f 23/4/1 20/4/1 22/4/1
f 24/4/1 20/4/1 23/4/1
f 25/5/1 22/5/1 21/5/1
f 26/4/1 23/4/1 22/4/1
f 26/5/1 22/5/1 25/5/1
f 27/5/1 24/5/1 23/5/1
f 27/4/1 23/4/1 26/4/1
f 28/5/1 24/5/1 27/5/1
f 29/4/2 30/4/2 31/4/2
f 31/4/2 30/4/2 32/4/2
f 32/4/2 30/4/2 33/4/2
f 33/4/2 30/4/2 34/4/2
f 31/5/2 32/5/2 35/5/2
f 32/4/2 33/4/2 36/4/2
f 35/5/2 32/5/2 36/5/2
f 33/5/2 34/5/2 37/5/2
f 36/4/2 33/4/2 37/4/2
f 37/5/2 34/5/2 38/5/2
f 39/5/2 40/5/2 41/5/2
f 41/5/2 40/5/2 42/5/2
f 41/4/2 42/4/2 44/4/2
f 44/4/2 42/4/2 45/4/2
f 44/1/2 45/1/2 47/1/2
f 45/1/2 46/1/2 47/1/2
f 43/1/2 44/1/2 47/1/2
f 47/1/2 46/1/2 48/1/2
f 43/1/2 47/1/2 49/1/2
f 49/1/2 47/1/2 50/1/2
f 43/1/2 49/1/2 51/1/2
f 49/3/2 50/3/2 52/3/2
f 51/1/2 49/1/2 52/1/2
f 50/1/2 47/1/2 53/1/2
f 52/3/2 50/3/2 53/3/2
f 47/3/2 48/3/2 54/3/2
f 53/1/2 47/1/2 54/1/2
f 52/3/2 53/3/2 55/3/2
f 51/3/2 52/3/2 55/3/2
f 53/3/2 54/3/2 55/3/2
f 54/3/2 48/3/2 56/3/2
f 55/3/2 54/3/2 56/3/2
f 60/1/3 58/1/3 57/1/3
f 61/3/3 59/3/3 58/3/3
f 61/1/3 58/1/3 60/1/3
f 62/3/3 59/3/3 61/3/3
f 63/1/3 60/1/3 57/1/3
f 63/9/3 61/9/3 60/9/3
f 63/9/3 62/9/3 61/9/3
f 64/3/3 59/3/3 62/3/3
f 64/9/3 62/9/3 63/9/3
f 65/3/3 59/3/3 64/3/3
f 66/1/3 63/1/3 57/1/3
f 67/1/3 63/1/3 66/1/3
f 68/10/3 64/10/3 63/10/3
f 68/1/3 63/1/3 67/1/3
f 69/1/3 65/1/3 64/1/3
f 69/10/3 64/10/3 68/10/3
f 70/3/3 59/3/3 65/3/3
f 70/1/3 65/1/3 69/1/3
f 71/9/3 67/9/3 66/9/3
f 72/1/3 69/1/3 68/1/3
f 72/9/3 67/9/3 71/9/3
f 72/1/3 68/1/3 67/1/3
f 73/1/3 69/1/3 72/1/3
f 74/3/3 70/3/3 69/3/3
f 74/1/3 69/1/3 73/1/3
f 75/3/3 59/3/3 70/3/3
f 75/3/3 70/3/3 74/3/3
f 76/2/3 74/2/3 73/2/3
f 76/1/3 73/1/3 72/1/3
f 76/1/3 72/1/3 71/1/3
f 77/1/3 75/1/3 74/1/3
f 77/2/3 74/2/3 76/2/3
f 78/3/3 59/3/3 75/3/3
f 78/1/3 75/1/3 77/1/3
f 79/1/3 77/1/3 76/1/3
f 79/1/3 76/1/3 71/1/3
f 80/3/3 78/3/3 77/3/3
f 80/1/3 77/1/3 79/1/3
f 81/3/3 59/3/3 78/3/3
f 81/3/3 78/3/3 80/3/3
f 85/5/3 83/5/3 82/5/3
f 85/4/3 84/4/3 83/4/3
f 86/4/3 84/4/3 85/4/3
f 87/4/3 84/4/3 86/4/3
f 88/4/3 84/4/3 87/4/3
f 89/5/3 85/5/3 82/5/3
f 89/6/3 86/6/3 85/6/3
f 90/2/3 87/2/3 86/2/3
f 90/6/3 86/6/3 89/6/3
f 91/1/3 88/1/3 87/1/3
f 91/2/3 87/2/3 90/2/3
f 92/1/3 88/1/3 91/1/3
f 95/5/3 89/5/3 82/5/3
f 96/7/3 90/7/3 89/7/3
f 96/5/3 89/5/3 95/5/3
f 97/1/3 91/1/3 90/1/3
f 97/7/3 90/7/3 96/7/3
f 98/2/3 92/2/3 91/2/3
f 98/1/3 91/1/3 97/1/3
f 99/1/3 88/1/3 92/1/3
f 99/2/3 92/2/3 98/2/3
f 100/1/3 88/1/3 99/1/3
f 101/1/3 88/1/3 100/1/3
f 102/4/3 94/4/3 93/4/3
f 103/5/3 95/5/3 94/5/3
f 103/4/3 94/4/3 102/4/3
f 103/5/3 96/5/3 95/5/3
f 104/5/3 96/5/3 103/5/3
f 105/6/3 97/6/3 96/6/3
f 105/5/3 96/5/3 104/5/3
f 106/1/3 98/1/3 97/1/3
f 106/6/3 97/6/3 105/6/3
f 106/1/3 99/1/3 98/1/3
f 107/5/3 105/5/3 104/5/3
f 107/7/3 106/7/3 105/7/3
f 108/1/3 99/1/3 106/1/3
f 108/7/3 106/7/3 107/7/3
f 109/2/3 100/2/3 99/2/3
f 109/1/3 99/1/3 108/1/3
f 110/1/3 101/1/3 100/1/3
f 110/2/3 100/2/3 109/2/3
f 111/1/3 101/1/3 110/1/3
f 112/1/3 101/1/3 111/1/3
f 113/5/3 107/5/3 104/5/3
f 113/6/3 108/6/3 107/6/3
f 114/1/3 109/1/3 108/1/3
f 114/6/3 108/6/3 113/6/3
f 114/1/3 110/1/3 109/1/3
f 115/2/3 111/2/3 110/2/3
f 115/1/3 110/1/3 114/1/3
f 116/1/3 112/1/3 111/1/3
f 116/2/3 111/2/3 115/2/3
f 117/1/3 112/1/3 116/1/3
f 118/5/3 113/5/3 104/5/3
f 119/4/3 115/4/3 114/4/3
f 119/5/3 113/5/3 118/5/3
f 119/4/3 114/4/3 113/4/3
f 119/4/3 117/4/3 116/4/3
f 119/4/3 116/4/3 115/4/3
f 120/4/3 117/4/3 119/4/3
f 121/5/4 122/5/4 126/5/4
f 124/4/4 125/4/4 127/4/4
f 125/5/4 126/5/4 128/5/4
f 127/4/4 125/4/4 128/4/4
f 126/5/4 122/5/4 129/5/4
f 128/5/4 126/5/4 129/5/4
f 129/5/4 122/5/4 130/5/4
f 122/4/4 123/4/4 131/4/4
f 130/5/4 122/5/4 131/5/4
f 131/4/4 123/4/4 132/4/4
f 133/1/4 134/1/4 136/1/4
f 134/3/4 135/3/4 137/3/4
f 136/1/4 134/1/4 137/1/4
f 137/3/4 135/3/4 138/3/4
f 141/4/5 140/4/5 139/4/5
f 142/4/5 140/4/5 141/4/5
f 147/5/5 144/5/5 143/5/5
f 148/5/5 144/5/5 147/5/5
f 149/5/5 146/5/5 145/5/5
f 150/5/5 146/5/5 149/5/5
f 151/4/5 148/4/5 147/4/5
f 151/5/5 147/5/5 143/5/5
f 152/4/5 148/4/5 151/4/5
f 153/4/5 150/4/5 149/4/5
f 154/5/5 146/5/5 150/5/5
f 154/4/5 150/4/5 153/4/5
f 155/5/5 152/5/5 151/5/5
f 155/5/5 151/5/5 143/5/5
f 156/5/5 152/5/5 155/5/5
f 157/5/5 154/5/5 153/5/5
f 158/5/5 146/5/5 154/5/5
f 158/5/5 154/5/5 157/5/5
f 163/1/5 160/1/5 159/1/5
f 164/1/5 160/1/5 163/1/5
f 165/9/5 161/9/5 160/9/5
f 165/1/5 160/1/5 164/1/5
f 166/1/5 162/1/5 161/1/5
f 166/9/5 161/9/5 165/9/5
f 167/1/5 162/1/5 166/1/5
f 168/1/5 162/1/5 167/1/5
f 171/1/5 170/1/5 169/1/5
f 172/1/5 170/1/5 171/1/5
f 173/3/6 174/3/6 175/3/6
f 175/3/6 174/3/6 176/3/6
