# MagicaVoxel @ Ephtracy

# group
o 

# material
mtllib Zoro_bo.mtl
usemtl palette

# normals
vn -1 0 0
vn 1 0 0
vn 0 0 1
vn 0 0 -1
vn 0 -1 0
vn 0 1 0

# texcoords
vt 0.0175781 0.5
vt 0.0332031 0.5
vt 0.0605469 0.5
vt 0.623047 0.5
vt 0.650391 0.5
vt 0.701172 0.5
vt 0.861328 0.5
vt 0.892578 0.5
vt 0.900391 0.5
vt 0.927734 0.5
vt 0.958984 0.5
vt 0.994141 0.5

# verts
v -0.3 0 0.1
v -0.3 0 -0.2
v -0.3 0.3 0.1
v -0.3 0.3 -0.2
v -0.3 0.8 0.1
v -0.3 0.8 -0.2
v -0.3 1 0.1
v -0.3 1 -0.2
v -0.3 1.7 0.2
v -0.3 1.7 0.1
v -0.3 1.7 -0.2
v -0.3 1.7 -0.3
v -0.3 1.8 -0.1
v -0.3 1.8 -0.3
v -0.3 1.9 0.1
v -0.3 1.9 -2.98023e-008
v -0.3 2 0.2
v -0.3 2 0.1
v -0.3 2.1 -2.98023e-008
v -0.3 2.1 -0.1
v -0.3 2.3 0.2
v -0.3 2.3 -0.3
v 0.1 0 0.1
v 0.1 0 -0.2
v 0.1 0.3 0.1
v 0.1 0.3 -0.2
v 2.98023e-008 0 0.1
v 2.98023e-008 0 -0.2
v 2.98023e-008 0.3 0.1
v 2.98023e-008 0.3 -0.2
v 0.4 0 0.1
v 0.4 0 -0.2
v 0.4 0.3 0.1
v 0.4 0.3 -0.2
v 0.4 0.5 0.1
v 0.4 0.5 -2.98023e-008
v 0.4 0.7 -2.98023e-008
v 0.4 0.7 -0.1
v 0.4 0.8 -0.1
v 0.4 0.8 -0.2
v 0.4 1 0.1
v 0.4 1 -0.2
v 0.4 1.7 0.2
v 0.4 1.7 0.1
v 0.4 1.7 -0.2
v 0.4 1.7 -0.3
v 0.4 1.8 -0.1
v 0.4 1.8 -0.3
v 0.4 1.9 0.1
v 0.4 1.9 -2.98023e-008
v 0.4 2.1 0.2
v 0.4 2.1 0.1
v 0.4 2.1 -2.98023e-008
v 0.4 2.1 -0.1
v 0.4 2.3 0.2
v 0.4 2.3 -0.3
v -0.3 1.7 0.2
v -0.3 2 0.2
v -0.3 2.3 0.2
v -0.2 1.9 0.2
v -0.2 2 0.2
v -0.2 2.1 0.2
v -0.1 1.9 0.2
v -0.1 2.1 0.2
v -0.1 2.2 0.2
v 2.98023e-008 1.7 0.2
v 2.98023e-008 1.8 0.2
v 2.98023e-008 1.9 0.2
v 2.98023e-008 2.1 0.2
v 2.98023e-008 2.2 0.2
v 0.2 1.7 0.2
v 0.2 1.8 0.2
v 0.2 1.9 0.2
v 0.2 2.1 0.2
v 0.2 2.2 0.2
v 0.3 1.9 0.2
v 0.3 2.1 0.2
v 0.3 2.2 0.2
v 0.4 1.7 0.2
v 0.4 2.1 0.2
v 0.4 2.3 0.2
v -0.3 0 0.1
v -0.3 0.3 0.1
v -0.3 0.8 0.1
v -0.3 1 0.1
v -0.3 1.7 0.1
v -0.2 0.3 0.1
v -0.2 0.4 0.1
v -0.2 0.5 0.1
v -0.2 0.6 0.1
v -0.2 0.7 0.1
v -0.2 0.8 0.1
v -0.2 1 0.1
v -0.2 1.2 0.1
v -0.2 1.3 0.1
v -0.2 1.7 0.1
v -0.1 0.3 0.1
v -0.1 0.4 0.1
v -0.1 0.5 0.1
v -0.1 0.6 0.1
v -0.1 0.7 0.1
v -0.1 0.8 0.1
v -0.1 1 0.1
v -0.1 1.2 0.1
v -0.1 1.3 0.1
v -0.1 1.4 0.1
v 2.98023e-008 0 0.1
v 2.98023e-008 0.3 0.1
v 2.98023e-008 1 0.1
v 2.98023e-008 1.2 0.1
v 2.98023e-008 1.3 0.1
v 2.98023e-008 1.4 0.1
v 2.98023e-008 1.5 0.1
v 2.98023e-008 1.7 0.1
v 0.1 0 0.1
v 0.1 0.3 0.1
v 0.1 1 0.1
v 0.1 1.2 0.1
v 0.2 0.7 0.1
v 0.2 0.8 0.1
v 0.2 1 0.1
v 0.2 1.2 0.1
v 0.2 1.4 0.1
v 0.2 1.5 0.1
v 0.2 1.6 0.1
v 0.2 1.7 0.1
v 0.3 0.5 0.1
v 0.3 0.7 0.1
v 0.3 1 0.1
v 0.3 1.2 0.1
v 0.3 1.5 0.1
v 0.3 1.6 0.1
v 0.3 1.7 0.1
v 0.4 0 0.1
v 0.4 0.3 0.1
v 0.4 0.5 0.1
v 0.4 1 0.1
v 0.4 1.7 0.1
v -0.3 0 -0.2
v -0.3 0.3 -0.2
v -0.3 0.8 -0.2
v -0.3 1 -0.2
v -0.3 1.7 -0.2
v 2.98023e-008 0 -0.2
v 2.98023e-008 0.3 -0.2
v 0.1 0 -0.2
v 0.1 0.3 -0.2
v 0.4 0 -0.2
v 0.4 0.3 -0.2
v 0.4 0.8 -0.2
v 0.4 1 -0.2
v 0.4 1.7 -0.2
v -0.3 1.7 -0.3
v -0.3 1.8 -0.3
v -0.3 2.3 -0.3
v 0.4 1.7 -0.3
v 0.4 1.8 -0.3
v 0.4 2.3 -0.3
v -0.3 0 0.1
v 2.98023e-008 0 0.1
v 0.1 0 0.1
v 0.4 0 0.1
v -0.3 0 -0.2
v 2.98023e-008 0 -0.2
v 0.1 0 -0.2
v 0.4 0 -0.2
v 2.98023e-008 0.3 0.1
v 0.1 0.3 0.1
v 2.98023e-008 0.3 -0.2
v 0.1 0.3 -0.2
v -0.3 1.7 0.2
v 2.98023e-008 1.7 0.2
v 0.2 1.7 0.2
v 0.4 1.7 0.2
v -0.3 1.7 0.1
v -0.2 1.7 0.1
v 2.98023e-008 1.7 0.1
v 0.2 1.7 0.1
v 0.3 1.7 0.1
v 0.4 1.7 0.1
v -0.3 1.7 -0.2
v 0.4 1.7 -0.2
v -0.3 1.7 -0.3
v 0.4 1.7 -0.3
v -0.3 2.3 0.2
v 0.4 2.3 0.2
v -0.3 2.3 -0.3
v 0.4 2.3 -0.3

# faces
f 3/6/1 2/6/1 1/6/1
f 4/6/1 2/6/1 3/6/1
f 5/5/1 4/5/1 3/5/1
f 6/5/1 4/5/1 5/5/1
f 7/7/1 6/7/1 5/7/1
f 8/7/1 6/7/1 7/7/1
f 10/5/1 8/5/1 7/5/1
f 11/5/1 8/5/1 10/5/1
f 13/2/1 11/2/1 10/2/1
f 13/2/1 12/2/1 11/2/1
f 13/2/1 10/2/1 9/2/1
f 14/2/1 12/2/1 13/2/1
f 15/2/1 13/2/1 9/2/1
f 16/2/1 13/2/1 15/2/1
f 17/2/1 15/2/1 9/2/1
f 18/4/1 16/4/1 15/4/1
f 18/2/1 15/2/1 17/2/1
f 19/2/1 13/2/1 16/2/1
f 19/4/1 16/4/1 18/4/1
f 19/4/1 18/4/1 17/4/1
f 20/4/1 14/4/1 13/4/1
f 20/2/1 13/2/1 19/2/1
f 21/4/1 19/4/1 17/4/1
f 21/4/1 20/4/1 19/4/1
f 22/4/1 14/4/1 20/4/1
f 22/4/1 20/4/1 21/4/1
f 25/6/1 24/6/1 23/6/1
f 26/6/1 24/6/1 25/6/1
f 27/6/2 28/6/2 29/6/2
f 29/6/2 28/6/2 30/6/2
f 31/6/2 32/6/2 33/6/2
f 33/6/2 32/6/2 34/6/2
f 33/5/2 34/5/2 35/5/2
f 35/5/2 34/5/2 36/5/2
f 35/7/2 36/7/2 37/7/2
f 36/5/2 34/5/2 37/5/2
f 37/5/2 34/5/2 38/5/2
f 37/7/2 38/7/2 39/7/2
f 38/5/2 34/5/2 39/5/2
f 39/5/2 34/5/2 40/5/2
f 35/7/2 37/7/2 41/7/2
f 37/7/2 39/7/2 41/7/2
f 39/7/2 40/7/2 41/7/2
f 41/7/2 40/7/2 42/7/2
f 41/5/2 42/5/2 44/5/2
f 44/5/2 42/5/2 45/5/2
f 44/2/2 45/2/2 47/2/2
f 45/2/2 46/2/2 47/2/2
f 43/2/2 44/2/2 47/2/2
f 47/2/2 46/2/2 48/2/2
f 43/2/2 47/2/2 49/2/2
f 49/2/2 47/2/2 50/2/2
f 43/2/2 49/2/2 51/2/2
f 49/4/2 50/4/2 52/4/2
f 51/2/2 49/2/2 52/2/2
f 50/2/2 47/2/2 53/2/2
f 52/4/2 50/4/2 53/4/2
f 47/4/2 48/4/2 54/4/2
f 53/2/2 47/2/2 54/2/2
f 52/4/2 53/4/2 55/4/2
f 51/4/2 52/4/2 55/4/2
f 53/4/2 54/4/2 55/4/2
f 54/4/2 48/4/2 56/4/2
f 55/4/2 54/4/2 56/4/2
f 60/2/3 58/2/3 57/2/3
f 61/4/3 59/4/3 58/4/3
f 61/2/3 58/2/3 60/2/3
f 62/4/3 59/4/3 61/4/3
f 63/2/3 60/2/3 57/2/3
f 63/11/3 61/11/3 60/11/3
f 63/11/3 62/11/3 61/11/3
f 64/4/3 59/4/3 62/4/3
f 64/11/3 62/11/3 63/11/3
f 65/4/3 59/4/3 64/4/3
f 66/2/3 63/2/3 57/2/3
f 67/2/3 63/2/3 66/2/3
f 68/12/3 64/12/3 63/12/3
f 68/2/3 63/2/3 67/2/3
f 69/2/3 65/2/3 64/2/3
f 69/12/3 64/12/3 68/12/3
f 70/4/3 59/4/3 65/4/3
f 70/2/3 65/2/3 69/2/3
f 71/11/3 67/11/3 66/11/3
f 72/2/3 69/2/3 68/2/3
f 72/11/3 67/11/3 71/11/3
f 72/2/3 68/2/3 67/2/3
f 73/2/3 69/2/3 72/2/3
f 74/4/3 70/4/3 69/4/3
f 74/2/3 69/2/3 73/2/3
f 75/4/3 59/4/3 70/4/3
f 75/4/3 70/4/3 74/4/3
f 76/3/3 74/3/3 73/3/3
f 76/2/3 73/2/3 72/2/3
f 76/2/3 72/2/3 71/2/3
f 77/2/3 75/2/3 74/2/3
f 77/3/3 74/3/3 76/3/3
f 78/4/3 59/4/3 75/4/3
f 78/2/3 75/2/3 77/2/3
f 79/2/3 77/2/3 76/2/3
f 79/2/3 76/2/3 71/2/3
f 80/4/3 78/4/3 77/4/3
f 80/2/3 77/2/3 79/2/3
f 81/4/3 59/4/3 78/4/3
f 81/4/3 78/4/3 80/4/3
f 87/6/3 83/6/3 82/6/3
f 87/5/3 84/5/3 83/5/3
f 88/5/3 84/5/3 87/5/3
f 89/5/3 84/5/3 88/5/3
f 90/5/3 84/5/3 89/5/3
f 91/5/3 84/5/3 90/5/3
f 92/7/3 85/7/3 84/7/3
f 92/5/3 84/5/3 91/5/3
f 93/5/3 86/5/3 85/5/3
f 93/7/3 85/7/3 92/7/3
f 94/5/3 86/5/3 93/5/3
f 95/5/3 86/5/3 94/5/3
f 96/5/3 86/5/3 95/5/3
f 97/6/3 87/6/3 82/6/3
f 97/1/3 88/1/3 87/1/3
f 98/5/3 89/5/3 88/5/3
f 98/1/3 88/1/3 97/1/3
f 99/1/3 90/1/3 89/1/3
f 99/5/3 89/5/3 98/5/3
f 100/5/3 91/5/3 90/5/3
f 100/1/3 90/1/3 99/1/3
f 101/1/3 92/1/3 91/1/3
f 101/5/3 91/5/3 100/5/3
f 102/7/3 93/7/3 92/7/3
f 102/1/3 92/1/3 101/1/3
f 103/8/3 94/8/3 93/8/3
f 103/7/3 93/7/3 102/7/3
f 104/3/3 95/3/3 94/3/3
f 104/8/3 94/8/3 103/8/3
f 105/2/3 96/2/3 95/2/3
f 105/3/3 95/3/3 104/3/3
f 106/2/3 96/2/3 105/2/3
f 107/6/3 97/6/3 82/6/3
f 108/5/3 100/5/3 99/5/3
f 108/6/3 97/6/3 107/6/3
f 108/5/3 99/5/3 98/5/3
f 108/5/3 98/5/3 97/5/3
f 108/5/3 101/5/3 100/5/3
f 108/5/3 102/5/3 101/5/3
f 109/9/3 104/9/3 103/9/3
f 109/7/3 103/7/3 102/7/3
f 110/2/3 105/2/3 104/2/3
f 110/9/3 104/9/3 109/9/3
f 111/3/3 106/3/3 105/3/3
f 111/2/3 105/2/3 110/2/3
f 112/2/3 96/2/3 106/2/3
f 112/3/3 106/3/3 111/3/3
f 113/2/3 96/2/3 112/2/3
f 114/2/3 96/2/3 113/2/3
f 116/5/3 102/5/3 108/5/3
f 117/8/3 110/8/3 109/8/3
f 117/7/3 109/7/3 102/7/3
f 118/2/3 111/2/3 110/2/3
f 118/8/3 110/8/3 117/8/3
f 118/2/3 112/2/3 111/2/3
f 119/5/3 102/5/3 116/5/3
f 120/7/3 117/7/3 102/7/3
f 120/5/3 102/5/3 119/5/3
f 121/9/3 118/9/3 117/9/3
f 121/7/3 117/7/3 120/7/3
f 122/2/3 112/2/3 118/2/3
f 122/9/3 118/9/3 121/9/3
f 123/3/3 113/3/3 112/3/3
f 123/2/3 112/2/3 122/2/3
f 124/2/3 114/2/3 113/2/3
f 124/3/3 113/3/3 123/3/3
f 125/2/3 114/2/3 124/2/3
f 126/2/3 114/2/3 125/2/3
f 127/5/3 119/5/3 116/5/3
f 128/7/3 121/7/3 120/7/3
f 128/5/3 119/5/3 127/5/3
f 128/7/3 120/7/3 119/7/3
f 129/8/3 122/8/3 121/8/3
f 129/7/3 121/7/3 128/7/3
f 130/2/3 123/2/3 122/2/3
f 130/8/3 122/8/3 129/8/3
f 130/2/3 124/2/3 123/2/3
f 131/3/3 125/3/3 124/3/3
f 131/2/3 124/2/3 130/2/3
f 132/2/3 126/2/3 125/2/3
f 132/3/3 125/3/3 131/3/3
f 133/2/3 126/2/3 132/2/3
f 134/6/3 116/6/3 115/6/3
f 135/5/3 127/5/3 116/5/3
f 135/6/3 116/6/3 134/6/3
f 136/7/3 129/7/3 128/7/3
f 136/5/3 127/5/3 135/5/3
f 136/7/3 128/7/3 127/7/3
f 137/5/3 133/5/3 132/5/3
f 137/7/3 129/7/3 136/7/3
f 137/5/3 131/5/3 130/5/3
f 137/5/3 132/5/3 131/5/3
f 137/5/3 130/5/3 129/5/3
f 138/5/3 133/5/3 137/5/3
f 139/6/4 140/6/4 144/6/4
f 140/5/4 141/5/4 145/5/4
f 144/6/4 140/6/4 145/6/4
f 145/5/4 141/5/4 147/5/4
f 146/6/4 147/6/4 148/6/4
f 147/5/4 141/5/4 149/5/4
f 148/6/4 147/6/4 149/6/4
f 141/7/4 142/7/4 150/7/4
f 149/5/4 141/5/4 150/5/4
f 142/5/4 143/5/4 151/5/4
f 150/7/4 142/7/4 151/7/4
f 151/5/4 143/5/4 152/5/4
f 153/2/4 154/2/4 156/2/4
f 154/4/4 155/4/4 157/4/4
f 156/2/4 154/2/4 157/2/4
f 157/4/4 155/4/4 158/4/4
f 163/6/5 160/6/5 159/6/5
f 164/6/5 160/6/5 163/6/5
f 165/6/5 162/6/5 161/6/5
f 166/6/5 162/6/5 165/6/5
f 169/5/5 168/5/5 167/5/5
f 170/5/5 168/5/5 169/5/5
f 175/2/5 172/2/5 171/2/5
f 176/2/5 172/2/5 175/2/5
f 177/11/5 173/11/5 172/11/5
f 177/2/5 172/2/5 176/2/5
f 178/2/5 174/2/5 173/2/5
f 178/11/5 173/11/5 177/11/5
f 179/2/5 174/2/5 178/2/5
f 180/2/5 174/2/5 179/2/5
f 183/2/5 182/2/5 181/2/5
f 184/2/5 182/2/5 183/2/5
f 185/4/6 186/4/6 187/4/6
f 187/4/6 186/4/6 188/4/6
